<svg xmlns="http://www.w3.org/2000/svg" xmlns:xlink="http://www.w3.org/1999/xlink" width="500" zoomAndPan="magnify" viewBox="0 0 375 374.999991" height="500" preserveAspectRatio="xMidYMid meet" version="1.0"><defs><g/><clipPath id="fe0ece2e9f"><path d="M 49.34375 33 L 325.65625 33 L 325.65625 341.59375 L 49.34375 341.59375 Z M 49.34375 33 " clip-rule="nonzero"/></clipPath><clipPath id="692c6382ac"><path d="M 207.585938 39.210938 L 305.570312 96.324219 C 318.007812 103.574219 325.65625 116.886719 325.65625 131.28125 L 325.65625 243.71875 C 325.65625 258.113281 318.007812 271.425781 305.570312 278.675781 L 207.585938 335.789062 C 195.171875 343.023438 179.828125 343.023438 167.414062 335.789062 L 69.429688 278.675781 C 56.992188 271.425781 49.34375 258.113281 49.34375 243.71875 L 49.34375 131.28125 C 49.34375 116.886719 56.992188 103.574219 69.429688 96.324219 L 167.414062 39.210938 C 179.828125 31.976562 195.171875 31.976562 207.585938 39.210938 Z M 207.585938 39.210938 " clip-rule="nonzero"/></clipPath><clipPath id="4ee7fe7b6a"><path d="M 49.34375 33 L 325.34375 33 L 325.34375 342 L 49.34375 342 Z M 49.34375 33 " clip-rule="nonzero"/></clipPath><clipPath id="1f1aa361b9"><path d="M 207.582031 39.214844 L 305.5625 96.328125 C 318 103.574219 325.648438 116.886719 325.648438 131.285156 L 325.648438 243.714844 C 325.648438 258.109375 318 271.421875 305.5625 278.671875 L 207.582031 335.78125 C 195.167969 343.019531 179.824219 343.019531 167.410156 335.78125 L 69.429688 278.671875 C 56.992188 271.421875 49.34375 258.109375 49.34375 243.714844 L 49.34375 131.285156 C 49.34375 116.886719 56.992188 103.574219 69.429688 96.328125 L 167.410156 39.214844 C 179.824219 31.980469 195.167969 31.980469 207.582031 39.214844 Z M 207.582031 39.214844 " clip-rule="nonzero"/></clipPath><clipPath id="6a6552eff5"><path d="M 63.355469 49 L 311.605469 49 L 311.605469 326 L 63.355469 326 Z M 63.355469 49 " clip-rule="nonzero"/></clipPath><clipPath id="47f1d4d336"><path d="M 68.832031 55 L 305.832031 55 L 305.832031 320 L 68.832031 320 Z M 68.832031 55 " clip-rule="nonzero"/></clipPath><clipPath id="97a60618dd"><path d="M 32.839844 162.863281 L 342.160156 162.863281 L 342.160156 231.378906 L 32.839844 231.378906 Z M 32.839844 162.863281 " clip-rule="nonzero"/></clipPath><clipPath id="9bdd84e288"><path d="M 17.828125 156.488281 L 357.179688 156.488281 L 357.179688 165.253906 L 17.828125 165.253906 Z M 17.828125 156.488281 " clip-rule="nonzero"/></clipPath><clipPath id="bf30502b6e"><path d="M 256.273438 156.488281 L 118.722656 156.488281 C 98.234375 156.488281 77.753906 157.390625 57.34375 159.1875 L 19.082031 162.554688 C 18.359375 162.621094 17.816406 163.238281 17.847656 163.960938 C 17.882812 164.683594 18.476562 165.253906 19.199219 165.253906 L 355.796875 165.253906 C 356.519531 165.253906 357.117188 164.683594 357.148438 163.960938 C 357.179688 163.238281 356.636719 162.621094 355.917969 162.554688 L 317.65625 159.1875 C 297.242188 157.390625 276.761719 156.488281 256.273438 156.488281 Z M 256.273438 156.488281 " clip-rule="nonzero"/></clipPath><clipPath id="4ddbb82d05"><path d="M 17.820312 229.398438 L 357.171875 229.398438 L 357.171875 238.160156 L 17.820312 238.160156 Z M 17.820312 229.398438 " clip-rule="nonzero"/></clipPath><clipPath id="32ffa1f33e"><path d="M 118.726562 238.160156 L 256.273438 238.160156 C 276.765625 238.160156 297.246094 237.261719 317.65625 235.464844 L 355.917969 232.09375 C 356.636719 232.03125 357.179688 231.410156 357.148438 230.6875 C 357.117188 229.96875 356.523438 229.398438 355.800781 229.398438 L 19.199219 229.398438 C 18.476562 229.398438 17.882812 229.96875 17.851562 230.6875 C 17.820312 231.410156 18.363281 232.03125 19.082031 232.09375 L 57.34375 235.464844 C 77.753906 237.261719 98.234375 238.160156 118.726562 238.160156 Z M 118.726562 238.160156 " clip-rule="nonzero"/></clipPath><clipPath id="0ebe6e0cf3"><path d="M 73.46875 124 L 301.46875 124 L 301.46875 160.304688 L 73.46875 160.304688 Z M 73.46875 124 " clip-rule="nonzero"/></clipPath><clipPath id="22e260826f"><path d="M 79.734375 233.683594 L 294.984375 233.683594 L 294.984375 268 L 79.734375 268 Z M 79.734375 233.683594 " clip-rule="nonzero"/></clipPath><clipPath id="0ea2b8dca3"><path d="M 146.164062 282.050781 L 154.414062 282.050781 L 154.414062 290.300781 L 146.164062 290.300781 Z M 146.164062 282.050781 " clip-rule="nonzero"/></clipPath><clipPath id="ce686beaf3"><path d="M 220.316406 282.050781 L 228.566406 282.050781 L 228.566406 290.300781 L 220.316406 290.300781 Z M 220.316406 282.050781 " clip-rule="nonzero"/></clipPath></defs><rect x="-37.5" width="450" fill="#ffffff" y="-37.499999" height="449.999989" fill-opacity="1"/><rect x="-37.5" width="450" fill="#ffffff" y="-37.499999" height="449.999989" fill-opacity="1"/><g clip-path="url(#fe0ece2e9f)"><g clip-path="url(#692c6382ac)"><path fill="#ffffff" d="M 49.34375 27.503906 L 325.65625 27.503906 L 325.65625 346.992188 L 49.34375 346.992188 Z M 49.34375 27.503906 " fill-opacity="1" fill-rule="nonzero"/></g></g><g clip-path="url(#4ee7fe7b6a)"><g clip-path="url(#1f1aa361b9)"><path stroke-linecap="butt" transform="matrix(0.75, 0, 0, 0.75, 49.342988, 27.507733)" fill="none" stroke-linejoin="miter" d="M 210.985418 15.609483 L 341.62606 91.760534 C 358.209395 101.421994 368.407313 119.171996 368.407313 138.369916 L 368.407313 288.276185 C 368.407313 307.468896 358.209395 325.218898 341.62606 334.885566 L 210.985418 411.031409 C 194.433332 420.682452 173.974996 420.682452 157.422911 411.031409 L 26.782269 334.885566 C 10.198933 325.218898 0.00101539 307.468896 0.00101539 288.276185 L 0.00101539 138.369916 C 0.00101539 119.171996 10.198933 101.421994 26.782269 91.760534 L 157.422911 15.609483 C 173.974996 5.963648 194.433332 5.963648 210.985418 15.609483 Z M 210.985418 15.609483 " stroke="#429ad2" stroke-width="28" stroke-opacity="1" stroke-miterlimit="4"/></g></g><g clip-path="url(#6a6552eff5)"><path fill="#073f6f" d="M 296.753906 267.769531 L 249.574219 295.003906 L 202.398438 322.242188 C 194.175781 326.992188 180.824219 326.992188 172.601562 322.242188 L 125.425781 295.003906 L 78.246094 267.769531 C 70.023438 263.019531 63.351562 251.457031 63.351562 241.964844 L 63.351562 133.011719 C 63.351562 123.519531 70.023438 111.957031 78.246094 107.207031 L 125.425781 79.972656 L 172.601562 52.734375 C 180.824219 47.984375 194.175781 47.984375 202.398438 52.734375 L 249.574219 79.972656 L 296.753906 107.207031 C 304.972656 111.957031 311.648438 123.519531 311.648438 133.011719 L 311.648438 241.964844 C 311.648438 251.457031 304.972656 263.019531 296.753906 267.769531 Z M 296.753906 267.769531 " fill-opacity="1" fill-rule="nonzero"/></g><g clip-path="url(#47f1d4d336)"><path fill="#ffffff" d="M 291.925781 264.226562 L 246.832031 290.261719 L 201.734375 316.296875 C 193.875 320.832031 181.113281 320.832031 173.253906 316.296875 L 83.066406 264.226562 C 75.207031 259.6875 68.824219 248.632812 68.824219 239.558594 L 68.824219 135.414062 C 68.824219 126.34375 75.207031 115.289062 83.066406 110.75 L 173.253906 58.679688 C 181.113281 54.140625 193.875 54.140625 201.734375 58.679688 L 246.832031 84.714844 L 291.925781 110.75 C 299.785156 115.289062 306.167969 126.34375 306.167969 135.414062 L 306.167969 239.558594 C 306.167969 248.632812 299.785156 259.6875 291.925781 264.226562 Z M 291.925781 264.226562 " fill-opacity="1" fill-rule="nonzero"/></g><g clip-path="url(#97a60618dd)"><path fill="#eff9ff" d="M 32.839844 162.863281 L 342.238281 162.863281 L 342.238281 231.378906 L 32.839844 231.378906 Z M 32.839844 162.863281 " fill-opacity="1" fill-rule="nonzero"/></g><g clip-path="url(#9bdd84e288)"><g clip-path="url(#bf30502b6e)"><path fill="#429ad2" d="M 386.546875 165.253906 L -11.542969 165.253906 L -11.542969 156.488281 L 386.546875 156.488281 Z M 386.546875 165.253906 " fill-opacity="1" fill-rule="nonzero"/></g></g><g clip-path="url(#4ddbb82d05)"><g clip-path="url(#32ffa1f33e)"><path fill="#429ad2" d="M -11.550781 229.398438 L 386.539062 229.398438 L 386.539062 238.160156 L -11.550781 238.160156 Z M -11.550781 229.398438 " fill-opacity="1" fill-rule="nonzero"/></g></g><g fill="#073f6f" fill-opacity="1"><g transform="translate(36.02174, 217.660284)"><g><path d="M 23.859375 -42.125 C 28.578125 -42.125 32.203125 -40.960938 34.734375 -38.640625 C 37.273438 -36.328125 38.546875 -33.023438 38.546875 -28.734375 C 38.546875 -25.390625 37.765625 -22.453125 36.203125 -19.921875 C 34.640625 -17.390625 32.425781 -15.414062 29.5625 -14 C 26.707031 -12.59375 23.414062 -11.890625 19.6875 -11.890625 L 16.515625 -11.890625 L 16.96875 0 L 3.90625 0 L 4.546875 -12.34375 L 3.90625 -42.0625 Z M 21.515625 -21 C 22.679688 -21.644531 23.535156 -22.476562 24.078125 -23.5 C 24.617188 -24.519531 24.890625 -25.832031 24.890625 -27.4375 C 24.890625 -29.34375 24.4375 -30.738281 23.53125 -31.625 C 22.625 -32.507812 21.191406 -32.992188 19.234375 -33.078125 L 16.90625 -32.890625 L 16.640625 -21.25 Z M 21.515625 -21 "/></g></g></g><g fill="#073f6f" fill-opacity="1"><g transform="translate(78.137145, 217.660284)"><g><path d="M 31.59375 -16.578125 C 34.707031 -11.722656 37.828125 -7.21875 40.953125 -3.0625 L 40.75 -1.625 C 36.332031 -0.28125 31.976562 0.519531 27.6875 0.78125 L 26.453125 -0.265625 L 25.671875 -1.890625 C 25.328125 -2.578125 24.632812 -4.035156 23.59375 -6.265625 C 22.550781 -8.503906 21.640625 -10.597656 20.859375 -12.546875 L 16.515625 -12.546875 L 16.96875 0 L 3.90625 0 L 4.546875 -12.34375 L 3.90625 -42.0625 L 23.859375 -42.125 C 28.578125 -42.125 32.210938 -41.003906 34.765625 -38.765625 C 37.328125 -36.535156 38.609375 -33.320312 38.609375 -29.125 C 38.609375 -26.65625 37.988281 -24.335938 36.75 -22.171875 C 35.519531 -20.003906 33.800781 -18.140625 31.59375 -16.578125 Z M 24.890625 -27.8125 C 24.890625 -29.550781 24.445312 -30.84375 23.5625 -31.6875 C 22.675781 -32.53125 21.234375 -32.992188 19.234375 -33.078125 L 16.90625 -32.890625 L 16.640625 -22.03125 L 21.390625 -21.78125 C 22.597656 -22.34375 23.484375 -23.097656 24.046875 -24.046875 C 24.609375 -25.003906 24.890625 -26.257812 24.890625 -27.8125 Z M 24.890625 -27.8125 "/></g></g></g><g fill="#073f6f" fill-opacity="1"><g transform="translate(122.722254, 217.660284)"><g><path d="M 33.609375 -10.40625 L 34.3125 -9.484375 L 33.546875 0 L 3.90625 0 L 4.546875 -12.34375 L 3.90625 -42.0625 L 34.0625 -42.0625 L 34.78125 -41.140625 L 33.9375 -31.65625 L 23.59375 -32.046875 L 16.90625 -32.046875 L 16.765625 -26.125 L 23.203125 -26.125 L 29.96875 -26.328125 L 30.6875 -25.421875 L 29.90625 -15.921875 L 22.359375 -16.125 L 16.515625 -16.125 L 16.4375 -13.65625 L 16.578125 -10.015625 L 22.8125 -10.015625 Z M 33.609375 -10.40625 "/></g></g></g><g fill="#073f6f" fill-opacity="1"><g transform="translate(161.458064, 217.660284)"><g><path d="M 19.828125 -42.828125 C 23.941406 -42.828125 28.015625 -42.070312 32.046875 -40.5625 L 29.96875 -29.96875 L 28.140625 -29.1875 C 26.328125 -30.3125 24.53125 -31.195312 22.75 -31.84375 C 20.96875 -32.5 19.535156 -32.828125 18.453125 -32.828125 C 17.460938 -32.828125 16.671875 -32.628906 16.078125 -32.234375 C 15.492188 -31.847656 15.203125 -31.332031 15.203125 -30.6875 C 15.203125 -29.851562 15.644531 -29.144531 16.53125 -28.5625 C 17.425781 -27.976562 18.914062 -27.210938 21 -26.265625 C 23.425781 -25.179688 25.414062 -24.171875 26.96875 -23.234375 C 28.53125 -22.304688 29.894531 -21.03125 31.0625 -19.40625 C 32.238281 -17.78125 32.828125 -15.773438 32.828125 -13.390625 C 32.828125 -10.742188 32.097656 -8.347656 30.640625 -6.203125 C 29.191406 -4.054688 27.125 -2.351562 24.4375 -1.09375 C 21.75 0.15625 18.628906 0.78125 15.078125 0.78125 C 10.660156 0.78125 6.023438 -0.0390625 1.171875 -1.6875 L 3.0625 -13 L 4.359375 -13.78125 C 6.347656 -12.257812 8.476562 -11.054688 10.75 -10.171875 C 13.03125 -9.285156 14.925781 -8.84375 16.4375 -8.84375 C 17.65625 -8.84375 18.535156 -9.046875 19.078125 -9.453125 C 19.617188 -9.867188 19.890625 -10.378906 19.890625 -10.984375 C 19.890625 -11.890625 19.421875 -12.65625 18.484375 -13.28125 C 17.554688 -13.914062 16.050781 -14.6875 13.96875 -15.59375 C 11.59375 -16.632812 9.632812 -17.617188 8.09375 -18.546875 C 6.550781 -19.484375 5.21875 -20.765625 4.09375 -22.390625 C 2.96875 -24.015625 2.40625 -26.019531 2.40625 -28.40625 C 2.40625 -31.132812 3.140625 -33.59375 4.609375 -35.78125 C 6.085938 -37.96875 8.144531 -39.6875 10.78125 -40.9375 C 13.425781 -42.195312 16.441406 -42.828125 19.828125 -42.828125 Z M 19.828125 -42.828125 "/></g></g></g><g fill="#073f6f" fill-opacity="1"><g transform="translate(199.348969, 217.660284)"><g><path d="M 33.34375 -41.140625 L 32.625 -31.65625 L 24.046875 -32.046875 L 23.265625 -32.046875 L 22.9375 -13.65625 L 23.46875 0 L 10.46875 0 L 11.109375 -12.34375 L 10.796875 -32.046875 L 9.9375 -32.046875 L 1.296875 -31.65625 L 0.515625 -32.5625 L 1.234375 -42.0625 L 32.625 -42.0625 Z M 33.34375 -41.140625 "/></g></g></g><g fill="#073f6f" fill-opacity="1"><g transform="translate(236.654943, 217.660284)"><g><path d="M 16.4375 -13.65625 L 16.96875 0 L 3.90625 0 L 4.546875 -12.34375 L 3.90625 -42.0625 L 17.15625 -42.0625 Z M 16.4375 -13.65625 "/></g></g></g><g fill="#073f6f" fill-opacity="1"><g transform="translate(261.482418, 217.660284)"><g><path d="M 24.828125 -42.765625 C 29.503906 -42.765625 33.554688 -42.113281 36.984375 -40.8125 L 34.1875 -29.3125 L 33.15625 -29.3125 C 30.988281 -30.394531 29.113281 -31.175781 27.53125 -31.65625 C 25.945312 -32.132812 24.222656 -32.375 22.359375 -32.375 C 20.367188 -32.375 18.84375 -32.046875 17.78125 -31.390625 C 16.71875 -30.742188 15.945312 -29.597656 15.46875 -27.953125 C 14.988281 -26.304688 14.75 -23.921875 14.75 -20.796875 C 14.75 -17.640625 14.988281 -15.222656 15.46875 -13.546875 C 15.945312 -11.878906 16.757812 -10.707031 17.90625 -10.03125 C 19.050781 -9.363281 20.707031 -9.03125 22.875 -9.03125 C 23.488281 -9.03125 24.269531 -9.117188 25.21875 -9.296875 L 25.21875 -11.375 L 25.03125 -18.453125 L 36.921875 -19.3125 L 36.71875 -13.578125 L 36.71875 -2.078125 C 31.695312 -0.171875 26.691406 0.78125 21.703125 0.78125 C 14.898438 0.78125 9.765625 -1.023438 6.296875 -4.640625 C 2.835938 -8.265625 1.109375 -13.4375 1.109375 -20.15625 C 1.109375 -27.519531 3.15625 -33.128906 7.25 -36.984375 C 11.34375 -40.835938 17.203125 -42.765625 24.828125 -42.765625 Z M 24.828125 -42.765625 "/></g></g></g><g fill="#073f6f" fill-opacity="1"><g transform="translate(303.792802, 217.660284)"><g><path d="M 33.609375 -10.40625 L 34.3125 -9.484375 L 33.546875 0 L 3.90625 0 L 4.546875 -12.34375 L 3.90625 -42.0625 L 34.0625 -42.0625 L 34.78125 -41.140625 L 33.9375 -31.65625 L 23.59375 -32.046875 L 16.90625 -32.046875 L 16.765625 -26.125 L 23.203125 -26.125 L 29.96875 -26.328125 L 30.6875 -25.421875 L 29.90625 -15.921875 L 22.359375 -16.125 L 16.515625 -16.125 L 16.4375 -13.65625 L 16.578125 -10.015625 L 22.8125 -10.015625 Z M 33.609375 -10.40625 "/></g></g></g><g clip-path="url(#0ebe6e0cf3)"><path fill="#429ad2" d="M 73.664062 160.296875 C 73.664062 159.191406 79.933594 156.332031 85.140625 156.449219 L 85.1875 156.449219 C 89.828125 156.597656 91.621094 151.527344 86.890625 150.863281 C 84.460938 150.523438 82.824219 150.199219 81.828125 149.242188 C 79.683594 147.1875 80.421875 142.894531 82.65625 141.324219 C 90.011719 136.152344 99.285156 144.550781 104.503906 149.566406 C 108.816406 153.710938 115.410156 153.933594 116.683594 153.96875 L 116.730469 153.96875 C 121.527344 153.453125 126.976562 153.757812 131.667969 155.679688 C 138.757812 158.578125 145.449219 157.191406 152.558594 155.261719 C 162.695312 152.507812 160.261719 139.644531 149.089844 140.140625 C 138.117188 140.628906 138.839844 125.78125 149.027344 124.714844 C 167.667969 122.765625 162.484375 154.898438 188.207031 150.925781 C 207.433594 147.960938 203.042969 157.0625 215.109375 155.527344 C 222.183594 154.628906 229.992188 151.339844 237.90625 143.730469 C 246.558594 135.414062 261.9375 121.496094 274.132812 130.066406 C 276.523438 131.75 277.660156 134.300781 277.550781 137.09375 C 277.28125 143.960938 274.273438 144.882812 267.105469 145.886719 C 259.941406 146.890625 263.09375 154.976562 267.972656 152.734375 C 279.5625 147.398438 286.25 155.808594 297.167969 159 L 301.273438 160.203125 L 73.667969 160.296875 Z M 73.664062 160.296875 " fill-opacity="1" fill-rule="nonzero"/></g><path fill="#429ad2" d="M 204.335938 135.105469 C 204.335938 135.105469 205.386719 138.019531 202.585938 140.289062 C 199.789062 142.558594 198.746094 140.300781 194.308594 140.910156 C 189.871094 141.519531 189.542969 142.066406 188.324219 143.148438 C 187.109375 144.230469 185.015625 143.808594 185.695312 140.9375 C 186.375 138.066406 187.769531 135.902344 191.699219 133.273438 C 201.980469 127.515625 204.335938 135.105469 204.335938 135.105469 Z M 204.335938 135.105469 " fill-opacity="1" fill-rule="nonzero"/><path fill="#429ad2" d="M 148.617188 151.96875 C 147.539062 154.125 141.589844 152.457031 139.421875 151.304688 C 137.25 150.152344 136.359375 147.457031 137.4375 145.300781 C 138.519531 143.144531 141.171875 142.324219 143.34375 143.472656 C 145.515625 144.625 149.699219 149.8125 148.617188 151.96875 Z M 148.617188 151.96875 " fill-opacity="1" fill-rule="nonzero"/><path fill="#ffffff" d="M 139.171875 145.328125 C 139.0625 144.65625 139.574219 144.007812 140.316406 143.871094 C 141.058594 143.734375 141.75 144.167969 141.859375 144.835938 C 141.96875 145.503906 141.457031 146.15625 140.714844 146.292969 C 139.972656 146.425781 139.28125 145.996094 139.171875 145.328125 Z M 139.171875 145.328125 " fill-opacity="1" fill-rule="nonzero"/><path fill="#ffffff" d="M 143.070312 133.53125 C 142.707031 137.230469 146.449219 137.472656 145.738281 133.5625 C 145.519531 132.359375 145.589844 131.335938 146.824219 130.453125 C 147.753906 129.792969 146.9375 129.179688 146.347656 129.085938 C 144.957031 128.863281 143.320312 131.011719 143.070312 133.53125 Z M 143.070312 133.53125 " fill-opacity="1" fill-rule="nonzero"/><path fill="#ffffff" d="M 148.382812 128.058594 C 148.285156 127.460938 148.742188 126.875 149.40625 126.757812 C 150.070312 126.632812 150.6875 127.023438 150.785156 127.621094 C 150.886719 128.21875 150.425781 128.800781 149.761719 128.921875 C 149.097656 129.042969 148.480469 128.65625 148.382812 128.058594 Z M 148.382812 128.058594 " fill-opacity="1" fill-rule="nonzero"/><path fill="#ffffff" d="M 199.066406 132.484375 C 201.433594 132.882812 200.511719 135.527344 198.128906 134.292969 C 197.484375 133.960938 196.855469 133.832031 195.90625 134.433594 C 195.191406 134.882812 195.109375 134.292969 195.257812 133.917969 C 195.605469 133.042969 197.484375 132.214844 199.066406 132.484375 Z M 199.066406 132.484375 " fill-opacity="1" fill-rule="nonzero"/><path fill="#ffffff" d="M 268.65625 129.617188 C 273.707031 130.394531 272.332031 135.980469 265.914062 133.3125 C 264.195312 132.601562 262.507812 132.300781 259.96875 133.4375 C 258.0625 134.292969 257.835938 133.09375 258.230469 132.355469 C 259.15625 130.621094 264.417969 128.96875 268.65625 129.617188 Z M 268.65625 129.617188 " fill-opacity="1" fill-rule="nonzero"/><path fill="#ffffff" d="M 253.914062 133.488281 C 254.683594 133.152344 255.492188 133.425781 255.71875 134.097656 C 255.945312 134.769531 255.507812 135.585938 254.738281 135.921875 C 253.96875 136.253906 253.160156 135.984375 252.933594 135.3125 C 252.707031 134.640625 253.144531 133.824219 253.914062 133.488281 Z M 253.914062 133.488281 " fill-opacity="1" fill-rule="nonzero"/><path fill="#429ad2" d="M 174.675781 125.894531 C 174.675781 125.894531 177.09375 125.046875 178.683594 128.113281 C 180.277344 131.183594 178.382812 132.078125 178.519531 136.707031 C 178.652344 141.332031 179.0625 141.71875 179.832031 143.058594 C 180.601562 144.402344 180.097656 146.527344 177.851562 145.597656 C 175.605469 144.667969 173.988281 143.054688 172.199219 138.789062 C 168.410156 127.71875 174.675781 125.894531 174.675781 125.894531 Z M 174.675781 125.894531 " fill-opacity="1" fill-rule="nonzero"/><path fill="#ffffff" d="M 173.503906 128.621094 C 175.105469 126.472656 177.578125 128.167969 175.046875 130.074219 C 174.367188 130.585938 173.914062 131.148438 174.113281 132.242188 C 174.261719 133.066406 173.566406 132.964844 173.226562 132.707031 C 172.429688 132.105469 172.433594 130.054688 173.503906 128.621094 Z M 173.503906 128.621094 " fill-opacity="1" fill-rule="nonzero"/><path fill="#429ad2" d="M 120.042969 121.722656 C 120.042969 121.722656 117.761719 122.992188 118.449219 126.460938 C 119.132812 129.925781 121.058594 129.101562 123.75 132.5625 C 126.441406 136.023438 126.375 136.625 126.621094 138.195312 C 126.867188 139.769531 128.515625 140.917969 129.597656 138.492188 C 130.679688 136.070312 130.886719 133.636719 129.625 129.148438 C 125.722656 118.167969 120.042969 121.722656 120.042969 121.722656 Z M 120.042969 121.722656 " fill-opacity="1" fill-rule="nonzero"/><path fill="#ffffff" d="M 122.539062 122.789062 C 120.074219 122.480469 119.289062 125.632812 122.289062 125.042969 C 123.097656 124.886719 123.765625 124.945312 124.28125 125.890625 C 124.667969 126.605469 125.113281 125.988281 125.207031 125.535156 C 125.425781 124.480469 124.1875 122.996094 122.539062 122.789062 Z M 122.539062 122.789062 " fill-opacity="1" fill-rule="nonzero"/><path fill="#429ad2" d="M 209.027344 151.03125 C 210.214844 153.113281 216.066406 151.070312 218.179688 149.78125 C 220.289062 148.492188 221.042969 145.742188 219.859375 143.660156 C 218.671875 141.574219 215.984375 140.925781 213.875 142.214844 C 211.761719 143.503906 207.84375 148.945312 209.027344 151.03125 Z M 209.027344 151.03125 " fill-opacity="1" fill-rule="nonzero"/><path fill="#ffffff" d="M 218.132812 143.796875 C 218.207031 143.121094 217.664062 142.503906 216.917969 142.417969 C 216.167969 142.328125 215.5 142.804688 215.425781 143.480469 C 215.347656 144.152344 215.890625 144.769531 216.636719 144.859375 C 217.386719 144.945312 218.054688 144.46875 218.132812 143.796875 Z M 218.132812 143.796875 " fill-opacity="1" fill-rule="nonzero"/><path fill="#429ad2" d="M 243.5625 123.433594 C 243.5625 123.433594 245.550781 125.625 243.785156 128.976562 C 242.015625 132.328125 240.261719 130.734375 236.40625 133.3125 C 232.554688 135.894531 232.441406 136.542969 231.707031 138.089844 C 230.972656 139.632812 228.90625 140.199219 228.519531 137.261719 C 228.128906 134.320312 228.652344 131.707031 231.332031 127.507812 C 238.734375 117.550781 243.5625 123.433594 243.5625 123.433594 Z M 243.5625 123.433594 " fill-opacity="1" fill-rule="nonzero"/><path fill="#ffffff" d="M 237.804688 123.429688 C 240.121094 122.71875 240.207031 125.5625 237.585938 125.515625 C 236.878906 125.503906 236.257812 125.671875 235.597656 126.65625 C 235.101562 127.394531 234.816406 126.890625 234.820312 126.480469 C 234.832031 125.519531 236.261719 123.90625 237.804688 123.429688 Z M 237.804688 123.429688 " fill-opacity="1" fill-rule="nonzero"/><path fill="#429ad2" d="M 282.222656 146.753906 C 283 148.210938 287.050781 146.9375 288.519531 146.101562 C 289.992188 145.265625 290.554688 143.394531 289.777344 141.9375 C 289 140.480469 287.167969 139.976562 285.699219 140.8125 C 284.230469 141.652344 281.445312 145.296875 282.222656 146.753906 Z M 282.222656 146.753906 " fill-opacity="1" fill-rule="nonzero"/><path fill="#ffffff" d="M 288.601562 141.992188 C 288.664062 141.53125 288.300781 141.097656 287.792969 141.019531 C 287.28125 140.941406 286.8125 141.253906 286.746094 141.714844 C 286.683594 142.175781 287.046875 142.613281 287.558594 142.6875 C 288.066406 142.765625 288.535156 142.453125 288.601562 141.992188 Z M 288.601562 141.992188 " fill-opacity="1" fill-rule="nonzero"/><path fill="#429ad2" d="M 80.640625 153.574219 C 80.171875 154.460938 77.714844 153.6875 76.824219 153.179688 C 75.933594 152.671875 75.589844 151.539062 76.0625 150.65625 C 76.53125 149.773438 77.644531 149.46875 78.535156 149.976562 C 79.425781 150.484375 81.113281 152.695312 80.640625 153.574219 Z M 80.640625 153.574219 " fill-opacity="1" fill-rule="nonzero"/><path fill="#ffffff" d="M 76.78125 150.691406 C 76.742188 150.410156 76.960938 150.148438 77.273438 150.101562 C 77.582031 150.054688 77.867188 150.242188 77.90625 150.519531 C 77.945312 150.800781 77.722656 151.066406 77.414062 151.113281 C 77.105469 151.160156 76.820312 150.96875 76.78125 150.691406 Z M 76.78125 150.691406 " fill-opacity="1" fill-rule="nonzero"/><path fill="#429ad2" d="M 299.078125 150.675781 C 299.078125 150.675781 299.207031 151.84375 297.992188 152.355469 C 296.78125 152.871094 296.597656 151.941406 294.933594 151.675781 C 293.273438 151.414062 293.105469 151.574219 292.570312 151.832031 C 292.035156 152.089844 291.3125 151.707031 291.808594 150.746094 C 292.304688 149.785156 293 149.15625 294.652344 148.636719 C 298.882812 147.679688 299.078125 150.675781 299.078125 150.675781 Z M 299.078125 150.675781 " fill-opacity="1" fill-rule="nonzero"/><path fill="#ffffff" d="M 297.390625 149.15625 C 298.214844 149.558594 297.652344 150.414062 296.894531 149.707031 C 296.691406 149.515625 296.472656 149.402344 296.074219 149.515625 C 295.777344 149.597656 295.800781 149.375 295.882812 149.257812 C 296.085938 148.980469 296.839844 148.886719 297.390625 149.15625 Z M 297.390625 149.15625 " fill-opacity="1" fill-rule="nonzero"/><path fill="#429ad2" d="M 100.398438 128.511719 C 100.398438 128.511719 98.445312 130.132812 99.613281 133.238281 C 100.78125 136.34375 102.464844 135.203125 105.519531 137.914062 C 108.570312 140.625 108.597656 141.199219 109.066406 142.617188 C 109.535156 144.039062 111.257812 144.792969 111.910156 142.320312 C 112.558594 139.851562 112.390625 137.539062 110.523438 133.59375 C 105.199219 124.09375 100.398438 128.511719 100.398438 128.511719 Z M 100.398438 128.511719 " fill-opacity="1" fill-rule="nonzero"/><path fill="#ffffff" d="M 105.371094 129.257812 C 103.449219 128.347656 103.070312 130.773438 105.339844 131.074219 C 105.949219 131.15625 106.46875 131.382812 106.933594 132.308594 C 107.28125 133.003906 107.582031 132.609375 107.625 132.257812 C 107.71875 131.433594 106.652344 129.863281 105.371094 129.257812 Z M 105.371094 129.257812 " fill-opacity="1" fill-rule="nonzero"/><path fill="#429ad2" d="M 296.800781 129.191406 C 296.800781 129.191406 297.328125 130.65625 295.925781 131.796875 C 294.519531 132.9375 293.992188 131.800781 291.765625 132.105469 C 289.539062 132.414062 289.371094 132.6875 288.761719 133.230469 C 288.148438 133.773438 287.097656 133.5625 287.441406 132.121094 C 287.78125 130.679688 288.480469 129.59375 290.457031 128.273438 C 295.621094 125.378906 296.800781 129.191406 296.800781 129.191406 Z M 296.800781 129.191406 " fill-opacity="1" fill-rule="nonzero"/><path fill="#ffffff" d="M 294.152344 127.875 C 295.34375 128.074219 294.882812 129.402344 293.683594 128.785156 C 293.363281 128.617188 293.046875 128.550781 292.566406 128.855469 C 292.210938 129.078125 292.167969 128.78125 292.242188 128.59375 C 292.417969 128.15625 293.359375 127.738281 294.15625 127.875 Z M 294.152344 127.875 " fill-opacity="1" fill-rule="nonzero"/><path fill="#429ad2" d="M 117.96875 142.757812 C 117.96875 142.757812 116.910156 143.695312 117.605469 145.414062 C 118.300781 147.128906 119.21875 146.464844 120.949219 147.933594 C 122.6875 149.402344 122.710938 149.722656 122.988281 150.507812 C 123.273438 151.292969 124.238281 151.691406 124.5625 150.300781 C 124.886719 148.90625 124.757812 147.617188 123.664062 145.441406 C 120.5625 140.214844 117.96875 142.757812 117.96875 142.757812 Z M 117.96875 142.757812 " fill-opacity="1" fill-rule="nonzero"/><path fill="#ffffff" d="M 120.738281 143.097656 C 119.65625 142.617188 119.484375 143.980469 120.746094 144.113281 C 121.085938 144.148438 121.378906 144.265625 121.652344 144.777344 C 121.855469 145.160156 122.015625 144.9375 122.03125 144.738281 C 122.070312 144.277344 121.457031 143.417969 120.738281 143.097656 Z M 120.738281 143.097656 " fill-opacity="1" fill-rule="nonzero"/><path fill="#ffffff" d="M 85.957031 141.054688 C 82.910156 141.519531 83.738281 144.890625 87.609375 143.28125 C 88.644531 142.851562 89.664062 142.667969 91.195312 143.359375 C 92.347656 143.875 92.480469 143.152344 92.246094 142.707031 C 91.6875 141.65625 88.511719 140.660156 85.957031 141.054688 Z M 85.957031 141.054688 " fill-opacity="1" fill-rule="nonzero"/><path fill="#ffffff" d="M 94.847656 143.386719 C 94.382812 143.1875 93.898438 143.351562 93.761719 143.757812 C 93.621094 144.160156 93.886719 144.652344 94.351562 144.855469 C 94.816406 145.058594 95.300781 144.894531 95.4375 144.488281 C 95.574219 144.082031 95.3125 143.589844 94.847656 143.386719 Z M 94.847656 143.386719 " fill-opacity="1" fill-rule="nonzero"/><path fill="#429ad2" d="M 78.164062 128.703125 C 78.164062 128.703125 77.542969 130.304688 79.074219 131.621094 C 80.609375 132.933594 81.21875 131.695312 83.6875 132.121094 C 86.15625 132.542969 86.335938 132.855469 87 133.476562 C 87.667969 134.101562 88.839844 133.910156 88.496094 132.296875 C 88.152344 130.6875 87.398438 129.460938 85.238281 127.925781 C 79.570312 124.527344 78.164062 128.703125 78.164062 128.703125 Z M 78.164062 128.703125 " fill-opacity="1" fill-rule="nonzero"/><path fill="#ffffff" d="M 81.136719 127.34375 C 79.8125 127.523438 80.292969 129.011719 81.640625 128.371094 C 82 128.195312 82.355469 128.136719 82.878906 128.488281 C 83.269531 128.753906 83.324219 128.425781 83.246094 128.214844 C 83.0625 127.722656 82.023438 127.226562 81.136719 127.34375 Z M 81.136719 127.34375 " fill-opacity="1" fill-rule="nonzero"/><path fill="#429ad2" d="M 220.195312 125.957031 C 220.195312 125.957031 221.285156 126.953125 220.542969 128.71875 C 219.800781 130.480469 218.855469 129.773438 217.035156 131.253906 C 215.214844 132.738281 215.1875 133.070312 214.882812 133.878906 C 214.582031 134.6875 213.570312 135.074219 213.253906 133.628906 C 212.933594 132.179688 213.082031 130.84375 214.246094 128.613281 C 217.53125 123.265625 220.195312 125.957031 220.195312 125.957031 Z M 220.195312 125.957031 " fill-opacity="1" fill-rule="nonzero"/><path fill="#ffffff" d="M 217.316406 126.25 C 218.445312 125.773438 218.605469 127.191406 217.292969 127.300781 C 216.9375 127.332031 216.632812 127.445312 216.34375 127.972656 C 216.128906 128.363281 215.964844 128.125 215.949219 127.921875 C 215.914062 127.441406 216.5625 126.5625 217.316406 126.25 Z M 217.316406 126.25 " fill-opacity="1" fill-rule="nonzero"/><g clip-path="url(#22e260826f)"><path fill="#429ad2" d="M 294.824219 233.691406 C 294.824219 234.738281 288.902344 237.449219 283.988281 237.335938 L 283.941406 237.335938 C 279.558594 237.195312 277.867188 242 282.332031 242.625 C 284.628906 242.949219 286.175781 243.257812 287.117188 244.164062 C 289.136719 246.109375 288.441406 250.179688 286.332031 251.664062 C 279.386719 256.5625 270.628906 248.609375 265.699219 243.859375 C 261.628906 239.929688 255.402344 239.71875 254.199219 239.6875 L 254.15625 239.683594 C 249.628906 240.171875 244.480469 239.886719 240.050781 238.066406 C 233.355469 235.316406 227.039062 236.632812 220.324219 238.460938 C 210.75 241.070312 213.050781 253.257812 223.597656 252.785156 C 233.960938 252.324219 233.277344 266.390625 223.660156 267.398438 C 206.058594 269.246094 210.949219 238.804688 186.664062 242.566406 C 168.507812 245.378906 172.65625 236.757812 161.257812 238.207031 C 154.582031 239.058594 147.207031 242.179688 139.730469 249.386719 C 131.5625 257.265625 117.039062 270.449219 105.527344 262.332031 C 103.265625 260.738281 102.195312 258.320312 102.300781 255.675781 C 102.554688 249.164062 105.394531 248.292969 112.160156 247.34375 C 118.925781 246.390625 115.949219 238.730469 111.34375 240.855469 C 100.398438 245.910156 94.085938 237.945312 83.773438 234.917969 L 79.894531 233.78125 L 294.820312 233.6875 Z M 294.824219 233.691406 " fill-opacity="1" fill-rule="nonzero"/></g><path fill="#429ad2" d="M 171.433594 257.558594 C 171.433594 257.558594 170.441406 254.792969 173.082031 252.644531 C 175.726562 250.496094 176.710938 252.636719 180.902344 252.058594 C 185.089844 251.480469 185.402344 250.960938 186.550781 249.9375 C 187.699219 248.914062 189.675781 249.308594 189.035156 252.03125 C 188.394531 254.753906 187.074219 256.800781 183.363281 259.292969 C 173.65625 264.746094 171.433594 257.558594 171.433594 257.558594 Z M 171.433594 257.558594 " fill-opacity="1" fill-rule="nonzero"/><path fill="#429ad2" d="M 224.042969 241.582031 C 225.066406 239.539062 230.679688 241.117188 232.730469 242.210938 C 234.78125 243.300781 235.621094 245.855469 234.601562 247.898438 C 233.582031 249.941406 231.078125 250.71875 229.027344 249.628906 C 226.976562 248.539062 223.023438 243.625 224.042969 241.582031 Z M 224.042969 241.582031 " fill-opacity="1" fill-rule="nonzero"/><path fill="#ffffff" d="M 232.964844 247.875 C 233.066406 248.507812 232.585938 249.125 231.882812 249.253906 C 231.183594 249.382812 230.53125 248.972656 230.425781 248.339844 C 230.324219 247.703125 230.804688 247.085938 231.507812 246.957031 C 232.207031 246.832031 232.859375 247.242188 232.964844 247.871094 Z M 232.964844 247.875 " fill-opacity="1" fill-rule="nonzero"/><path fill="#ffffff" d="M 229.28125 259.050781 C 229.628906 255.542969 226.09375 255.3125 226.761719 259.015625 C 226.96875 260.160156 226.90625 261.128906 225.738281 261.964844 C 224.863281 262.589844 225.632812 263.171875 226.191406 263.261719 C 227.503906 263.46875 229.046875 261.4375 229.28125 259.050781 Z M 229.28125 259.050781 " fill-opacity="1" fill-rule="nonzero"/><path fill="#ffffff" d="M 224.265625 264.234375 C 224.359375 264.800781 223.929688 265.351562 223.300781 265.464844 C 222.675781 265.582031 222.089844 265.214844 222 264.648438 C 221.90625 264.082031 222.339844 263.53125 222.964844 263.414062 C 223.589844 263.300781 224.175781 263.667969 224.265625 264.234375 Z M 224.265625 264.234375 " fill-opacity="1" fill-rule="nonzero"/><path fill="#ffffff" d="M 176.410156 260.042969 C 174.171875 259.664062 175.042969 257.15625 177.296875 258.328125 C 177.902344 258.640625 178.496094 258.761719 179.394531 258.191406 C 180.066406 257.765625 180.144531 258.328125 180.003906 258.683594 C 179.675781 259.511719 177.902344 260.296875 176.410156 260.042969 Z M 176.410156 260.042969 " fill-opacity="1" fill-rule="nonzero"/><path fill="#ffffff" d="M 110.695312 262.753906 C 105.925781 262.019531 107.226562 256.726562 113.285156 259.253906 C 114.90625 259.929688 116.5 260.214844 118.902344 259.136719 C 120.699219 258.324219 120.914062 259.460938 120.542969 260.164062 C 119.667969 261.808594 114.699219 263.371094 110.695312 262.753906 Z M 110.695312 262.753906 " fill-opacity="1" fill-rule="nonzero"/><path fill="#ffffff" d="M 124.617188 259.089844 C 123.890625 259.40625 123.128906 259.148438 122.914062 258.511719 C 122.699219 257.875 123.113281 257.101562 123.839844 256.785156 C 124.566406 256.46875 125.328125 256.726562 125.542969 257.363281 C 125.757812 257.996094 125.34375 258.769531 124.617188 259.089844 Z M 124.617188 259.089844 " fill-opacity="1" fill-rule="nonzero"/><path fill="#429ad2" d="M 199.441406 266.28125 C 199.441406 266.28125 197.15625 267.085938 195.65625 264.179688 C 194.148438 261.273438 195.9375 260.425781 195.808594 256.039062 C 195.683594 251.65625 195.296875 251.292969 194.570312 250.023438 C 193.84375 248.75 194.320312 246.738281 196.441406 247.617188 C 198.558594 248.5 200.089844 250.027344 201.78125 254.066406 C 205.355469 264.554688 199.441406 266.28125 199.441406 266.28125 Z M 199.441406 266.28125 " fill-opacity="1" fill-rule="nonzero"/><path fill="#ffffff" d="M 200.546875 263.699219 C 199.035156 265.734375 196.699219 264.128906 199.089844 262.324219 C 199.734375 261.839844 200.160156 261.304688 199.972656 260.269531 C 199.832031 259.488281 200.488281 259.585938 200.808594 259.828125 C 201.5625 260.398438 201.558594 262.34375 200.546875 263.699219 Z M 200.546875 263.699219 " fill-opacity="1" fill-rule="nonzero"/><path fill="#429ad2" d="M 251.027344 270.234375 C 251.027344 270.234375 253.179688 269.03125 252.535156 265.746094 C 251.886719 262.464844 250.070312 263.246094 247.527344 259.964844 C 244.984375 256.6875 245.050781 256.117188 244.816406 254.628906 C 244.582031 253.140625 243.027344 252.050781 242.003906 254.347656 C 240.984375 256.644531 240.785156 258.945312 241.980469 263.199219 C 245.667969 273.605469 251.027344 270.234375 251.027344 270.234375 Z M 251.027344 270.234375 " fill-opacity="1" fill-rule="nonzero"/><path fill="#ffffff" d="M 248.671875 269.222656 C 250.996094 269.519531 251.738281 266.53125 248.90625 267.089844 C 248.144531 267.238281 247.511719 267.183594 247.027344 266.285156 C 246.660156 265.609375 246.238281 266.195312 246.152344 266.621094 C 245.945312 267.621094 247.113281 269.03125 248.671875 269.222656 Z M 248.671875 269.222656 " fill-opacity="1" fill-rule="nonzero"/><path fill="#429ad2" d="M 167.003906 242.46875 C 165.882812 240.496094 160.355469 242.433594 158.363281 243.652344 C 156.367188 244.875 155.65625 247.480469 156.773438 249.453125 C 157.894531 251.429688 160.433594 252.042969 162.425781 250.820312 C 164.417969 249.601562 168.121094 244.445312 167.003906 242.46875 Z M 167.003906 242.46875 " fill-opacity="1" fill-rule="nonzero"/><path fill="#ffffff" d="M 158.40625 249.324219 C 158.332031 249.960938 158.847656 250.546875 159.554688 250.628906 C 160.257812 250.714844 160.890625 250.261719 160.960938 249.625 C 161.035156 248.984375 160.523438 248.398438 159.816406 248.316406 C 159.109375 248.234375 158.476562 248.683594 158.40625 249.324219 Z M 158.40625 249.324219 " fill-opacity="1" fill-rule="nonzero"/><path fill="#429ad2" d="M 134.390625 268.617188 C 134.390625 268.617188 132.515625 266.539062 134.183594 263.363281 C 135.851562 260.1875 137.507812 261.699219 141.148438 259.253906 C 144.789062 256.808594 144.890625 256.195312 145.585938 254.730469 C 146.277344 253.265625 148.230469 252.730469 148.597656 255.515625 C 148.964844 258.300781 148.472656 260.777344 145.941406 264.753906 C 138.949219 274.1875 134.390625 268.617188 134.390625 268.617188 Z M 134.390625 268.617188 " fill-opacity="1" fill-rule="nonzero"/><path fill="#ffffff" d="M 139.828125 268.617188 C 137.644531 269.292969 137.5625 266.597656 140.035156 266.640625 C 140.703125 266.652344 141.292969 266.492188 141.914062 265.5625 C 142.382812 264.863281 142.652344 265.339844 142.648438 265.726562 C 142.636719 266.636719 141.285156 268.164062 139.828125 268.617188 Z M 139.828125 268.617188 " fill-opacity="1" fill-rule="nonzero"/><path fill="#429ad2" d="M 97.886719 246.519531 C 97.152344 245.140625 93.328125 246.347656 91.9375 247.140625 C 90.550781 247.933594 90.015625 249.703125 90.75 251.082031 C 91.484375 252.464844 93.214844 252.941406 94.601562 252.148438 C 95.992188 251.355469 98.621094 247.902344 97.886719 246.519531 Z M 97.886719 246.519531 " fill-opacity="1" fill-rule="nonzero"/><path fill="#ffffff" d="M 91.863281 251.03125 C 91.804688 251.46875 92.144531 251.878906 92.628906 251.953125 C 93.109375 252.027344 93.550781 251.730469 93.613281 251.296875 C 93.671875 250.859375 93.332031 250.445312 92.847656 250.371094 C 92.367188 250.296875 91.925781 250.59375 91.863281 251.03125 Z M 91.863281 251.03125 " fill-opacity="1" fill-rule="nonzero"/><path fill="#429ad2" d="M 288.234375 240.058594 C 288.679688 239.222656 290.996094 239.953125 291.839844 240.433594 C 292.679688 240.914062 293.003906 241.988281 292.558594 242.824219 C 292.113281 243.660156 291.0625 243.949219 290.222656 243.46875 C 289.382812 242.988281 287.789062 240.894531 288.234375 240.058594 Z M 288.234375 240.058594 " fill-opacity="1" fill-rule="nonzero"/><path fill="#ffffff" d="M 291.878906 242.792969 C 291.914062 243.054688 291.707031 243.308594 291.414062 243.351562 C 291.121094 243.394531 290.855469 243.214844 290.816406 242.953125 C 290.78125 242.6875 290.988281 242.4375 291.28125 242.390625 C 291.574219 242.347656 291.84375 242.527344 291.878906 242.792969 Z M 291.878906 242.792969 " fill-opacity="1" fill-rule="nonzero"/><path fill="#429ad2" d="M 81.96875 242.804688 C 81.96875 242.804688 81.851562 241.699219 82.996094 241.210938 C 84.140625 240.726562 84.3125 241.609375 85.882812 241.859375 C 87.453125 242.109375 87.609375 241.953125 88.117188 241.710938 C 88.621094 241.46875 89.304688 241.828125 88.835938 242.738281 C 88.367188 243.652344 87.710938 244.246094 86.148438 244.738281 C 82.152344 245.644531 81.96875 242.804688 81.96875 242.804688 Z M 81.96875 242.804688 " fill-opacity="1" fill-rule="nonzero"/><path fill="#ffffff" d="M 83.5625 244.246094 C 82.785156 243.863281 83.316406 243.054688 84.03125 243.722656 C 84.226562 243.902344 84.429688 244.011719 84.804688 243.90625 C 85.085938 243.824219 85.066406 244.039062 84.984375 244.148438 C 84.792969 244.414062 84.082031 244.5 83.5625 244.246094 Z M 83.5625 244.246094 " fill-opacity="1" fill-rule="nonzero"/><path fill="#429ad2" d="M 269.578125 263.804688 C 269.578125 263.804688 271.421875 262.265625 270.320312 259.324219 C 269.21875 256.382812 267.625 257.464844 264.742188 254.894531 C 261.859375 252.328125 261.835938 251.785156 261.394531 250.4375 C 260.949219 249.09375 259.324219 248.378906 258.707031 250.71875 C 258.09375 253.058594 258.253906 255.25 260.015625 258.988281 C 265.046875 267.988281 269.578125 263.804688 269.578125 263.804688 Z M 269.578125 263.804688 " fill-opacity="1" fill-rule="nonzero"/><path fill="#ffffff" d="M 264.882812 263.097656 C 266.699219 263.960938 267.054688 261.660156 264.914062 261.375 C 264.335938 261.296875 263.84375 261.085938 263.40625 260.203125 C 263.078125 259.546875 262.792969 259.921875 262.753906 260.253906 C 262.667969 261.035156 263.671875 262.519531 264.882812 263.097656 Z M 264.882812 263.097656 " fill-opacity="1" fill-rule="nonzero"/><path fill="#429ad2" d="M 84.121094 263.160156 C 84.121094 263.160156 83.621094 261.773438 84.949219 260.691406 C 86.273438 259.613281 86.769531 260.6875 88.875 260.398438 C 90.980469 260.105469 91.136719 259.847656 91.710938 259.332031 C 92.289062 258.816406 93.28125 259.015625 92.960938 260.386719 C 92.636719 261.75 91.976562 262.78125 90.113281 264.03125 C 85.234375 266.769531 84.121094 263.160156 84.121094 263.160156 Z M 84.121094 263.160156 " fill-opacity="1" fill-rule="nonzero"/><path fill="#ffffff" d="M 86.621094 264.40625 C 85.496094 264.21875 85.933594 262.957031 87.0625 263.546875 C 87.367188 263.703125 87.667969 263.765625 88.117188 263.480469 C 88.457031 263.265625 88.496094 263.546875 88.425781 263.726562 C 88.261719 264.140625 87.371094 264.535156 86.621094 264.40625 Z M 86.621094 264.40625 " fill-opacity="1" fill-rule="nonzero"/><path fill="#429ad2" d="M 252.988281 250.308594 C 252.988281 250.308594 253.988281 249.417969 253.328125 247.792969 C 252.675781 246.167969 251.808594 246.792969 250.171875 245.402344 C 248.53125 244.011719 248.511719 243.710938 248.246094 242.964844 C 247.980469 242.21875 247.066406 241.84375 246.761719 243.164062 C 246.453125 244.480469 246.578125 245.703125 247.609375 247.765625 C 250.535156 252.714844 252.988281 250.308594 252.988281 250.308594 Z M 252.988281 250.308594 " fill-opacity="1" fill-rule="nonzero"/><path fill="#ffffff" d="M 250.371094 249.984375 C 251.394531 250.441406 251.554688 249.148438 250.363281 249.023438 C 250.042969 248.988281 249.765625 248.878906 249.511719 248.390625 C 249.316406 248.03125 249.167969 248.242188 249.152344 248.429688 C 249.113281 248.867188 249.691406 249.683594 250.371094 249.984375 Z M 250.371094 249.984375 " fill-opacity="1" fill-rule="nonzero"/><path fill="#ffffff" d="M 283.214844 251.921875 C 286.09375 251.480469 285.308594 248.289062 281.652344 249.808594 C 280.675781 250.214844 279.714844 250.390625 278.265625 249.738281 C 277.183594 249.25 277.054688 249.933594 277.277344 250.355469 C 277.804688 251.347656 280.800781 252.292969 283.214844 251.921875 Z M 283.214844 251.921875 " fill-opacity="1" fill-rule="nonzero"/><path fill="#ffffff" d="M 274.820312 249.710938 C 275.257812 249.902344 275.71875 249.746094 275.847656 249.359375 C 275.976562 248.976562 275.726562 248.511719 275.289062 248.320312 C 274.851562 248.128906 274.390625 248.285156 274.261719 248.667969 C 274.132812 249.050781 274.382812 249.519531 274.820312 249.710938 Z M 274.820312 249.710938 " fill-opacity="1" fill-rule="nonzero"/><path fill="#429ad2" d="M 290.574219 263.621094 C 290.574219 263.621094 291.160156 262.105469 289.714844 260.859375 C 288.261719 259.613281 287.6875 260.785156 285.355469 260.382812 C 283.023438 259.984375 282.855469 259.6875 282.226562 259.097656 C 281.601562 258.507812 280.492188 258.691406 280.816406 260.214844 C 281.140625 261.742188 281.855469 262.90625 283.894531 264.359375 C 289.246094 267.578125 290.574219 263.621094 290.574219 263.621094 Z M 290.574219 263.621094 " fill-opacity="1" fill-rule="nonzero"/><path fill="#ffffff" d="M 287.765625 264.910156 C 289.019531 264.742188 288.5625 263.332031 287.292969 263.9375 C 286.949219 264.101562 286.617188 264.15625 286.121094 263.824219 C 285.75 263.574219 285.703125 263.886719 285.773438 264.085938 C 285.949219 264.550781 286.925781 265.023438 287.765625 264.910156 Z M 287.765625 264.910156 " fill-opacity="1" fill-rule="nonzero"/><path fill="#429ad2" d="M 156.457031 266.222656 C 156.457031 266.222656 155.425781 265.28125 156.128906 263.609375 C 156.828125 261.9375 157.722656 262.609375 159.441406 261.203125 C 161.160156 259.796875 161.1875 259.484375 161.472656 258.71875 C 161.757812 257.953125 162.710938 257.585938 163.011719 258.957031 C 163.316406 260.328125 163.171875 261.59375 162.074219 263.707031 C 158.972656 268.773438 156.457031 266.222656 156.457031 266.222656 Z M 156.457031 266.222656 " fill-opacity="1" fill-rule="nonzero"/><path fill="#ffffff" d="M 159.175781 265.949219 C 158.109375 266.394531 157.957031 265.054688 159.199219 264.949219 C 159.53125 264.921875 159.820312 264.8125 160.09375 264.316406 C 160.296875 263.941406 160.453125 264.167969 160.464844 264.363281 C 160.5 264.816406 159.886719 265.648438 159.175781 265.949219 Z M 159.175781 265.949219 " fill-opacity="1" fill-rule="nonzero"/><g fill="#073f6f" fill-opacity="1"><g transform="translate(121.120223, 121.825813)"><g><path d="M 0.421875 -23.5625 C 2.910156 -24.664062 4.742188 -23.894531 5.921875 -21.25 L 7.65625 -17.34375 C 8.84375 -14.695312 8.191406 -12.820312 5.703125 -11.71875 L 2.28125 -10.1875 L 5.6875 -2.53125 L 1.46875 -0.65625 L -7.21875 -20.15625 Z M 3.65625 -14.984375 L 1.5 -19.84375 C 1.425781 -20.007812 1.304688 -20.125 1.140625 -20.1875 C 0.972656 -20.257812 0.804688 -20.257812 0.640625 -20.1875 L -1.71875 -19.140625 L 0.984375 -13.078125 L 3.34375 -14.125 C 3.507812 -14.195312 3.617188 -14.320312 3.671875 -14.5 C 3.734375 -14.675781 3.726562 -14.835938 3.65625 -14.984375 Z M 3.65625 -14.984375 "/></g></g></g><g fill="#073f6f" fill-opacity="1"><g transform="translate(136.544484, 115.072563)"><g><path d="M 3.375 -10.21875 L 5.984375 -1.859375 L 1.578125 -0.5 L -4.78125 -20.875 L 3.046875 -23.3125 C 5.648438 -24.125 7.382812 -23.148438 8.25 -20.390625 L 8.984375 -18.015625 C 9.515625 -16.328125 9.253906 -15.070312 8.203125 -14.25 C 9.378906 -14.195312 10.175781 -13.5 10.59375 -12.15625 L 13.109375 -4.09375 L 8.703125 -2.71875 L 6.296875 -10.4375 C 6.160156 -10.863281 5.890625 -11.015625 5.484375 -10.890625 Z M 0.5625 -19.25 L 2.40625 -13.296875 L 4.75 -14.03125 C 4.90625 -14.082031 5.023438 -14.1875 5.109375 -14.34375 C 5.191406 -14.507812 5.207031 -14.675781 5.15625 -14.84375 L 3.6875 -19.546875 C 3.632812 -19.703125 3.53125 -19.828125 3.375 -19.921875 C 3.21875 -20.015625 3.0625 -20.035156 2.90625 -19.984375 Z M 0.5625 -19.25 "/></g></g></g><g fill="#073f6f" fill-opacity="1"><g transform="translate(153.146593, 109.999054)"><g><path d="M 10.84375 -19.625 L 13.25 -6.546875 C 13.78125 -3.679688 12.703125 -2 10.015625 -1.5 L 5.703125 -0.703125 C 3.023438 -0.210938 1.421875 -1.398438 0.890625 -4.265625 L -1.515625 -17.34375 C -2.035156 -20.195312 -0.957031 -21.867188 1.71875 -22.359375 L 6.03125 -23.15625 C 8.71875 -23.65625 10.320312 -22.476562 10.84375 -19.625 Z M 8.8125 -5.171875 L 6.21875 -19.328125 C 6.1875 -19.503906 6.09375 -19.644531 5.9375 -19.75 C 5.789062 -19.851562 5.632812 -19.890625 5.46875 -19.859375 L 3.421875 -19.484375 C 3.253906 -19.453125 3.117188 -19.363281 3.015625 -19.21875 C 2.921875 -19.070312 2.890625 -18.910156 2.921875 -18.734375 L 5.515625 -4.578125 C 5.554688 -4.410156 5.648438 -4.269531 5.796875 -4.15625 C 5.941406 -4.050781 6.097656 -4.015625 6.265625 -4.046875 L 8.3125 -4.421875 C 8.476562 -4.453125 8.613281 -4.539062 8.71875 -4.6875 C 8.820312 -4.84375 8.851562 -5.003906 8.8125 -5.171875 Z M 8.8125 -5.171875 "/></g></g></g><g fill="#073f6f" fill-opacity="1"><g transform="translate(171.214342, 107.002514)"><g/></g></g><g fill="#073f6f" fill-opacity="1"><g transform="translate(179.963059, 105.859321)"><g><path d="M 10.109375 -21.0625 L 14.203125 -20.953125 L 16.25 -4.84375 L 18.53125 -20.84375 L 23 -20.71875 L 18.96875 0.515625 L 13.734375 0.375 L 11.9375 -12.78125 L 9.4375 0.265625 L 4.1875 0.109375 L 1.296875 -21.3125 L 5.796875 -21.1875 L 7.203125 -5.09375 Z M 10.109375 -21.0625 "/></g></g></g><g fill="#073f6f" fill-opacity="1"><g transform="translate(205.082842, 106.948935)"><g><path d="M 13.71875 -19.609375 C 16.40625 -19.140625 17.5 -17.472656 17 -14.609375 L 14 2.453125 L 9.46875 1.65625 L 10.703125 -5.390625 L 7.40625 -5.96875 L 6.171875 1.078125 L 1.625 0.28125 L 4.625 -16.78125 C 5.125 -19.644531 6.710938 -20.84375 9.390625 -20.375 Z M 8.015625 -9.484375 L 11.3125 -8.90625 L 12.5625 -15.96875 C 12.59375 -16.144531 12.554688 -16.304688 12.453125 -16.453125 C 12.347656 -16.597656 12.207031 -16.6875 12.03125 -16.71875 L 9.984375 -17.078125 C 9.828125 -17.109375 9.675781 -17.070312 9.53125 -16.96875 C 9.382812 -16.863281 9.296875 -16.722656 9.265625 -16.546875 Z M 8.015625 -9.484375 "/></g></g></g><g fill="#073f6f" fill-opacity="1"><g transform="translate(222.871425, 110.222711)"><g><path d="M 17.46875 -11.15625 L 13.265625 -12.421875 L 13.765625 -14.03125 C 13.816406 -14.207031 13.800781 -14.375 13.71875 -14.53125 C 13.644531 -14.6875 13.523438 -14.789062 13.359375 -14.84375 L 11.625 -15.359375 C 11.445312 -15.410156 11.28125 -15.394531 11.125 -15.3125 C 10.96875 -15.226562 10.863281 -15.097656 10.8125 -14.921875 L 9.703125 -11.296875 C 9.648438 -11.117188 9.664062 -10.945312 9.75 -10.78125 C 9.832031 -10.625 9.960938 -10.519531 10.140625 -10.46875 L 12.984375 -9.609375 C 15.578125 -8.796875 16.457031 -7.015625 15.625 -4.265625 L 14.3125 0.109375 C 13.46875 2.890625 11.742188 3.890625 9.140625 3.109375 L 5.390625 1.96875 C 2.785156 1.1875 1.90625 -0.59375 2.75 -3.375 L 3.375 -5.484375 L 7.5625 -4.21875 L 6.875 -1.9375 C 6.832031 -1.769531 6.847656 -1.601562 6.921875 -1.4375 C 7.003906 -1.28125 7.132812 -1.175781 7.3125 -1.125 L 9.265625 -0.53125 C 9.421875 -0.488281 9.578125 -0.507812 9.734375 -0.59375 C 9.898438 -0.6875 10.003906 -0.816406 10.046875 -0.984375 L 11.265625 -5 C 11.316406 -5.164062 11.300781 -5.332031 11.21875 -5.5 C 11.144531 -5.664062 11.03125 -5.769531 10.875 -5.8125 L 8.015625 -6.6875 C 5.410156 -7.46875 4.523438 -9.242188 5.359375 -12.015625 L 6.59375 -16.109375 C 7.4375 -18.890625 9.160156 -19.890625 11.765625 -19.109375 L 15.28125 -18.046875 C 17.894531 -17.253906 18.78125 -15.46875 17.9375 -12.6875 Z M 17.46875 -11.15625 "/></g></g></g><g fill="#073f6f" fill-opacity="1"><g transform="translate(239.302081, 115.287895)"><g><path d="M 9.109375 -5.15625 L 5.734375 2.515625 L 1.515625 0.671875 L 10.109375 -18.859375 L 14.328125 -17.015625 L 10.734375 -8.84375 L 14.09375 -7.359375 L 17.6875 -15.53125 L 21.90625 -13.671875 L 13.3125 5.859375 L 9.09375 4 L 12.46875 -3.671875 Z M 9.109375 -5.15625 "/></g></g></g><g fill="#073f6f" fill-opacity="1"><g transform="translate(168.113813, 296.061163)"><g><path d="M 9.890625 0 L 9.125 -3.953125 L 4.8125 -3.953125 L 4.0625 0 L 0.21875 0 L 4.203125 -19.265625 L 9.828125 -19.265625 L 13.796875 0 Z M 7.0625 -15.625 L 6.890625 -15.625 L 5.375 -7.28125 L 8.546875 -7.28125 Z M 7.0625 -15.625 "/></g></g></g><g fill="#073f6f" fill-opacity="1"><g transform="translate(183.343864, 296.061163)"><g><path d="M 3.921875 0 L 3.921875 -15.765625 L 0.28125 -15.765625 L 0.28125 -19.265625 L 11.421875 -19.265625 L 11.421875 -15.765625 L 7.78125 -15.765625 L 7.78125 0 Z M 3.921875 0 "/></g></g></g><g fill="#073f6f" fill-opacity="1"><g transform="translate(196.250238, 296.061163)"><g><path d="M 1.453125 0 L 1.453125 -19.265625 L 5.3125 -19.265625 L 5.3125 -3.5 L 10.1875 -3.5 L 10.1875 0 Z M 1.453125 0 "/></g></g></g><g clip-path="url(#0ea2b8dca3)"><path fill="#429ad2" d="M 154.671875 286.304688 C 154.671875 286.585938 154.644531 286.859375 154.589844 287.136719 C 154.535156 287.410156 154.457031 287.675781 154.347656 287.933594 C 154.242188 288.191406 154.109375 288.4375 153.957031 288.667969 C 153.800781 288.902344 153.625 289.117188 153.425781 289.3125 C 153.230469 289.511719 153.015625 289.6875 152.78125 289.84375 C 152.550781 289.996094 152.304688 290.128906 152.046875 290.234375 C 151.789062 290.34375 151.523438 290.421875 151.25 290.476562 C 150.972656 290.53125 150.699219 290.558594 150.417969 290.558594 C 150.140625 290.558594 149.863281 290.53125 149.589844 290.476562 C 149.316406 290.421875 149.046875 290.34375 148.789062 290.234375 C 148.53125 290.128906 148.289062 289.996094 148.054688 289.84375 C 147.824219 289.6875 147.609375 289.511719 147.410156 289.3125 C 147.214844 289.117188 147.035156 288.902344 146.882812 288.667969 C 146.726562 288.4375 146.59375 288.191406 146.488281 287.933594 C 146.382812 287.675781 146.300781 287.410156 146.246094 287.136719 C 146.191406 286.859375 146.164062 286.585938 146.164062 286.304688 C 146.164062 286.027344 146.191406 285.75 146.246094 285.476562 C 146.300781 285.203125 146.382812 284.933594 146.488281 284.675781 C 146.59375 284.417969 146.726562 284.175781 146.882812 283.941406 C 147.035156 283.710938 147.214844 283.496094 147.410156 283.296875 C 147.609375 283.101562 147.824219 282.921875 148.054688 282.769531 C 148.289062 282.613281 148.53125 282.480469 148.789062 282.375 C 149.046875 282.269531 149.316406 282.1875 149.589844 282.132812 C 149.863281 282.078125 150.140625 282.050781 150.417969 282.050781 C 150.699219 282.050781 150.972656 282.078125 151.25 282.132812 C 151.523438 282.1875 151.789062 282.269531 152.046875 282.375 C 152.304688 282.480469 152.550781 282.613281 152.78125 282.769531 C 153.015625 282.921875 153.230469 283.101562 153.425781 283.296875 C 153.625 283.496094 153.800781 283.710938 153.957031 283.941406 C 154.109375 284.175781 154.242188 284.417969 154.347656 284.675781 C 154.457031 284.933594 154.535156 285.203125 154.589844 285.476562 C 154.644531 285.75 154.671875 286.027344 154.671875 286.304688 Z M 154.671875 286.304688 " fill-opacity="1" fill-rule="nonzero"/></g><g clip-path="url(#ce686beaf3)"><path fill="#429ad2" d="M 228.824219 286.304688 C 228.824219 286.585938 228.796875 286.859375 228.742188 287.136719 C 228.691406 287.410156 228.609375 287.675781 228.503906 287.933594 C 228.394531 288.191406 228.265625 288.4375 228.109375 288.667969 C 227.953125 288.902344 227.777344 289.117188 227.578125 289.3125 C 227.382812 289.511719 227.167969 289.6875 226.933594 289.84375 C 226.703125 289.996094 226.457031 290.128906 226.199219 290.234375 C 225.941406 290.34375 225.675781 290.421875 225.402344 290.476562 C 225.128906 290.53125 224.851562 290.558594 224.570312 290.558594 C 224.292969 290.558594 224.015625 290.53125 223.742188 290.476562 C 223.46875 290.421875 223.203125 290.34375 222.945312 290.234375 C 222.6875 290.128906 222.441406 289.996094 222.207031 289.84375 C 221.976562 289.6875 221.761719 289.511719 221.5625 289.3125 C 221.367188 289.117188 221.191406 288.902344 221.035156 288.667969 C 220.878906 288.4375 220.75 288.191406 220.640625 287.933594 C 220.535156 287.675781 220.453125 287.410156 220.398438 287.136719 C 220.34375 286.859375 220.316406 286.585938 220.316406 286.304688 C 220.316406 286.027344 220.34375 285.75 220.398438 285.476562 C 220.453125 285.203125 220.535156 284.933594 220.640625 284.675781 C 220.75 284.417969 220.878906 284.175781 221.035156 283.941406 C 221.191406 283.710938 221.367188 283.496094 221.5625 283.296875 C 221.761719 283.101562 221.976562 282.921875 222.207031 282.769531 C 222.441406 282.613281 222.6875 282.480469 222.945312 282.375 C 223.203125 282.269531 223.46875 282.1875 223.742188 282.132812 C 224.015625 282.078125 224.292969 282.050781 224.570312 282.050781 C 224.851562 282.050781 225.128906 282.078125 225.402344 282.132812 C 225.675781 282.1875 225.941406 282.269531 226.199219 282.375 C 226.457031 282.480469 226.703125 282.613281 226.933594 282.769531 C 227.167969 282.921875 227.382812 283.101562 227.578125 283.296875 C 227.777344 283.496094 227.953125 283.710938 228.109375 283.941406 C 228.265625 284.175781 228.394531 284.417969 228.503906 284.675781 C 228.609375 284.933594 228.691406 285.203125 228.742188 285.476562 C 228.796875 285.75 228.824219 286.027344 228.824219 286.304688 Z M 228.824219 286.304688 " fill-opacity="1" fill-rule="nonzero"/></g></svg>