<svg version="1.1" id="Layer_1" xmlns="http://www.w3.org/2000/svg" xmlns:xlink="http://www.w3.org/1999/xlink" x="0px" y="0px"
	 width="100%" viewBox="0 0 500 500" enable-background="new 0 0 500 500" xml:space="preserve">
<path fill="#EFF9FF" opacity="1.000000" stroke="none" 
	d="
M280.000000,501.000000 
	C186.666687,501.000000 93.833374,501.000000 1.000050,501.000000 
	C1.000033,334.333405 1.000033,167.666794 1.000017,1.000139 
	C167.666565,1.000093 334.333130,1.000093 500.999756,1.000046 
	C500.999847,167.666519 500.999847,334.333038 500.999939,500.999786 
	C427.500000,501.000000 354.000000,501.000000 280.000000,501.000000 
M46.500145,221.008972 
	C189.942123,221.008972 333.384125,221.008972 476.826080,221.008972 
	C476.885559,220.189697 476.945038,219.370422 477.004486,218.551147 
	C463.365906,215.475128 449.147003,216.311874 434.885834,213.749191 
	C434.885834,201.527023 434.826599,189.404694 434.898895,177.283157 
	C435.025146,156.120285 425.959930,139.900833 407.902802,129.244278 
	C364.174896,103.437881 320.368683,77.756042 276.285461,52.563972 
	C259.460968,42.949348 241.654343,43.284996 224.808807,52.995983 
	C181.252426,78.105042 137.842941,103.471443 94.519089,128.980148 
	C76.328758,139.690460 66.668610,155.628845 66.962868,177.160980 
	C67.128654,189.292160 66.992744,201.427475 66.992744,213.718872 
	C65.807404,213.948654 65.030190,214.170486 64.239380,214.241882 
	C53.301167,215.229263 42.355320,216.137604 31.426262,217.216431 
	C29.209854,217.435211 27.055065,218.278229 24.871868,218.833466 
	C25.008030,219.558640 25.144194,220.283813 25.280355,221.008987 
	C32.020317,221.008987 38.760281,221.008987 46.500145,221.008972 
M350.071930,406.548340 
	C368.911560,395.559418 387.750671,384.569641 406.591034,373.581940 
	C422.538757,364.281158 432.496857,350.819672 434.537506,332.237762 
	C435.182159,326.367371 434.638184,320.366394 434.638184,314.582825 
	C435.946014,314.241974 436.406372,314.051025 436.879944,314.008972 
	C448.650513,312.964203 460.429138,312.002045 472.186798,310.829315 
	C473.893219,310.659088 475.500397,309.494019 477.153473,308.789337 
	C476.938812,308.302124 476.724121,307.814911 476.509460,307.327698 
	C326.124603,307.327698 175.739731,307.327698 25.354872,307.327698 
	C25.165930,307.877502 24.976990,308.427338 24.788048,308.977142 
	C26.530031,309.623627 28.232477,310.677399 30.020365,310.850952 
	C42.223427,312.035583 54.444458,313.035095 66.993645,314.123291 
	C66.993645,318.615204 66.936737,322.587219 67.003235,326.557190 
	C67.340401,346.686981 76.131226,362.181824 93.389259,372.348267 
	C136.855026,397.953247 180.443756,423.351288 224.107483,448.617523 
	C241.841370,458.879364 260.040588,458.789886 277.800690,448.657654 
	C301.805481,434.962769 325.578979,420.862457 350.071930,406.548340 
M138.340851,286.233368 
	C139.963562,288.143890 141.655365,291.728577 143.196609,291.664978 
	C148.816803,291.433044 154.386703,289.982941 160.893570,288.829132 
	C155.889496,281.473175 151.721817,275.346710 147.580582,269.259094 
	C149.584702,267.087280 151.449539,265.405823 152.910873,263.426453 
	C161.090866,252.346741 156.132385,237.237991 142.974731,235.598984 
	C132.393051,234.280884 121.516220,235.332260 111.022156,235.332260 
	C111.022156,244.757858 111.022141,253.895065 111.022148,263.032257 
	C111.022148,272.284668 111.022156,281.537079 111.022156,290.763275 
	C116.606880,290.763275 122.044388,290.763275 127.594986,290.763275 
	C127.594986,285.276276 127.594986,280.028931 127.594986,274.782715 
	C131.450073,273.172577 133.570541,274.540527 134.807144,278.244995 
	C135.645172,280.755493 136.942780,283.112579 138.340851,286.233368 
M411.444092,248.426147 
	C411.444092,262.509155 411.444092,276.592163 411.444092,290.735229 
	C424.678406,290.735229 437.595306,290.735229 450.682220,290.735229 
	C450.971069,287.527954 451.032074,284.535126 451.555481,281.625458 
	C452.210999,277.981140 450.918152,276.940491 447.326904,277.093781 
	C441.055023,277.361603 434.763458,277.168427 428.243286,277.168427 
	C428.243286,274.814911 428.243286,272.392456 428.243286,269.593811 
	C434.243713,269.593811 439.990082,269.593811 445.740540,269.593811 
	C446.099243,266.248199 446.293365,263.252197 446.770874,260.302063 
	C447.295013,257.063965 446.320129,255.738434 442.842987,255.929184 
	C438.109344,256.188873 433.350800,255.993927 428.308228,255.993927 
	C428.483459,253.103577 428.619904,250.852707 428.761932,248.509796 
	C436.480804,248.509796 443.704803,248.509796 451.326019,248.509796 
	C451.657013,244.049713 451.971191,239.815765 452.309296,235.259735 
	C438.249664,235.259735 424.877777,235.259735 411.415924,235.259735 
	C411.415924,239.522430 411.415924,243.486328 411.444092,248.426147 
M170.668228,266.132294 
	C170.668228,274.368011 170.668228,282.603729 170.668228,290.814697 
	C183.488678,290.814697 196.276443,290.814697 209.561798,290.814697 
	C209.858063,286.280731 210.143585,281.911255 210.437515,277.413177 
	C202.234009,277.413177 194.811142,277.413177 187.094711,277.413177 
	C187.094711,274.899994 187.094711,272.484863 187.094711,269.593140 
	C193.038223,269.593140 198.758102,269.593140 204.623138,269.593140 
	C204.917313,265.999969 205.018616,262.841003 205.476181,259.734497 
	C205.901657,256.845825 204.950943,255.832642 202.028427,255.937698 
	C197.104279,256.114746 192.169159,255.986237 187.477783,255.986237 
	C187.477783,253.115921 187.477783,250.862732 187.477783,248.510773 
	C195.108063,248.510773 202.373306,248.510773 209.974228,248.510773 
	C210.351730,244.108597 210.724121,239.766129 211.103561,235.341324 
	C196.846664,235.341324 183.472000,235.341324 170.637680,235.341324 
	C170.637680,245.549103 170.637680,255.371994 170.668228,266.132294 
M382.166046,248.026489 
	C386.412140,249.248657 390.658203,250.470825 395.311890,251.810318 
	C396.538605,246.846130 397.757721,241.912613 399.115173,236.419296 
	C395.630829,235.662827 392.467712,234.747803 389.239838,234.311707 
	C364.977509,231.033752 349.667725,244.136780 351.204102,266.768951 
	C352.089935,279.818604 358.319733,288.332214 369.102539,290.937897 
	C378.278046,293.155151 387.291931,292.048553 396.103333,289.013672 
	C397.149078,288.653503 398.647247,287.462280 398.671844,286.619415 
	C398.878143,279.543121 398.789246,272.458252 398.789246,265.264771 
	C393.258606,265.677734 388.335480,266.045349 383.185913,266.429901 
	C383.185913,268.823059 383.185913,270.793304 383.185913,272.763580 
	C383.185913,274.693146 383.185913,276.622681 383.185913,278.465393 
	C373.603027,279.636749 370.531494,277.292938 369.787659,268.479340 
	C369.509094,265.178528 369.481598,261.817535 369.748932,258.517120 
	C370.464478,249.683762 372.504456,247.922211 382.166046,248.026489 
M55.877411,290.987885 
	C60.995300,290.987885 66.113190,290.987885 71.372681,290.987885 
	C71.372681,285.455872 71.372681,280.403442 71.372681,275.006165 
	C73.811401,275.006165 76.112953,275.511719 78.071907,274.907166 
	C83.071198,273.364349 88.533516,272.205688 92.690582,269.294189 
	C100.178352,264.049988 101.436523,255.779022 99.736275,247.304764 
	C98.438667,240.837265 93.955559,236.201569 87.466896,235.790558 
	C76.464706,235.093628 65.386360,235.598999 54.241119,235.598999 
	C54.241119,253.717056 54.236443,271.684570 54.271332,289.652039 
	C54.272106,290.052216 54.723354,290.451538 55.877411,290.987885 
M245.181396,256.374725 
	C243.381714,255.514648 241.328842,254.953033 239.858017,253.705307 
	C238.550140,252.595810 237.887405,250.725845 236.939926,249.191559 
	C238.695099,248.574219 240.620041,247.167999 242.170547,247.501678 
	C245.528580,248.224365 248.796234,249.630081 251.909317,251.149017 
	C254.659210,252.490799 256.066467,251.655289 256.641266,248.996628 
	C257.478271,245.125092 258.118317,241.210968 258.912384,236.938095 
	C248.517685,233.461609 238.343643,231.791275 228.489319,237.663605 
	C216.117813,245.035980 216.482697,260.588470 229.044586,267.369415 
	C231.964066,268.945343 235.202133,269.992554 237.949112,271.805176 
	C239.795914,273.023804 241.036575,275.161011 242.548401,276.887299 
	C240.195877,277.564850 237.877365,278.514679 235.477646,278.814301 
	C234.114380,278.984497 232.539688,278.260834 231.197510,277.641968 
	C227.928818,276.134766 224.740189,274.453857 220.694855,272.430573 
	C219.671814,278.189331 218.740784,283.430237 217.795547,288.751007 
	C220.597153,289.546326 222.796524,290.340759 225.064514,290.784790 
	C234.382645,292.608978 243.646454,293.284210 252.062881,287.654968 
	C263.051788,280.305145 262.569580,266.066589 251.173203,259.432800 
	C249.454056,258.432098 247.613739,257.639557 245.181396,256.374725 
M281.169250,256.596466 
	C281.169250,267.996704 281.169250,279.396973 281.169250,290.694183 
	C286.956573,290.694183 292.365356,290.694183 297.841583,290.694183 
	C297.841583,276.448608 297.841583,262.512634 297.841583,248.244476 
	C302.161011,248.470123 305.951172,248.668121 310.254486,248.892929 
	C310.565186,244.209320 310.855011,239.840363 311.161285,235.223175 
	C296.474640,235.223175 282.569855,235.223175 268.246643,235.223175 
	C268.011505,239.828018 267.789398,244.177170 267.547607,248.912125 
	C272.530548,248.672989 276.610657,248.477188 281.155762,248.259064 
	C281.155762,251.018234 281.155762,253.326431 281.169250,256.596466 
M339.008759,249.522552 
	C339.008759,244.749069 339.008759,239.975601 339.008759,235.297058 
	C333.135162,235.297058 327.559174,235.297058 322.188232,235.297058 
	C322.188232,254.023254 322.188232,272.409149 322.188232,290.707886 
	C327.965363,290.707886 333.379395,290.707886 338.495667,290.707886 
	C338.495667,283.771362 338.429382,277.135071 338.514282,270.500763 
	C338.599518,263.837891 338.835388,257.176971 339.008759,249.522552 
z"/>
<path fill="#459BD3" opacity="1.000000" stroke="none" 
	d="
M46.000195,221.008972 
	C38.760281,221.008987 32.020317,221.008987 25.280355,221.008987 
	C25.144194,220.283813 25.008030,219.558640 24.871868,218.833466 
	C27.055065,218.278229 29.209854,217.435211 31.426262,217.216431 
	C42.355320,216.137604 53.301167,215.229263 64.239380,214.241882 
	C65.030190,214.170486 65.807404,213.948654 66.992744,213.718872 
	C66.992744,201.427475 67.128654,189.292160 66.962868,177.160980 
	C66.668610,155.628845 76.328758,139.690460 94.519089,128.980148 
	C137.842941,103.471443 181.252426,78.105042 224.808807,52.995983 
	C241.654343,43.284996 259.460968,42.949348 276.285461,52.563972 
	C320.368683,77.756042 364.174896,103.437881 407.902802,129.244278 
	C425.959930,139.900833 435.025146,156.120285 434.898895,177.283157 
	C434.826599,189.404694 434.885834,201.527023 434.885834,213.749191 
	C449.147003,216.311874 463.365906,215.475128 477.004486,218.551147 
	C476.945038,219.370422 476.885559,220.189697 476.826080,221.008972 
	C333.384125,221.008972 189.942123,221.008972 46.000195,221.008972 
M416.996857,212.826813 
	C418.253906,212.826813 419.510925,212.826813 421.122253,212.826813 
	C421.122253,200.540253 421.125671,188.736862 421.121460,176.933456 
	C421.115692,160.850937 413.955322,148.830322 400.189911,140.794220 
	C357.506378,115.876053 314.742218,91.095879 272.066772,66.163872 
	C257.984253,57.936516 244.143555,57.864975 230.037628,66.103516 
	C187.215195,91.113899 144.321503,116.002228 101.465492,140.955124 
	C90.472755,147.355652 82.690994,156.758987 81.590042,169.345001 
	C80.336449,183.675766 81.300201,198.200500 81.300201,212.844635 
	C82.908676,212.844635 84.384720,212.844635 86.663200,212.818802 
	C88.790466,212.530579 90.917725,212.242355 93.946877,211.998001 
	C100.520958,211.229706 107.089325,210.406769 113.671768,209.718445 
	C116.540070,209.418518 119.855888,209.476303 120.098412,205.736359 
	C120.349792,201.859894 116.746269,202.435852 114.323967,201.811966 
	C113.682648,201.646805 112.782539,201.631119 112.466835,201.203262 
	C111.005539,199.222839 108.664322,197.151413 108.604012,195.056015 
	C108.519669,192.126007 109.765923,188.757111 113.822319,189.616776 
	C114.483948,190.630508 115.134735,192.497925 115.809135,192.506516 
	C118.387238,192.539276 120.972939,191.973953 123.555809,191.631958 
	C123.596519,191.147293 123.637222,190.662643 123.677933,190.177979 
	C120.447220,189.796616 117.216499,189.415268 114.059456,188.261856 
	C117.715652,188.487076 121.906532,187.655197 124.908607,189.173660 
	C130.011002,191.754486 134.597412,195.545959 138.972717,199.324219 
	C144.136154,203.783035 149.791153,205.892639 156.631088,206.265137 
	C164.021118,206.667618 171.363297,208.098923 178.703400,209.230270 
	C188.202972,210.694458 197.592560,210.800079 206.606216,206.958313 
	C210.781708,205.178650 213.383163,201.914261 212.822021,197.159348 
	C212.280212,192.568375 209.309128,189.704758 204.941788,188.470215 
	C203.211273,187.981033 201.329330,187.999588 199.510971,187.854095 
	C192.988022,187.332184 189.468216,184.435699 189.093643,179.239838 
	C188.712997,173.959641 192.538635,169.057587 198.130936,167.659744 
	C204.960693,165.952591 211.363449,168.797867 216.297394,176.127258 
	C219.732513,181.230164 222.670822,186.666824 226.090332,191.781052 
	C231.840759,200.381409 239.982513,203.443481 250.223633,202.398865 
	C257.914062,201.614441 266.084717,199.689362 273.074860,204.613708 
	C279.455750,209.108826 286.048676,209.023621 293.069580,207.373199 
	C303.487274,204.924301 311.714417,198.872040 319.225525,191.596252 
	C327.387024,183.690460 335.805511,176.063492 346.806488,172.286652 
	C353.719604,169.913254 360.569000,169.862854 366.681702,174.753860 
	C370.628357,177.911713 371.595001,182.116714 370.737549,186.862320 
	C369.960327,191.163864 367.144714,193.413651 362.987946,194.258636 
	C360.385315,194.787659 357.755981,195.270401 355.227997,196.059967 
	C352.174500,197.013702 350.589630,199.585846 352.231995,202.200623 
	C353.185638,203.719009 356.827454,205.177673 358.243622,204.509567 
	C366.717834,200.511703 374.756226,202.129059 382.155884,206.373596 
	C390.526276,211.174927 399.400726,211.928040 409.449127,212.038086 
	C411.673615,212.307617 413.898102,212.577148 416.996857,212.826813 
M352.991547,173.992538 
	C350.284027,175.090302 347.576538,176.188049 344.869019,177.285812 
	C350.055603,178.662125 354.646149,179.431427 359.262848,179.650803 
	C360.473389,179.708328 361.765015,178.059998 363.019409,177.195068 
	C361.962128,176.121140 361.072144,174.481537 359.807800,174.107513 
	C357.967804,173.563248 355.858093,173.930603 352.991547,173.992538 
M195.259995,180.979568 
	C195.685257,178.495148 196.110535,176.010727 196.535812,173.526291 
	C194.729996,173.900803 193.002182,174.921463 192.543060,176.349915 
	C191.998123,178.045395 192.544983,180.091797 192.618683,181.986115 
	C193.422684,181.866348 194.226700,181.746582 195.259995,180.979568 
z"/>
<path fill="#459BD3" opacity="1.000000" stroke="none" 
	d="
M349.761841,406.742218 
	C325.578979,420.862457 301.805481,434.962769 277.800690,448.657654 
	C260.040588,458.789886 241.841370,458.879364 224.107483,448.617523 
	C180.443756,423.351288 136.855026,397.953247 93.389259,372.348267 
	C76.131226,362.181824 67.340401,346.686981 67.003235,326.557190 
	C66.936737,322.587219 66.993645,318.615204 66.993645,314.123291 
	C54.444458,313.035095 42.223427,312.035583 30.020365,310.850952 
	C28.232477,310.677399 26.530031,309.623627 24.788048,308.977142 
	C24.976990,308.427338 25.165930,307.877502 25.354872,307.327698 
	C175.739731,307.327698 326.124603,307.327698 476.509460,307.327698 
	C476.724121,307.814911 476.938812,308.302124 477.153473,308.789337 
	C475.500397,309.494019 473.893219,310.659088 472.186798,310.829315 
	C460.429138,312.002045 448.650513,312.964203 436.879944,314.008972 
	C436.406372,314.051025 435.946014,314.241974 434.638184,314.582825 
	C434.638184,320.366394 435.182159,326.367371 434.537506,332.237762 
	C432.496857,350.819672 422.538757,364.281158 406.591034,373.581940 
	C387.750671,384.569641 368.911560,395.559418 349.761841,406.742218 
M415.199554,315.888916 
	C412.980927,315.956818 410.762299,316.024719 407.630066,316.171692 
	C398.696808,316.764587 389.764832,317.377289 380.829590,317.938477 
	C378.079926,318.111145 374.467560,317.379608 374.369202,321.295013 
	C374.340057,322.454681 377.860809,323.716034 379.775421,324.897461 
	C380.037903,325.059479 380.424866,325.008179 380.745728,325.089111 
	C383.980927,325.905121 385.524750,328.045654 385.166077,331.302795 
	C384.827820,334.374176 384.014954,337.261353 380.134308,336.379181 
	C381.594879,333.964722 380.287140,333.417114 378.176636,333.608673 
	C375.878693,333.817230 373.594635,334.178802 371.304504,334.473633 
	C371.276367,334.967438 371.248230,335.461243 371.220093,335.955048 
	C374.150391,336.291962 377.080688,336.628876 379.686615,337.755005 
	C375.708923,337.179108 371.299133,337.486664 367.861938,335.805634 
	C363.481903,333.663513 360.122833,329.525238 355.889160,326.966370 
	C351.750488,324.464966 347.232635,322.125092 342.574554,321.076447 
	C337.650360,319.967896 332.073883,321.456116 327.297699,320.054260 
	C317.905792,317.297638 308.475861,318.250580 299.049652,318.197388 
	C296.527069,318.183105 293.788879,319.240601 291.509369,320.471954 
	C285.453827,323.742950 285.017456,332.082825 290.853760,335.707397 
	C293.228546,337.182251 296.423523,337.668701 299.305756,337.924957 
	C305.238525,338.452423 308.615356,341.014587 309.012695,345.957886 
	C309.430420,351.155029 306.064941,355.768890 300.918152,357.054901 
	C294.391083,358.685822 288.645660,356.625458 284.431122,350.581879 
	C281.009735,345.675659 278.066406,340.437805 274.861572,335.378357 
	C268.912384,325.986328 260.364563,322.861481 249.543961,324.482086 
	C242.980820,325.465088 236.032242,326.654297 230.115692,322.570526 
	C222.703415,317.454407 215.218658,317.995178 207.298645,320.683319 
	C198.204330,323.770020 191.419022,330.050812 184.254135,336.091003 
	C177.203751,342.034760 169.479736,347.342590 161.488159,351.953400 
	C155.459274,355.431824 148.665939,355.074432 142.467819,351.154205 
	C138.099304,348.391144 137.069794,344.392578 137.696121,339.500397 
	C138.303452,334.756592 141.124420,332.550171 145.466995,331.671295 
	C147.740433,331.211212 150.336594,331.226624 152.171600,330.059631 
	C153.750443,329.055542 154.456055,326.678345 155.547775,324.908295 
	C153.509903,324.023071 150.978180,321.883331 149.515457,322.459137 
	C140.931534,325.838318 133.223755,323.846283 125.534935,319.909027 
	C123.662491,318.950226 121.539055,318.144592 119.470421,317.964447 
	C110.683266,317.199219 101.873322,316.695709 92.182549,316.018677 
	C90.098709,316.009521 88.014862,316.000366 85.218552,315.725006 
	C83.867035,315.608459 82.515526,315.491943 81.283119,315.385651 
	C78.844795,335.267975 84.467400,351.034943 101.752174,361.157043 
	C144.529510,386.207672 187.416336,411.071442 230.277802,435.978241 
	C243.969177,443.934296 257.784943,444.037567 271.495209,436.079803 
	C314.512848,411.111359 357.581421,386.228546 400.444000,360.996185 
	C417.458557,350.980072 423.634216,335.302399 420.345856,315.086823 
	C418.903809,315.391235 417.478882,315.692017 415.199554,315.888916 
M155.373489,347.222229 
	C152.767502,346.790833 150.172455,346.225220 147.548767,346.011230 
	C146.777954,345.948364 145.531082,346.710266 145.225311,347.410004 
	C144.936829,348.070190 145.327896,349.401764 145.888412,349.996826 
	C149.182648,353.494141 159.602631,351.251892 161.651550,346.270844 
	C159.672668,346.605530 157.946854,346.897400 155.373489,347.222229 
M303.878693,343.520477 
	C303.194153,346.231293 302.509583,348.942108 301.825043,351.652954 
	C302.278839,351.931091 302.732635,352.209229 303.186432,352.487366 
	C304.306854,350.868408 305.994720,349.366455 306.360596,347.591919 
	C306.632904,346.271301 305.193176,344.597656 303.878693,343.520477 
z"/>
<path fill="#0A4271" opacity="1.000000" stroke="none" 
	d="
M138.187836,285.885834 
	C136.942780,283.112579 135.645172,280.755493 134.807144,278.244995 
	C133.570541,274.540527 131.450073,273.172577 127.594986,274.782715 
	C127.594986,280.028931 127.594986,285.276276 127.594986,290.763275 
	C122.044388,290.763275 116.606880,290.763275 111.022156,290.763275 
	C111.022156,281.537079 111.022148,272.284668 111.022148,263.032257 
	C111.022141,253.895065 111.022156,244.757858 111.022156,235.332260 
	C121.516220,235.332260 132.393051,234.280884 142.974731,235.598984 
	C156.132385,237.237991 161.090866,252.346741 152.910873,263.426453 
	C151.449539,265.405823 149.584702,267.087280 147.580582,269.259094 
	C151.721817,275.346710 155.889496,281.473175 160.893570,288.829132 
	C154.386703,289.982941 148.816803,291.433044 143.196609,291.664978 
	C141.655365,291.728577 139.963562,288.143890 138.187836,285.885834 
M127.669724,260.857269 
	C130.866180,262.438538 134.641937,263.158875 136.386124,259.736298 
	C137.785553,256.990265 138.243805,252.813690 137.184616,250.000519 
	C135.785583,246.284698 131.658524,246.722534 127.474838,247.366760 
	C127.474838,251.769028 127.474838,255.908417 127.669724,260.857269 
z"/>
<path fill="#0B4271" opacity="1.000000" stroke="none" 
	d="
M411.429993,247.938202 
	C411.415924,243.486328 411.415924,239.522430 411.415924,235.259735 
	C424.877777,235.259735 438.249664,235.259735 452.309296,235.259735 
	C451.971191,239.815765 451.657013,244.049713 451.326019,248.509796 
	C443.704803,248.509796 436.480804,248.509796 428.761932,248.509796 
	C428.619904,250.852707 428.483459,253.103577 428.308228,255.993927 
	C433.350800,255.993927 438.109344,256.188873 442.842987,255.929184 
	C446.320129,255.738434 447.295013,257.063965 446.770874,260.302063 
	C446.293365,263.252197 446.099243,266.248199 445.740540,269.593811 
	C439.990082,269.593811 434.243713,269.593811 428.243286,269.593811 
	C428.243286,272.392456 428.243286,274.814911 428.243286,277.168427 
	C434.763458,277.168427 441.055023,277.361603 447.326904,277.093781 
	C450.918152,276.940491 452.210999,277.981140 451.555481,281.625458 
	C451.032074,284.535126 450.971069,287.527954 450.682220,290.735229 
	C437.595306,290.735229 424.678406,290.735229 411.444092,290.735229 
	C411.444092,276.592163 411.444092,262.509155 411.429993,247.938202 
z"/>
<path fill="#0B4271" opacity="1.000000" stroke="none" 
	d="
M170.652954,265.663574 
	C170.637680,255.371994 170.637680,245.549103 170.637680,235.341324 
	C183.472000,235.341324 196.846664,235.341324 211.103561,235.341324 
	C210.724121,239.766129 210.351730,244.108597 209.974228,248.510773 
	C202.373306,248.510773 195.108063,248.510773 187.477783,248.510773 
	C187.477783,250.862732 187.477783,253.115921 187.477783,255.986237 
	C192.169159,255.986237 197.104279,256.114746 202.028427,255.937698 
	C204.950943,255.832642 205.901657,256.845825 205.476181,259.734497 
	C205.018616,262.841003 204.917313,265.999969 204.623138,269.593140 
	C198.758102,269.593140 193.038223,269.593140 187.094711,269.593140 
	C187.094711,272.484863 187.094711,274.899994 187.094711,277.413177 
	C194.811142,277.413177 202.234009,277.413177 210.437515,277.413177 
	C210.143585,281.911255 209.858063,286.280731 209.561798,290.814697 
	C196.276443,290.814697 183.488678,290.814697 170.668228,290.814697 
	C170.668228,282.603729 170.668228,274.368011 170.652954,265.663574 
z"/>
<path fill="#0C4372" opacity="1.000000" stroke="none" 
	d="
M381.737061,248.012482 
	C372.504456,247.922211 370.464478,249.683762 369.748932,258.517120 
	C369.481598,261.817535 369.509094,265.178528 369.787659,268.479340 
	C370.531494,277.292938 373.603027,279.636749 383.185913,278.465393 
	C383.185913,276.622681 383.185913,274.693146 383.185913,272.763580 
	C383.185913,270.793304 383.185913,268.823059 383.185913,266.429901 
	C388.335480,266.045349 393.258606,265.677734 398.789246,265.264771 
	C398.789246,272.458252 398.878143,279.543121 398.671844,286.619415 
	C398.647247,287.462280 397.149078,288.653503 396.103333,289.013672 
	C387.291931,292.048553 378.278046,293.155151 369.102539,290.937897 
	C358.319733,288.332214 352.089935,279.818604 351.204102,266.768951 
	C349.667725,244.136780 364.977509,231.033752 389.239838,234.311707 
	C392.467712,234.747803 395.630829,235.662827 399.115173,236.419296 
	C397.757721,241.912613 396.538605,246.846130 395.311890,251.810318 
	C390.658203,250.470825 386.412140,249.248657 381.737061,248.012482 
z"/>
<path fill="#094170" opacity="1.000000" stroke="none" 
	d="
M55.420940,290.919556 
	C54.723354,290.451538 54.272106,290.052216 54.271332,289.652039 
	C54.236443,271.684570 54.241119,253.717056 54.241119,235.598999 
	C65.386360,235.598999 76.464706,235.093628 87.466896,235.790558 
	C93.955559,236.201569 98.438667,240.837265 99.736275,247.304764 
	C101.436523,255.779022 100.178352,264.049988 92.690582,269.294189 
	C88.533516,272.205688 83.071198,273.364349 78.071907,274.907166 
	C76.112953,275.511719 73.811401,275.006165 71.372681,275.006165 
	C71.372681,280.403442 71.372681,285.455872 71.372681,290.987885 
	C66.113190,290.987885 60.995300,290.987885 55.420940,290.919556 
M76.920753,247.124405 
	C75.197685,247.124405 73.474625,247.124405 71.449631,247.124405 
	C71.449631,252.637772 71.449631,257.526459 71.449631,262.433350 
	C75.866585,263.511017 79.610123,263.554230 81.519218,258.707153 
	C83.361404,254.029922 81.991272,249.909576 76.920753,247.124405 
z"/>
<path fill="#0B4271" opacity="1.000000" stroke="none" 
	d="
M245.505432,256.562744 
	C247.613739,257.639557 249.454056,258.432098 251.173203,259.432800 
	C262.569580,266.066589 263.051788,280.305145 252.062881,287.654968 
	C243.646454,293.284210 234.382645,292.608978 225.064514,290.784790 
	C222.796524,290.340759 220.597153,289.546326 217.795547,288.751007 
	C218.740784,283.430237 219.671814,278.189331 220.694855,272.430573 
	C224.740189,274.453857 227.928818,276.134766 231.197510,277.641968 
	C232.539688,278.260834 234.114380,278.984497 235.477646,278.814301 
	C237.877365,278.514679 240.195877,277.564850 242.548401,276.887299 
	C241.036575,275.161011 239.795914,273.023804 237.949112,271.805176 
	C235.202133,269.992554 231.964066,268.945343 229.044586,267.369415 
	C216.482697,260.588470 216.117813,245.035980 228.489319,237.663605 
	C238.343643,231.791275 248.517685,233.461609 258.912384,236.938095 
	C258.118317,241.210968 257.478271,245.125092 256.641266,248.996628 
	C256.066467,251.655289 254.659210,252.490799 251.909317,251.149017 
	C248.796234,249.630081 245.528580,248.224365 242.170547,247.501678 
	C240.620041,247.167999 238.695099,248.574219 236.939941,249.191559 
	C237.887405,250.725845 238.550140,252.595810 239.858017,253.705307 
	C241.328842,254.953033 243.381714,255.514648 245.505432,256.562744 
z"/>
<path fill="#0C4372" opacity="1.000000" stroke="none" 
	d="
M281.162506,256.115540 
	C281.155762,253.326431 281.155762,251.018234 281.155762,248.259064 
	C276.610657,248.477188 272.530548,248.672989 267.547607,248.912125 
	C267.789398,244.177170 268.011505,239.828018 268.246643,235.223175 
	C282.569855,235.223175 296.474640,235.223175 311.161285,235.223175 
	C310.855011,239.840363 310.565186,244.209320 310.254486,248.892929 
	C305.951172,248.668121 302.161011,248.470123 297.841583,248.244476 
	C297.841583,262.512634 297.841583,276.448608 297.841583,290.694183 
	C292.365356,290.694183 286.956573,290.694183 281.169250,290.694183 
	C281.169250,279.396973 281.169250,267.996704 281.162506,256.115540 
z"/>
<path fill="#0B4271" opacity="1.000000" stroke="none" 
	d="
M339.007019,250.018890 
	C338.835388,257.176971 338.599518,263.837891 338.514282,270.500763 
	C338.429382,277.135071 338.495667,283.771362 338.495667,290.707886 
	C333.379395,290.707886 327.965363,290.707886 322.188232,290.707886 
	C322.188232,272.409149 322.188232,254.023254 322.188232,235.297058 
	C327.559174,235.297058 333.135162,235.297058 339.008759,235.297058 
	C339.008759,239.975601 339.008759,244.749069 339.007019,250.018890 
z"/>
<path fill="#FCFDFE" opacity="1.000000" stroke="none" 
	d="
M408.599243,211.919540 
	C399.400726,211.928040 390.526276,211.174927 382.155884,206.373596 
	C374.756226,202.129059 366.717834,200.511703 358.243622,204.509567 
	C356.827454,205.177673 353.185638,203.719009 352.231995,202.200623 
	C350.589630,199.585846 352.174500,197.013702 355.227997,196.059967 
	C357.755981,195.270401 360.385315,194.787659 362.987946,194.258636 
	C367.144714,193.413651 369.960327,191.163864 370.737549,186.862320 
	C371.595001,182.116714 370.628357,177.911713 366.681702,174.753860 
	C360.569000,169.862854 353.719604,169.913254 346.806488,172.286652 
	C335.805511,176.063492 327.387024,183.690460 319.225525,191.596252 
	C311.714417,198.872040 303.487274,204.924301 293.069580,207.373199 
	C286.048676,209.023621 279.455750,209.108826 273.074860,204.613708 
	C266.084717,199.689362 257.914062,201.614441 250.223633,202.398865 
	C239.982513,203.443481 231.840759,200.381409 226.090332,191.781052 
	C222.670822,186.666824 219.732513,181.230164 216.297394,176.127258 
	C211.363449,168.797867 204.960693,165.952591 198.130936,167.659744 
	C192.538635,169.057587 188.712997,173.959641 189.093643,179.239838 
	C189.468216,184.435699 192.988022,187.332184 199.510971,187.854095 
	C201.329330,187.999588 203.211273,187.981033 204.941788,188.470215 
	C209.309128,189.704758 212.280212,192.568375 212.822021,197.159348 
	C213.383163,201.914261 210.781708,205.178650 206.606216,206.958313 
	C197.592560,210.800079 188.202972,210.694458 178.703400,209.230270 
	C171.363297,208.098923 164.021118,206.667618 156.631088,206.265137 
	C149.791153,205.892639 144.136154,203.783035 138.972717,199.324219 
	C134.597412,195.545959 130.011002,191.754486 124.908607,189.173660 
	C121.906532,187.655197 117.715652,188.487076 114.049362,188.641846 
	C114.039268,189.021851 114.064674,188.973251 114.064674,188.973251 
	C109.765923,188.757111 108.519669,192.126007 108.604012,195.056015 
	C108.664322,197.151413 111.005539,199.222839 112.466835,201.203262 
	C112.782539,201.631119 113.682648,201.646805 114.323967,201.811966 
	C116.746269,202.435852 120.349792,201.859894 120.098412,205.736359 
	C119.855888,209.476303 116.540070,209.418518 113.671768,209.718445 
	C107.089325,210.406769 100.520958,211.229706 93.478790,211.512482 
	C93.009262,202.197433 93.142525,193.365372 92.977493,184.538879 
	C92.663498,167.745377 100.331444,155.466019 114.474892,147.229111 
	C152.692749,124.971710 191.034332,102.926430 229.372665,80.876694 
	C232.510529,79.072006 235.872696,77.414131 239.343613,76.476204 
	C250.915054,73.349319 261.981812,74.607368 272.515717,80.718651 
	C310.914551,102.996002 349.414490,125.099167 387.806763,147.387787 
	C401.547333,155.364868 408.853943,167.257904 408.670563,183.432724 
	C408.562927,192.927383 408.617584,202.423874 408.599243,211.919540 
M163.393341,162.288757 
	C157.746735,165.081070 157.385513,169.607025 161.843674,174.003494 
	C164.837280,176.955673 167.070923,180.689697 169.560425,184.134720 
	C170.260483,185.103500 170.663040,186.287247 171.202042,187.372406 
	C171.753235,187.410904 172.304428,187.449402 172.855621,187.487900 
	C173.560333,184.986450 174.880783,182.478287 174.853622,179.984818 
	C174.773941,172.669296 171.810883,166.551056 166.531128,161.791382 
	C167.642288,161.169601 168.753464,160.547806 169.949463,159.878555 
	C168.490189,156.461685 167.152115,153.328583 165.841293,150.259308 
	C174.103195,145.388275 174.468170,144.712143 172.124588,139.084198 
	C168.520935,130.430313 167.595673,130.070251 158.825348,133.969162 
	C156.907593,134.821716 155.011002,135.721878 152.931381,136.679962 
	C156.763626,145.397461 160.422745,153.721115 163.393341,162.288757 
M270.993805,118.430908 
	C271.071533,117.306595 271.149292,116.182289 271.249603,114.731339 
	C269.403900,114.640648 267.798737,114.561775 265.817749,114.464439 
	C264.868042,120.358955 263.961365,125.986359 263.054718,131.613754 
	C262.785309,131.587204 262.515900,131.560654 262.246490,131.534103 
	C261.463043,125.864227 260.679565,120.194336 259.891144,114.488724 
	C257.857727,114.488724 256.147583,114.488724 254.588577,114.488724 
	C253.377502,120.104622 252.250854,125.329041 251.124207,130.553452 
	C250.834747,130.496552 250.545288,130.439651 250.255829,130.382751 
	C249.737823,125.024246 249.219818,119.665741 248.691666,114.202194 
	C246.638885,114.202194 244.908997,114.202194 242.765778,114.202194 
	C243.826630,121.902374 244.869598,129.275757 245.851227,136.657303 
	C246.713562,143.141815 247.025757,143.380020 253.674088,141.926056 
	C254.548767,137.624725 255.430283,133.289795 256.311798,128.954865 
	C256.552216,128.959259 256.792633,128.963669 257.033051,128.968063 
	C257.838257,133.469589 258.643433,137.971115 259.487366,142.689148 
	C261.743958,142.689148 263.847687,142.689148 266.292023,142.689148 
	C267.821228,134.897598 269.352264,127.096634 270.993805,118.430908 
M296.032623,130.608688 
	C296.135986,129.952576 296.212463,129.290894 296.346710,128.641174 
	C298.327667,119.053726 297.722046,118.155060 288.188019,116.549667 
	C287.697388,116.467056 287.070770,116.093765 286.750366,116.278046 
	C284.790436,117.405319 281.597168,118.334114 281.207916,119.917381 
	C279.284058,127.742477 278.108032,135.751450 276.642181,143.839523 
	C279.034515,144.233093 280.763794,144.517578 282.637299,144.825790 
	C283.275238,141.752045 283.839905,139.031342 284.468567,136.002350 
	C285.813690,136.112473 287.047211,136.213455 288.555695,136.336945 
	C288.104614,139.561127 287.697510,142.471008 287.250458,145.666321 
	C289.171814,146.030609 290.889648,146.356293 293.102295,146.775803 
	C294.080627,141.501541 295.009796,136.492157 296.032623,130.608688 
M332.539093,148.179947 
	C333.800903,148.796295 335.062714,149.412643 336.388184,150.060074 
	C334.861023,153.700974 333.552399,156.820801 332.125488,160.222702 
	C334.402802,161.066711 336.027252,161.668747 337.867310,162.350708 
	C341.751648,153.475906 345.442383,145.043350 349.208771,136.437988 
	C346.981964,135.553177 345.340637,134.901001 343.565887,134.195801 
	C341.847198,137.916122 340.263397,141.344467 338.591431,144.963654 
	C337.053253,144.065369 335.831879,143.352097 334.586578,142.624847 
	C336.144897,138.916168 337.536407,135.604523 339.029205,132.051819 
	C337.062744,131.194626 335.424011,130.480301 333.434784,129.613174 
	C329.572083,138.437561 325.828033,146.990921 322.021606,155.686783 
	C324.260773,156.591721 325.891602,157.250809 327.624573,157.951172 
	C329.167603,154.662064 330.574249,151.663605 332.539093,148.179947 
M206.176682,141.130264 
	C208.236069,147.497040 208.898865,147.687515 217.649796,146.009964 
	C221.935165,145.188507 223.677322,142.881622 222.912064,138.656296 
	C222.113998,134.249939 221.282654,129.849014 220.407562,125.457336 
	C218.574265,116.256943 217.708481,115.861916 208.401627,117.762924 
	C203.673203,118.728737 202.475388,121.303421 203.345535,125.634193 
	C204.325516,130.511566 205.158844,135.418411 206.176682,141.130264 
M180.186295,138.351974 
	C181.806808,143.386063 183.427322,148.420151 185.100098,153.616608 
	C186.274811,153.359970 187.226624,153.228348 188.125305,152.934311 
	C189.030304,152.638214 189.882492,152.180725 190.709824,151.815155 
	C188.002777,141.277924 188.002777,141.277924 191.125229,140.312958 
	C192.269135,143.711426 193.416626,147.120514 194.685654,150.890671 
	C196.697586,150.171616 198.462845,149.540710 200.102173,148.954819 
	C198.014633,141.561264 196.095917,134.721329 194.148972,127.889435 
	C193.231491,124.669945 191.450638,122.333450 187.726532,123.261810 
	C184.091187,124.168045 180.562500,125.502251 176.694687,126.742294 
	C177.887970,130.647186 178.945618,134.108215 180.186295,138.351974 
M313.594238,127.803726 
	C314.449738,128.166855 315.486267,128.335922 316.124756,128.931641 
	C317.675079,130.378067 319.040344,132.022858 320.993774,134.145950 
	C323.192932,128.432343 322.922852,125.328087 317.899536,123.720566 
	C311.006104,121.514572 308.914917,121.840485 307.105164,126.264473 
	C303.362885,135.412552 303.876617,136.708389 313.139740,140.894577 
	C312.748016,142.415161 312.510132,144.062027 311.862000,145.527481 
	C311.569427,146.189026 310.401154,146.925598 309.737000,146.836044 
	C309.009918,146.737991 307.761475,145.608032 307.848572,145.129578 
	C308.693359,140.489441 305.108612,141.796616 302.778900,140.903198 
	C301.567291,144.763016 300.097107,148.247589 304.892090,150.436935 
	C311.306366,153.365631 315.227081,153.237091 316.717987,149.427811 
	C318.020691,146.099380 319.675659,142.113708 318.879150,139.007065 
	C318.226410,136.461349 314.194641,134.781998 311.381775,132.491440 
	C311.774139,131.388840 312.322815,129.846863 313.594238,127.803726 
M272.710999,186.277573 
	C274.732513,180.291275 271.742615,175.702316 265.637695,175.947617 
	C258.439728,176.236862 252.996964,179.835358 249.625229,186.141541 
	C248.707230,187.858490 248.922714,190.181503 248.774033,191.179306 
	C255.809540,190.454926 261.917236,189.945389 267.981293,189.116638 
	C269.471130,188.913025 270.818604,187.667740 272.710999,186.277573 
M309.885406,170.462219 
	C306.555939,175.480804 304.033722,180.620300 306.421204,186.101700 
	C312.726959,182.255753 318.791718,179.161575 324.037354,175.027969 
	C325.862488,173.589783 326.810791,169.249817 326.111481,166.826080 
	C325.119629,163.388535 321.356750,161.992920 317.944275,163.798859 
	C315.122833,165.291977 312.848602,167.819122 309.885406,170.462219 
M239.014862,182.559265 
	C239.341019,180.101654 240.324524,177.494247 239.808197,175.228638 
	C239.293091,172.968521 237.677170,170.202042 235.767075,169.297089 
	C234.594894,168.741714 231.158539,170.785309 230.134521,172.496841 
	C226.758804,178.139008 230.832230,191.122757 236.617599,194.224091 
	C237.660599,194.783188 239.065277,194.667618 240.302948,194.863541 
	C240.359848,193.641220 240.601791,192.393082 240.435669,191.201859 
	C240.073471,188.604294 239.503571,186.035721 239.014862,182.559265 
M135.967590,181.513275 
	C140.275726,185.104202 144.583847,188.695114 148.876190,192.272873 
	C152.155853,187.692520 150.413330,179.750214 144.432480,173.835846 
	C141.665054,171.099197 138.519836,169.627594 135.179626,172.329300 
	C131.828766,175.039612 133.108643,178.186676 135.967590,181.513275 
M285.662903,203.054886 
	C287.797974,202.222672 290.213928,201.776062 292.004883,200.471451 
	C294.990173,198.296799 296.309601,195.098297 293.548248,191.941940 
	C290.985565,189.012634 287.681366,189.004044 284.838684,191.739441 
	C283.199799,193.316467 281.692871,195.189621 280.683014,197.207916 
	C279.955109,198.662704 279.427185,201.041245 280.141968,202.146118 
	C280.767822,203.113541 283.249817,202.880157 285.662903,203.054886 
M189.789505,203.944016 
	C191.902649,204.273697 194.063919,205.010696 196.109558,204.769012 
	C197.207016,204.639328 199.101120,202.095032 198.945511,201.883453 
	C196.413055,198.440155 193.896942,194.854721 190.671188,192.140335 
	C189.835327,191.436966 185.410172,193.078064 184.740997,194.580734 
	C183.892212,196.486649 184.913406,199.445953 185.704666,201.753311 
	C186.022263,202.679459 187.871780,203.080276 189.789505,203.944016 
M118.953445,177.675217 
	C116.735756,171.728958 114.094788,169.990051 108.081619,171.002884 
	C106.967064,171.190613 105.264946,172.642548 105.263771,173.512939 
	C105.262230,174.661255 106.493790,176.588669 107.507683,176.821701 
	C111.211975,177.673080 115.046028,177.959808 118.953445,177.675217 
M384.328949,178.307541 
	C387.153381,177.907272 390.060089,177.788727 392.770172,176.996994 
	C394.301758,176.549530 395.510010,174.995285 396.863922,173.939545 
	C395.147247,172.786774 393.289612,170.510452 391.741913,170.704620 
	C388.004425,171.173523 385.007324,173.429504 384.328949,178.307541 
M379.969635,190.450745 
	C379.191986,192.611374 378.414307,194.772018 377.636627,196.932648 
	C379.691956,196.823547 381.856415,197.083755 383.776276,196.516342 
	C386.466888,195.721130 388.940979,193.885925 387.400665,190.691772 
	C385.804626,187.382050 383.086853,187.546173 379.969635,190.450745 
M291.086670,175.450180 
	C292.210052,174.750214 293.695007,174.286392 294.351410,173.281418 
	C294.962769,172.345444 295.182281,170.553131 294.668915,169.655838 
	C294.179199,168.799957 292.434845,168.064270 291.391663,168.228149 
	C287.280396,168.874039 284.380829,175.850220 286.118011,179.602478 
	C287.503662,178.451569 289.011292,177.199326 291.086670,175.450180 
M160.301743,197.135071 
	C162.330795,198.893234 164.359848,200.651398 166.825760,202.788086 
	C167.376328,198.412323 167.229645,194.855972 163.427399,192.753082 
	C161.938156,191.929428 160.061371,191.806488 158.361084,191.364426 
	C158.783264,193.194901 159.205460,195.025375 160.301743,197.135071 
M396.454773,204.041016 
	C397.523285,203.356613 398.591797,202.672195 399.660309,201.987778 
	C398.468475,201.048492 397.216705,199.270523 396.097748,199.350525 
	C393.991669,199.501129 391.962250,200.723480 389.900940,201.500259 
	C390.094757,201.925552 390.288574,202.350845 390.482361,202.776123 
	C392.214020,203.120941 393.945648,203.465759 396.454773,204.041016 
z"/>
<path fill="#0E4473" opacity="1.000000" stroke="none" 
	d="
M409.024170,211.978821 
	C408.617584,202.423874 408.562927,192.927383 408.670563,183.432724 
	C408.853943,167.257904 401.547333,155.364868 387.806763,147.387787 
	C349.414490,125.099167 310.914551,102.996002 272.515717,80.718651 
	C261.981812,74.607368 250.915054,73.349319 239.343613,76.476204 
	C235.872696,77.414131 232.510529,79.072006 229.372665,80.876694 
	C191.034332,102.926430 152.692749,124.971710 114.474892,147.229111 
	C100.331444,155.466019 92.663498,167.745377 92.977493,184.538879 
	C93.142525,193.365372 93.009262,202.197433 93.027847,211.490555 
	C90.917725,212.242355 88.790466,212.530579 86.282249,212.379608 
	C85.907570,200.784332 85.878716,189.628098 85.928658,178.472214 
	C85.997231,163.154999 93.073715,151.401260 105.884392,143.858582 
	C146.984634,119.659546 188.308746,95.836937 229.711349,72.157356 
	C243.404602,64.325714 257.949249,64.070824 271.662170,71.880470 
	C313.540253,95.730469 355.312836,119.775192 396.799805,144.296753 
	C409.063660,151.545517 415.703461,163.284042 416.011566,177.881424 
	C416.257477,189.532089 416.100647,201.191269 416.122559,212.846664 
	C413.898102,212.577148 411.673615,212.307617 409.024170,211.978821 
z"/>
<path fill="#F5F8FB" opacity="1.000000" stroke="none" 
	d="
M416.559692,212.836731 
	C416.100647,201.191269 416.257477,189.532089 416.011566,177.881424 
	C415.703461,163.284042 409.063660,151.545517 396.799805,144.296753 
	C355.312836,119.775192 313.540253,95.730469 271.662170,71.880470 
	C257.949249,64.070824 243.404602,64.325714 229.711349,72.157356 
	C188.308746,95.836937 146.984634,119.659546 105.884392,143.858582 
	C93.073715,151.401260 85.997231,163.154999 85.928658,178.472214 
	C85.878716,189.628098 85.907570,200.784332 85.881027,212.392517 
	C84.384720,212.844635 82.908676,212.844635 81.300201,212.844635 
	C81.300201,198.200500 80.336449,183.675766 81.590042,169.345001 
	C82.690994,156.758987 90.472755,147.355652 101.465492,140.955124 
	C144.321503,116.002228 187.215195,91.113899 230.037628,66.103516 
	C244.143555,57.864975 257.984253,57.936516 272.066772,66.163872 
	C314.742218,91.095879 357.506378,115.876053 400.189911,140.794220 
	C413.955322,148.830322 421.115692,160.850937 421.121460,176.933456 
	C421.125671,188.736862 421.122253,200.540253 421.122253,212.826813 
	C419.510925,212.826813 418.253906,212.826813 416.559692,212.836731 
z"/>
<path fill="#F5F8FB" opacity="1.000000" stroke="none" 
	d="
M353.427490,173.950897 
	C355.858093,173.930603 357.967804,173.563248 359.807800,174.107513 
	C361.072144,174.481537 361.962128,176.121140 363.019409,177.195068 
	C361.765015,178.059998 360.473389,179.708328 359.262848,179.650803 
	C354.646149,179.431427 350.055603,178.662125 344.869019,177.285812 
	C347.576538,176.188049 350.284027,175.090302 353.427490,173.950897 
z"/>
<path fill="#EFF7FB" opacity="1.000000" stroke="none" 
	d="
M195.145355,181.303192 
	C194.226700,181.746582 193.422684,181.866348 192.618683,181.986115 
	C192.544983,180.091797 191.998123,178.045395 192.543060,176.349915 
	C193.002182,174.921463 194.729996,173.900803 196.535812,173.526291 
	C196.110535,176.010727 195.685257,178.495148 195.145355,181.303192 
z"/>
<path fill="#E2EFF7" opacity="1.000000" stroke="none" 
	d="
M114.012527,189.027878 
	C117.216499,189.415268 120.447220,189.796616 123.677933,190.177979 
	C123.637222,190.662643 123.596519,191.147293 123.555809,191.631958 
	C120.972939,191.973953 118.387238,192.539276 115.809135,192.506516 
	C115.134735,192.497925 114.483948,190.630508 113.943497,189.295013 
	C114.064674,188.973251 114.039268,189.021851 114.012527,189.027878 
z"/>
<path fill="#FCFDFE" opacity="1.000000" stroke="none" 
	d="
M93.071701,316.096619 
	C101.873322,316.695709 110.683266,317.199219 119.470421,317.964447 
	C121.539055,318.144592 123.662491,318.950226 125.534935,319.909027 
	C133.223755,323.846283 140.931534,325.838318 149.515457,322.459137 
	C150.978180,321.883331 153.509903,324.023071 155.547775,324.908295 
	C154.456055,326.678345 153.750443,329.055542 152.171600,330.059631 
	C150.336594,331.226624 147.740433,331.211212 145.466995,331.671295 
	C141.124420,332.550171 138.303452,334.756592 137.696121,339.500397 
	C137.069794,344.392578 138.099304,348.391144 142.467819,351.154205 
	C148.665939,355.074432 155.459274,355.431824 161.488159,351.953400 
	C169.479736,347.342590 177.203751,342.034760 184.254135,336.091003 
	C191.419022,330.050812 198.204330,323.770020 207.298645,320.683319 
	C215.218658,317.995178 222.703415,317.454407 230.115692,322.570526 
	C236.032242,326.654297 242.980820,325.465088 249.543961,324.482086 
	C260.364563,322.861481 268.912384,325.986328 274.861572,335.378357 
	C278.066406,340.437805 281.009735,345.675659 284.431122,350.581879 
	C288.645660,356.625458 294.391083,358.685822 300.918152,357.054901 
	C306.064941,355.768890 309.430420,351.155029 309.012695,345.957886 
	C308.615356,341.014587 305.238525,338.452423 299.305756,337.924957 
	C296.423523,337.668701 293.228546,337.182251 290.853760,335.707397 
	C285.017456,332.082825 285.453827,323.742950 291.509369,320.471954 
	C293.788879,319.240601 296.527069,318.183105 299.049652,318.197388 
	C308.475861,318.250580 317.905792,317.297638 327.297699,320.054260 
	C332.073883,321.456116 337.650360,319.967896 342.574554,321.076447 
	C347.232635,322.125092 351.750488,324.464966 355.889160,326.966370 
	C360.122833,329.525238 363.481903,333.663513 367.861938,335.805634 
	C371.299133,337.486664 375.708923,337.179108 379.822632,337.366730 
	C379.958618,336.978455 379.934143,337.026489 379.934143,337.026489 
	C384.014954,337.261353 384.827820,334.374176 385.166077,331.302795 
	C385.524750,328.045654 383.980927,325.905121 380.745728,325.089111 
	C380.424866,325.008179 380.037903,325.059479 379.775421,324.897461 
	C377.860809,323.716034 374.340057,322.454681 374.369202,321.295013 
	C374.467560,317.379608 378.079926,318.111145 380.829590,317.938477 
	C389.764832,317.377289 398.696808,316.764587 408.110931,316.586853 
	C409.317810,333.649475 402.449860,346.103027 387.978333,353.976227 
	C388.957611,350.777557 388.548157,348.617340 385.154236,348.075745 
	C382.013733,347.574585 378.856262,347.179688 375.730286,346.741364 
	C376.156189,352.495514 379.201721,354.862854 386.344269,355.323608 
	C348.126556,377.556854 310.156738,399.526459 272.158264,421.446442 
	C259.064148,429.000000 245.205719,429.985382 232.160645,422.615051 
	C192.959595,400.466888 154.147598,377.630127 115.601425,355.006958 
	C120.094223,353.579529 124.682060,352.748444 124.879066,346.104828 
	C120.495773,349.325531 113.217422,345.430328 111.709961,353.168152 
	C98.421150,344.109100 92.187424,331.870697 93.071701,316.096619 
M229.845734,375.247528 
	C228.440063,382.007080 227.034393,388.766602 225.568710,395.814789 
	C227.620895,395.814789 229.046494,395.814789 230.825455,395.814789 
	C230.656830,391.079712 233.026184,389.887787 237.330948,391.359589 
	C237.720123,392.762512 238.148392,394.306427 238.566330,395.813110 
	C240.254349,395.813110 241.703674,395.813110 243.638779,395.813110 
	C242.099884,388.420868 240.497101,381.345306 239.209961,374.212769 
	C238.736679,371.590149 238.212799,370.083557 234.998978,370.058228 
	C231.647873,370.031799 229.995422,371.052795 229.845734,375.247528 
M232.154587,337.533447 
	C229.550873,339.627869 228.380127,342.134521 230.048004,345.352264 
	C231.812363,348.756165 234.734894,349.775024 238.371780,349.250824 
	C243.962692,348.445007 248.316498,345.533020 251.306244,340.904785 
	C252.490723,339.071136 252.632294,336.563812 253.591110,333.140808 
	C249.590057,334.701965 247.128235,336.142975 244.504349,336.556976 
	C241.634735,337.009796 238.614990,336.450378 235.661392,336.466309 
	C234.705521,336.471466 233.751938,336.900421 232.154587,337.533447 
M186.188156,361.095367 
	C196.385361,357.478851 202.616165,344.774689 197.630112,339.902557 
	C193.069122,342.982269 188.926804,346.406799 184.240265,348.736603 
	C180.763107,350.465210 178.868225,352.635406 179.093246,356.248688 
	C179.321457,359.913147 182.035675,361.103485 186.188156,361.095367 
M261.031738,350.219116 
	C262.516907,352.156158 263.705200,354.569672 265.644440,355.777893 
	C266.345520,356.214722 269.477448,354.137787 270.411743,352.562439 
	C273.734497,346.959717 269.489624,334.319366 263.647919,331.638550 
	C262.832031,331.264130 261.803467,331.353119 260.873352,331.227600 
	C260.733704,332.265900 260.447906,333.308624 260.479218,334.341736 
	C260.631073,339.354614 260.867950,344.364868 261.031738,350.219116 
M322.936768,342.403625 
	C321.631653,348.731628 323.730682,354.227570 327.478394,359.092133 
	C330.165070,362.579529 334.176758,362.933502 336.530640,360.401703 
	C338.814697,357.945007 338.149261,353.892792 335.135742,351.167938 
	C333.180573,349.400055 331.059906,347.694427 329.564514,345.572479 
	C328.039062,343.407928 327.187805,340.768280 325.612610,337.427155 
	C324.393280,339.466888 323.749634,340.543640 322.936768,342.403625 
M345.966614,335.413788 
	C344.353851,341.776886 347.177643,346.852325 351.331970,351.024231 
	C353.005859,352.705231 356.173187,353.318726 358.723419,353.490936 
	C359.678864,353.555450 361.936890,350.641357 361.643768,349.685516 
	C360.901306,347.264465 359.299866,344.962921 357.583313,343.018951 
	C355.133026,340.244019 352.357819,337.731110 349.531738,335.329468 
	C348.777679,334.688660 347.332611,334.860962 345.966614,335.413788 
M257.411285,375.032318 
	C261.344238,375.430206 261.250488,373.313446 260.365967,370.401001 
	C255.603210,370.401001 251.021378,370.401001 246.181549,370.401001 
	C246.181549,371.982330 246.181549,373.355621 246.181549,374.711548 
	C247.824524,374.974976 249.212097,375.197479 250.848450,375.459839 
	C250.848450,382.354248 250.848450,388.940277 250.848450,395.676208 
	C252.679016,395.676208 254.190582,395.676208 256.509216,395.676208 
	C256.509216,388.609497 256.509216,381.877350 257.411285,375.032318 
M264.750763,373.764526 
	C264.750763,381.030579 264.750763,388.296661 264.750763,395.785278 
	C268.763611,395.785278 272.344452,395.785278 276.302551,395.785278 
	C276.153656,394.202515 276.025360,392.838989 275.887695,391.375793 
	C273.737366,391.251068 271.980408,391.149170 269.762390,391.020538 
	C269.762390,383.940674 269.762390,377.207367 269.762390,370.474060 
	C269.298859,370.151184 268.835297,369.828339 268.371765,369.505493 
	C267.165863,370.614227 265.959961,371.722931 264.750763,373.764526 
M223.337784,324.124603 
	C219.421021,322.794891 212.407898,324.080048 210.835617,327.195343 
	C209.868073,329.112427 209.725815,333.062500 210.916611,334.054260 
	C212.501007,335.373840 216.900238,335.828186 218.039368,334.657928 
	C220.613831,332.013123 221.930206,328.143707 223.337784,324.124603 
M311.080292,333.906738 
	C314.778351,331.811462 315.153839,328.812317 312.929932,325.568939 
	C310.912170,322.626282 302.519592,320.636414 300.651123,322.498566 
	C300.074738,323.072998 299.838562,324.290039 299.918030,325.170288 
	C300.305756,329.464661 305.585968,333.923187 311.080292,333.906738 
M206.900711,381.013092 
	C205.286728,377.771423 202.640518,375.702240 199.383743,377.840759 
	C197.635147,378.988922 195.995361,382.377289 196.460358,384.207611 
	C196.880463,385.861176 200.148895,387.613281 202.306778,387.822662 
	C206.153931,388.196014 207.223007,385.245178 206.900711,381.013092 
M305.330933,384.905701 
	C306.225128,381.446136 305.568115,378.130127 301.862732,377.512695 
	C299.899719,377.185608 296.607758,378.831024 295.610077,380.562347 
	C294.771484,382.017548 295.658783,385.794800 297.075012,386.927521 
	C299.532532,388.893066 302.901245,389.128998 305.330933,384.905701 
M125.475876,337.827606 
	C127.397011,335.936676 129.444885,334.149872 131.146622,332.078644 
	C131.552017,331.585266 130.800568,330.141388 130.581223,329.134705 
	C127.869438,329.924744 124.466995,329.970490 122.615990,331.688171 
	C120.152466,333.974213 121.774223,336.482849 125.475876,337.827606 
M208.978394,354.388824 
	C210.033051,355.169067 211.191330,356.722565 212.124695,356.597534 
	C216.493530,356.012054 219.251328,349.924377 217.400055,344.962128 
	C214.533798,347.911346 211.751770,350.773895 208.978394,354.388824 
M338.125641,330.574219 
	C335.666962,328.553131 333.208282,326.532043 330.523834,324.325378 
	C328.897308,328.632355 330.759857,331.700714 333.812592,334.154938 
	C334.760162,334.916718 336.422882,334.788849 337.758209,335.068298 
	C338.028046,333.770905 338.297882,332.473541 338.125641,330.574219 
M110.336960,323.847565 
	C111.478676,325.137939 112.712273,327.564362 113.742882,327.481018 
	C115.853912,327.310303 117.855988,325.792572 119.902924,324.829498 
	C119.679939,324.379272 119.456955,323.929077 119.233963,323.478882 
	C117.782661,323.355957 116.333199,323.171356 114.879517,323.127869 
	C113.493851,323.086365 112.103767,323.192017 110.336960,323.847565 
z"/>
<path fill="#0E4573" opacity="1.000000" stroke="none" 
	d="
M92.627121,316.057648 
	C92.187424,331.870697 98.421150,344.109100 111.827934,353.411560 
	C113.231339,354.238312 114.207588,354.650146 115.183830,355.062012 
	C154.147598,377.630127 192.959595,400.466888 232.160645,422.615051 
	C245.205719,429.985382 259.064148,429.000000 272.158264,421.446442 
	C310.156738,399.526459 348.126556,377.556854 386.560242,355.387756 
	C387.330414,354.895996 387.647949,354.623138 387.965454,354.350281 
	C402.449860,346.103027 409.317810,333.649475 408.567749,316.547302 
	C410.762299,316.024719 412.980927,315.956818 415.630829,316.408081 
	C417.459442,335.446899 410.404266,349.845612 394.375092,359.211517 
	C353.896881,382.863098 313.320557,406.349091 272.637695,429.646790 
	C258.409546,437.794769 243.575226,437.795227 229.337265,429.637329 
	C188.515244,406.247498 147.761307,382.734161 107.238770,358.831696 
	C101.587799,355.498444 96.832001,350.152466 92.643173,344.948334 
	C85.896461,336.566376 85.273621,326.324036 85.931023,315.991211 
	C88.014862,316.000366 90.098709,316.009521 92.627121,316.057648 
z"/>
<path fill="#F5F8FB" opacity="1.000000" stroke="none" 
	d="
M85.574783,315.858093 
	C85.273621,326.324036 85.896461,336.566376 92.643173,344.948334 
	C96.832001,350.152466 101.587799,355.498444 107.238770,358.831696 
	C147.761307,382.734161 188.515244,406.247498 229.337265,429.637329 
	C243.575226,437.795227 258.409546,437.794769 272.637695,429.646790 
	C313.320557,406.349091 353.896881,382.863098 394.375092,359.211517 
	C410.404266,349.845612 417.459442,335.446899 416.058044,316.460022 
	C417.478882,315.692017 418.903809,315.391235 420.345856,315.086823 
	C423.634216,335.302399 417.458557,350.980072 400.444000,360.996185 
	C357.581421,386.228546 314.512848,411.111359 271.495209,436.079803 
	C257.784943,444.037567 243.969177,443.934296 230.277802,435.978241 
	C187.416336,411.071442 144.529510,386.207672 101.752174,361.157043 
	C84.467400,351.034943 78.844795,335.267975 81.283119,315.385651 
	C82.515526,315.491943 83.867035,315.608459 85.574783,315.858093 
z"/>
<path fill="#EFF7FB" opacity="1.000000" stroke="none" 
	d="
M155.797272,347.205750 
	C157.946854,346.897400 159.672668,346.605530 161.651550,346.270844 
	C159.602631,351.251892 149.182648,353.494141 145.888412,349.996826 
	C145.327896,349.401764 144.936829,348.070190 145.225311,347.410004 
	C145.531082,346.710266 146.777954,345.948364 147.548767,346.011230 
	C150.172455,346.225220 152.767502,346.790833 155.797272,347.205750 
z"/>
<path fill="#E7F2F9" opacity="1.000000" stroke="none" 
	d="
M304.197327,343.300842 
	C305.193176,344.597656 306.632904,346.271301 306.360596,347.591919 
	C305.994720,349.366455 304.306854,350.868408 303.186432,352.487366 
	C302.732635,352.209229 302.278839,351.931091 301.825043,351.652954 
	C302.509583,348.942108 303.194153,346.231293 304.197327,343.300842 
z"/>
<path fill="#E7F2F9" opacity="1.000000" stroke="none" 
	d="
M379.984802,336.972107 
	C377.080688,336.628876 374.150391,336.291962 371.220093,335.955048 
	C371.248230,335.461243 371.276367,334.967438 371.304504,334.473633 
	C373.594635,334.178802 375.878693,333.817230 378.176636,333.608673 
	C380.287140,333.417114 381.594879,333.964722 380.034241,336.702820 
	C379.934143,337.026489 379.958618,336.978455 379.984802,336.972107 
z"/>
<path fill="#E8F4FB" opacity="1.000000" stroke="none" 
	d="
M127.572281,260.452545 
	C127.474838,255.908417 127.474838,251.769028 127.474838,247.366760 
	C131.658524,246.722534 135.785583,246.284698 137.184616,250.000519 
	C138.243805,252.813690 137.785553,256.990265 136.386124,259.736298 
	C134.641937,263.158875 130.866180,262.438538 127.572281,260.452545 
z"/>
<path fill="#E2EFF7" opacity="1.000000" stroke="none" 
	d="
M77.320770,247.240051 
	C81.991272,249.909576 83.361404,254.029922 81.519218,258.707153 
	C79.610123,263.554230 75.866585,263.511017 71.449631,262.433350 
	C71.449631,257.526459 71.449631,252.637772 71.449631,247.124405 
	C73.474625,247.124405 75.197685,247.124405 77.320770,247.240051 
z"/>
<path fill="#124875" opacity="1.000000" stroke="none" 
	d="
M270.938538,118.863289 
	C269.352264,127.096634 267.821228,134.897598 266.292023,142.689148 
	C263.847687,142.689148 261.743958,142.689148 259.487366,142.689148 
	C258.643433,137.971115 257.838257,133.469589 257.033051,128.968063 
	C256.792633,128.963669 256.552216,128.959259 256.311798,128.954865 
	C255.430283,133.289795 254.548767,137.624725 253.674088,141.926056 
	C247.025757,143.380020 246.713562,143.141815 245.851227,136.657303 
	C244.869598,129.275757 243.826630,121.902374 242.765778,114.202194 
	C244.908997,114.202194 246.638885,114.202194 248.691666,114.202194 
	C249.219818,119.665741 249.737823,125.024246 250.255829,130.382751 
	C250.545288,130.439651 250.834747,130.496552 251.124207,130.553452 
	C252.250854,125.329041 253.377502,120.104622 254.588577,114.488724 
	C256.147583,114.488724 257.857727,114.488724 259.891144,114.488724 
	C260.679565,120.194336 261.463043,125.864227 262.246490,131.534103 
	C262.515900,131.560654 262.785309,131.587204 263.054718,131.613754 
	C263.961365,125.986359 264.868042,120.358955 265.817749,114.464439 
	C267.798737,114.561775 269.403900,114.640648 271.249603,114.731339 
	C271.149292,116.182289 271.071533,117.306595 270.938538,118.863289 
z"/>
<path fill="#124875" opacity="1.000000" stroke="none" 
	d="
M295.985779,131.045715 
	C295.009796,136.492157 294.080627,141.501541 293.102295,146.775803 
	C290.889648,146.356293 289.171814,146.030609 287.250458,145.666321 
	C287.697510,142.471008 288.104614,139.561127 288.555695,136.336945 
	C287.047211,136.213455 285.813690,136.112473 284.468567,136.002350 
	C283.839905,139.031342 283.275238,141.752045 282.637299,144.825790 
	C280.763794,144.517578 279.034515,144.233093 276.642181,143.839523 
	C278.108032,135.751450 279.284058,127.742477 281.207916,119.917381 
	C281.597168,118.334114 284.790436,117.405319 286.750366,116.278046 
	C287.070770,116.093765 287.697388,116.467056 288.188019,116.549667 
	C297.722046,118.155060 298.327667,119.053726 296.346710,128.641174 
	C296.212463,129.290894 296.135986,129.952576 295.985779,131.045715 
M290.381317,126.932365 
	C290.642029,125.188416 290.902771,123.444458 291.160217,121.722366 
	C286.521301,120.847153 286.521301,120.847153 285.551239,130.568954 
	C288.586975,132.120422 290.211182,131.323517 290.381317,126.932365 
z"/>
<path fill="#124875" opacity="1.000000" stroke="none" 
	d="
M332.260010,148.422546 
	C330.574249,151.663605 329.167603,154.662064 327.624573,157.951172 
	C325.891602,157.250809 324.260773,156.591721 322.021606,155.686783 
	C325.828033,146.990921 329.572083,138.437561 333.434784,129.613174 
	C335.424011,130.480301 337.062744,131.194626 339.029205,132.051819 
	C337.536407,135.604523 336.144897,138.916168 334.586578,142.624847 
	C335.831879,143.352097 337.053253,144.065369 338.591431,144.963654 
	C340.263397,141.344467 341.847198,137.916122 343.565887,134.195801 
	C345.340637,134.901001 346.981964,135.553177 349.208771,136.437988 
	C345.442383,145.043350 341.751648,153.475906 337.867310,162.350708 
	C336.027252,161.668747 334.402802,161.066711 332.125488,160.222702 
	C333.552399,156.820801 334.861023,153.700974 336.388184,150.060074 
	C335.062714,149.412643 333.800903,148.796295 332.260010,148.422546 
z"/>
<path fill="#114775" opacity="1.000000" stroke="none" 
	d="
M206.116318,140.721344 
	C205.158844,135.418411 204.325516,130.511566 203.345535,125.634193 
	C202.475388,121.303421 203.673203,118.728737 208.401627,117.762924 
	C217.708481,115.861916 218.574265,116.256943 220.407562,125.457336 
	C221.282654,129.849014 222.113998,134.249939 222.912064,138.656296 
	C223.677322,142.881622 221.935165,145.188507 217.649796,146.009964 
	C208.898865,147.687515 208.236069,147.497040 206.116318,140.721344 
M216.170807,141.824448 
	C215.450623,136.048157 214.680252,130.277527 214.027420,124.493629 
	C213.572754,120.465271 211.657913,121.047379 209.118103,122.564583 
	C210.133087,128.209030 210.938889,133.611069 212.181900,138.910583 
	C212.468048,140.130554 214.254044,140.998703 216.170807,141.824448 
z"/>
<path fill="#114775" opacity="1.000000" stroke="none" 
	d="
M180.094788,137.960617 
	C178.945618,134.108215 177.887970,130.647186 176.694687,126.742294 
	C180.562500,125.502251 184.091187,124.168045 187.726532,123.261810 
	C191.450638,122.333450 193.231491,124.669945 194.148972,127.889435 
	C196.095917,134.721329 198.014633,141.561264 200.102173,148.954819 
	C198.462845,149.540710 196.697586,150.171616 194.685654,150.890671 
	C193.416626,147.120514 192.269135,143.711426 191.125229,140.312958 
	C188.002777,141.277924 188.002777,141.277924 190.709824,151.815155 
	C189.882492,152.180725 189.030304,152.638214 188.125305,152.934311 
	C187.226624,153.228348 186.274811,153.359970 185.100098,153.616608 
	C183.427322,148.420151 181.806808,143.386063 180.094788,137.960617 
M189.075424,132.192978 
	C188.261734,129.682800 188.016693,126.093552 183.848053,129.489456 
	C184.679764,131.917908 185.470474,134.226654 186.261185,136.535400 
	C186.745605,136.660370 187.230042,136.785324 187.714462,136.910294 
	C188.230759,135.578751 188.747055,134.247208 189.075424,132.192978 
z"/>
<path fill="#124875" opacity="1.000000" stroke="none" 
	d="
M313.232880,128.054321 
	C312.322815,129.846863 311.774139,131.388840 311.381775,132.491440 
	C314.194641,134.781998 318.226410,136.461349 318.879150,139.007065 
	C319.675659,142.113708 318.020691,146.099380 316.717987,149.427811 
	C315.227081,153.237091 311.306366,153.365631 304.892090,150.436935 
	C300.097107,148.247589 301.567291,144.763016 302.778900,140.903198 
	C305.108612,141.796616 308.693359,140.489441 307.848572,145.129578 
	C307.761475,145.608032 309.009918,146.737991 309.737000,146.836044 
	C310.401154,146.925598 311.569427,146.189026 311.862000,145.527481 
	C312.510132,144.062027 312.748016,142.415161 313.139740,140.894577 
	C303.876617,136.708389 303.362885,135.412552 307.105164,126.264473 
	C308.914917,121.840485 311.006104,121.514572 317.899536,123.720566 
	C322.922852,125.328087 323.192932,128.432343 320.993774,134.145950 
	C319.040344,132.022858 317.675079,130.378067 316.124756,128.931641 
	C315.486267,128.335922 314.449738,128.166855 313.232880,128.054321 
z"/>
<path fill="#114775" opacity="1.000000" stroke="none" 
	d="
M164.081863,162.044769 
	C160.422745,153.721115 156.763626,145.397461 152.931381,136.679962 
	C155.011002,135.721878 156.907593,134.821716 158.825348,133.969162 
	C167.595673,130.070251 168.520935,130.430313 172.124588,139.084198 
	C174.468170,144.712143 174.103195,145.388275 165.841293,150.259308 
	C167.152115,153.328583 168.490189,156.461685 169.949463,159.878555 
	C168.753464,160.547806 167.642288,161.169601 165.904816,161.877167 
	C164.879608,161.990234 164.480743,162.017502 164.081863,162.044769 
M164.076218,137.035858 
	C159.720169,138.024002 159.763840,139.503632 165.314850,146.852234 
	C165.867126,144.422913 166.552155,142.968658 166.410019,141.600311 
	C166.265213,140.206284 165.306580,138.896790 164.076218,137.035858 
z"/>
<path fill="#4A9ED4" opacity="1.000000" stroke="none" 
	d="
M272.471252,186.589478 
	C270.818604,187.667740 269.471130,188.913025 267.981293,189.116638 
	C261.917236,189.945389 255.809540,190.454926 248.774033,191.179306 
	C248.922714,190.181503 248.707230,187.858490 249.625229,186.141541 
	C252.996964,179.835358 258.439728,176.236862 265.637695,175.947617 
	C271.742615,175.702316 274.732513,180.291275 272.471252,186.589478 
z"/>
<path fill="#4C9FD4" opacity="1.000000" stroke="none" 
	d="
M310.108673,170.175171 
	C312.848602,167.819122 315.122833,165.291977 317.944275,163.798859 
	C321.356750,161.992920 325.119629,163.388535 326.111481,166.826080 
	C326.810791,169.249817 325.862488,173.589783 324.037354,175.027969 
	C318.791718,179.161575 312.726959,182.255753 306.421204,186.101700 
	C304.033722,180.620300 306.555939,175.480804 310.108673,170.175171 
z"/>
<path fill="#4A9ED4" opacity="1.000000" stroke="none" 
	d="
M163.737610,162.166748 
	C164.480743,162.017502 164.879608,161.990234 165.573090,162.006256 
	C171.810883,166.551056 174.773941,172.669296 174.853622,179.984818 
	C174.880783,182.478287 173.560333,184.986450 172.855621,187.487900 
	C172.304428,187.449402 171.753235,187.410904 171.202042,187.372406 
	C170.663040,186.287247 170.260483,185.103500 169.560425,184.134720 
	C167.070923,180.689697 164.837280,176.955673 161.843674,174.003494 
	C157.385513,169.607025 157.746735,165.081070 163.737610,162.166748 
z"/>
<path fill="#4A9ED4" opacity="1.000000" stroke="none" 
	d="
M239.016693,183.007278 
	C239.503571,186.035721 240.073471,188.604294 240.435669,191.201859 
	C240.601791,192.393082 240.359848,193.641220 240.302948,194.863525 
	C239.065277,194.667618 237.660599,194.783188 236.617599,194.224091 
	C230.832230,191.122757 226.758804,178.139008 230.134521,172.496841 
	C231.158539,170.785309 234.594894,168.741714 235.767075,169.297089 
	C237.677170,170.202042 239.293091,172.968521 239.808197,175.228638 
	C240.324524,177.494247 239.341019,180.101654 239.016693,183.007278 
z"/>
<path fill="#4C9FD4" opacity="1.000000" stroke="none" 
	d="
M135.678177,181.282074 
	C133.108643,178.186676 131.828766,175.039612 135.179626,172.329300 
	C138.519836,169.627594 141.665054,171.099197 144.432480,173.835846 
	C150.413330,179.750214 152.155853,187.692520 148.876190,192.272873 
	C144.583847,188.695114 140.275726,185.104202 135.678177,181.282074 
z"/>
<path fill="#4DA0D5" opacity="1.000000" stroke="none" 
	d="
M285.287384,203.116058 
	C283.249817,202.880157 280.767822,203.113541 280.141968,202.146118 
	C279.427185,201.041245 279.955109,198.662704 280.683014,197.207916 
	C281.692871,195.189621 283.199799,193.316467 284.838684,191.739441 
	C287.681366,189.004044 290.985565,189.012634 293.548248,191.941940 
	C296.309601,195.098297 294.990173,198.296799 292.004883,200.471451 
	C290.213928,201.776062 287.797974,202.222672 285.287384,203.116058 
z"/>
<path fill="#4DA0D5" opacity="1.000000" stroke="none" 
	d="
M189.406784,203.832108 
	C187.871780,203.080276 186.022263,202.679459 185.704666,201.753311 
	C184.913406,199.445953 183.892212,196.486649 184.740997,194.580734 
	C185.410172,193.078064 189.835327,191.436966 190.671188,192.140335 
	C193.896942,194.854721 196.413055,198.440155 198.945511,201.883453 
	C199.101120,202.095032 197.207016,204.639328 196.109558,204.769012 
	C194.063919,205.010696 191.902649,204.273697 189.406784,203.832108 
z"/>
<path fill="#4DA0D5" opacity="1.000000" stroke="none" 
	d="
M118.892319,178.067245 
	C115.046028,177.959808 111.211975,177.673080 107.507683,176.821701 
	C106.493790,176.588669 105.262230,174.661255 105.263771,173.512939 
	C105.264946,172.642548 106.967064,171.190613 108.081619,171.002884 
	C114.094788,169.990051 116.735756,171.728958 118.892319,178.067245 
z"/>
<path fill="#54A4D6" opacity="1.000000" stroke="none" 
	d="
M384.249329,177.942749 
	C385.007324,173.429504 388.004425,171.173523 391.741913,170.704620 
	C393.289612,170.510452 395.147247,172.786774 396.863922,173.939545 
	C395.510010,174.995285 394.301758,176.549530 392.770172,176.996994 
	C390.060089,177.788727 387.153381,177.907272 384.249329,177.942749 
z"/>
<path fill="#54A4D6" opacity="1.000000" stroke="none" 
	d="
M380.223419,190.187012 
	C383.086853,187.546173 385.804626,187.382050 387.400665,190.691772 
	C388.940979,193.885925 386.466888,195.721130 383.776276,196.516342 
	C381.856415,197.083755 379.691956,196.823547 377.636627,196.932648 
	C378.414307,194.772018 379.191986,192.611374 380.223419,190.187012 
z"/>
<path fill="#4EA0D5" opacity="1.000000" stroke="none" 
	d="
M290.802795,175.698639 
	C289.011292,177.199326 287.503662,178.451569 286.118011,179.602478 
	C284.380829,175.850220 287.280396,168.874039 291.391663,168.228149 
	C292.434845,168.064270 294.179199,168.799957 294.668915,169.655838 
	C295.182281,170.553131 294.962769,172.345444 294.351410,173.281418 
	C293.695007,174.286392 292.210052,174.750214 290.802795,175.698639 
z"/>
<path fill="#51A1D5" opacity="1.000000" stroke="none" 
	d="
M159.964691,196.995453 
	C159.205460,195.025375 158.783264,193.194901 158.361084,191.364426 
	C160.061371,191.806488 161.938156,191.929428 163.427399,192.753082 
	C167.229645,194.855972 167.376328,198.412323 166.825760,202.788086 
	C164.359848,200.651398 162.330795,198.893234 159.964691,196.995453 
z"/>
<path fill="#54A4D6" opacity="1.000000" stroke="none" 
	d="
M396.066040,203.925812 
	C393.945648,203.465759 392.214020,203.120941 390.482361,202.776123 
	C390.288574,202.350845 390.094757,201.925552 389.900940,201.500259 
	C391.962250,200.723480 393.991669,199.501129 396.097748,199.350525 
	C397.216705,199.270523 398.468475,201.048492 399.660309,201.987778 
	C398.591797,202.672195 397.523285,203.356613 396.066040,203.925812 
z"/>
<path fill="#174C78" opacity="1.000000" stroke="none" 
	d="
M229.903931,374.833832 
	C229.995422,371.052795 231.647873,370.031799 234.998978,370.058228 
	C238.212799,370.083557 238.736679,371.590149 239.209961,374.212769 
	C240.497101,381.345306 242.099884,388.420868 243.638779,395.813110 
	C241.703674,395.813110 240.254349,395.813110 238.566330,395.813110 
	C238.148392,394.306427 237.720123,392.762512 237.330948,391.359589 
	C233.026184,389.887787 230.656830,391.079712 230.825455,395.814789 
	C229.046494,395.814789 227.620895,395.814789 225.568710,395.814789 
	C227.034393,388.766602 228.440063,382.007080 229.903931,374.833832 
z"/>
<path fill="#499ED4" opacity="1.000000" stroke="none" 
	d="
M232.475952,337.334473 
	C233.751938,336.900421 234.705521,336.471466 235.661392,336.466309 
	C238.614990,336.450378 241.634735,337.009796 244.504349,336.556976 
	C247.128235,336.142975 249.590057,334.701965 253.591110,333.140808 
	C252.632294,336.563812 252.490723,339.071136 251.306244,340.904785 
	C248.316498,345.533020 243.962692,348.445007 238.371780,349.250824 
	C234.734894,349.775024 231.812363,348.756165 230.048004,345.352264 
	C228.380127,342.134521 229.550873,339.627869 232.475952,337.334473 
z"/>
<path fill="#4A9ED4" opacity="1.000000" stroke="none" 
	d="
M185.784760,361.114594 
	C182.035675,361.103485 179.321457,359.913147 179.093246,356.248688 
	C178.868225,352.635406 180.763107,350.465210 184.240265,348.736603 
	C188.926804,346.406799 193.069122,342.982269 197.630112,339.902557 
	C202.616165,344.774689 196.385361,357.478851 185.784760,361.114594 
z"/>
<path fill="#4EA0D5" opacity="1.000000" stroke="none" 
	d="
M261.053223,349.797607 
	C260.867950,344.364868 260.631073,339.354614 260.479218,334.341736 
	C260.447906,333.308624 260.733704,332.265900 260.873352,331.227600 
	C261.803467,331.353119 262.832031,331.264130 263.647919,331.638550 
	C269.489624,334.319366 273.734497,346.959717 270.411743,352.562439 
	C269.477448,354.137787 266.345520,356.214722 265.644440,355.777893 
	C263.705200,354.569672 262.516907,352.156158 261.053223,349.797607 
z"/>
<path fill="#4A9ED4" opacity="1.000000" stroke="none" 
	d="
M323.021362,342.012024 
	C323.749634,340.543640 324.393280,339.466888 325.612610,337.427155 
	C327.187805,340.768280 328.039062,343.407928 329.564514,345.572479 
	C331.059906,347.694427 333.180573,349.400055 335.135742,351.167938 
	C338.149261,353.892792 338.814697,357.945007 336.530640,360.401703 
	C334.176758,362.933502 330.165070,362.579529 327.478394,359.092133 
	C323.730682,354.227570 321.631653,348.731628 323.021362,342.012024 
z"/>
<path fill="#4DA0D5" opacity="1.000000" stroke="none" 
	d="
M346.085693,335.036865 
	C347.332611,334.860962 348.777679,334.688660 349.531738,335.329468 
	C352.357819,337.731110 355.133026,340.244019 357.583313,343.018951 
	C359.299866,344.962921 360.901306,347.264465 361.643768,349.685516 
	C361.936890,350.641357 359.678864,353.555450 358.723419,353.490936 
	C356.173187,353.318726 353.005859,352.705231 351.331970,351.024231 
	C347.177643,346.852325 344.353851,341.776886 346.085693,335.036865 
z"/>
<path fill="#124875" opacity="1.000000" stroke="none" 
	d="
M256.960266,375.088745 
	C256.509216,381.877350 256.509216,388.609497 256.509216,395.676208 
	C254.190582,395.676208 252.679016,395.676208 250.848450,395.676208 
	C250.848450,388.940277 250.848450,382.354248 250.848450,375.459839 
	C249.212097,375.197479 247.824524,374.974976 246.181549,374.711548 
	C246.181549,373.355621 246.181549,371.982330 246.181549,370.401001 
	C251.021378,370.401001 255.603210,370.401001 260.365967,370.401001 
	C261.250488,373.313446 261.344238,375.430206 256.960266,375.088745 
z"/>
<path fill="#114775" opacity="1.000000" stroke="none" 
	d="
M264.752441,373.298096 
	C265.959961,371.722931 267.165863,370.614227 268.371765,369.505493 
	C268.835297,369.828339 269.298859,370.151184 269.762390,370.474060 
	C269.762390,377.207367 269.762390,383.940674 269.762390,391.020538 
	C271.980408,391.149170 273.737366,391.251068 275.887695,391.375793 
	C276.025360,392.838989 276.153656,394.202515 276.302551,395.785278 
	C272.344452,395.785278 268.763611,395.785278 264.750763,395.785278 
	C264.750763,388.296661 264.750763,381.030579 264.752441,373.298096 
z"/>
<path fill="#4EA0D5" opacity="1.000000" stroke="none" 
	d="
M223.548065,324.448486 
	C221.930206,328.143707 220.613831,332.013123 218.039368,334.657928 
	C216.900238,335.828186 212.501007,335.373840 210.916611,334.054260 
	C209.725815,333.062500 209.868073,329.112427 210.835617,327.195343 
	C212.407898,324.080048 219.421021,322.794891 223.548065,324.448486 
z"/>
<path fill="#499ED4" opacity="1.000000" stroke="none" 
	d="
M310.676453,333.984436 
	C305.585968,333.923187 300.305756,329.464661 299.918030,325.170288 
	C299.838562,324.290039 300.074738,323.072998 300.651123,322.498566 
	C302.519592,320.636414 310.912170,322.626282 312.929932,325.568939 
	C315.153839,328.812317 314.778351,331.811462 310.676453,333.984436 
z"/>
<path fill="#4A9ED4" opacity="1.000000" stroke="none" 
	d="
M206.946655,381.414032 
	C207.223007,385.245178 206.153931,388.196014 202.306778,387.822662 
	C200.148895,387.613281 196.880463,385.861176 196.460358,384.207611 
	C195.995361,382.377289 197.635147,378.988922 199.383743,377.840759 
	C202.640518,375.702240 205.286728,377.771423 206.946655,381.414032 
z"/>
<path fill="#4C9FD4" opacity="1.000000" stroke="none" 
	d="
M305.204285,385.273865 
	C302.901245,389.128998 299.532532,388.893066 297.075012,386.927521 
	C295.658783,385.794800 294.771484,382.017548 295.610077,380.562347 
	C296.607758,378.831024 299.899719,377.185608 301.862732,377.512695 
	C305.568115,378.130127 306.225128,381.446136 305.204285,385.273865 
z"/>
<path fill="#51A1D5" opacity="1.000000" stroke="none" 
	d="
M387.978302,353.976196 
	C387.647949,354.623138 387.330414,354.895996 386.796875,355.104675 
	C379.201721,354.862854 376.156189,352.495514 375.730286,346.741364 
	C378.856262,347.179688 382.013733,347.574585 385.154236,348.075745 
	C388.548157,348.617340 388.957611,350.777557 387.978302,353.976196 
z"/>
<path fill="#60A9D8" opacity="1.000000" stroke="none" 
	d="
M115.601425,355.006958 
	C114.207588,354.650146 113.231339,354.238312 112.137115,353.583069 
	C113.217422,345.430328 120.495773,349.325531 124.879066,346.104828 
	C124.682060,352.748444 120.094223,353.579529 115.601425,355.006958 
z"/>
<path fill="#54A4D6" opacity="1.000000" stroke="none" 
	d="
M125.126373,337.773651 
	C121.774223,336.482849 120.152466,333.974213 122.615990,331.688171 
	C124.466995,329.970490 127.869438,329.924744 130.581223,329.134705 
	C130.800568,330.141388 131.552017,331.585266 131.146622,332.078644 
	C129.444885,334.149872 127.397011,335.936676 125.126373,337.773651 
z"/>
<path fill="#54A4D6" opacity="1.000000" stroke="none" 
	d="
M208.974060,354.012634 
	C211.751770,350.773895 214.533798,347.911346 217.400055,344.962128 
	C219.251328,349.924377 216.493530,356.012054 212.124695,356.597534 
	C211.191330,356.722565 210.033051,355.169067 208.974060,354.012634 
z"/>
<path fill="#54A4D6" opacity="1.000000" stroke="none" 
	d="
M338.346680,330.875183 
	C338.297882,332.473541 338.028046,333.770905 337.758209,335.068298 
	C336.422882,334.788849 334.760162,334.916718 333.812592,334.154938 
	C330.759857,331.700714 328.897308,328.632355 330.523834,324.325378 
	C333.208282,326.532043 335.666962,328.553131 338.346680,330.875183 
z"/>
<path fill="#60A9D8" opacity="1.000000" stroke="none" 
	d="
M110.526291,323.540283 
	C112.103767,323.192017 113.493851,323.086365 114.879517,323.127869 
	C116.333199,323.171356 117.782661,323.355957 119.233963,323.478882 
	C119.456955,323.929077 119.679939,324.379272 119.902924,324.829498 
	C117.855988,325.792572 115.853912,327.310303 113.742882,327.481018 
	C112.712273,327.564362 111.478676,325.137939 110.526291,323.540283 
z"/>
<path fill="#ECF1F4" opacity="1.000000" stroke="none" 
	d="
M290.291626,127.357300 
	C290.211182,131.323517 288.586975,132.120422 285.551239,130.568954 
	C286.521301,120.847153 286.521301,120.847153 291.160217,121.722366 
	C290.902771,123.444458 290.642029,125.188416 290.291626,127.357300 
z"/>
<path fill="#ECF1F4" opacity="1.000000" stroke="none" 
	d="
M215.760315,141.926605 
	C214.254044,140.998703 212.468048,140.130554 212.181900,138.910583 
	C210.938889,133.611069 210.133087,128.209030 209.118103,122.564583 
	C211.657913,121.047379 213.572754,120.465271 214.027420,124.493629 
	C214.680252,130.277527 215.450623,136.048157 215.760315,141.926605 
z"/>
<path fill="#E2EFF7" opacity="1.000000" stroke="none" 
	d="
M189.169388,132.554321 
	C188.747055,134.247208 188.230759,135.578751 187.714462,136.910294 
	C187.230042,136.785324 186.745605,136.660370 186.261185,136.535400 
	C185.470474,134.226654 184.679764,131.917908 183.848053,129.489456 
	C188.016693,126.093552 188.261734,129.682800 189.169388,132.554321 
z"/>
<path fill="#ECF1F4" opacity="1.000000" stroke="none" 
	d="
M164.390244,137.293076 
	C165.306580,138.896790 166.265213,140.206284 166.410019,141.600311 
	C166.552155,142.968658 165.867126,144.422913 165.314850,146.852234 
	C159.763840,139.503632 159.720169,138.024002 164.390244,137.293076 
z"/>
</svg>