<svg xmlns="http://www.w3.org/2000/svg" xmlns:xlink="http://www.w3.org/1999/xlink" width="500" zoomAndPan="magnify" viewBox="0 0 375 374.999991" height="500" preserveAspectRatio="xMidYMid meet" version="1.0"><defs><clipPath id="4d837206bf"><path d="M 75 75 L 300 75 L 300 300 L 75 300 Z M 75 75 " clip-rule="nonzero"/></clipPath></defs><g clip-path="url(#4d837206bf)"><path fill="#000000" d="M 74.976562 299.972656 L 74.976562 131.226562 L 145.289062 131.226562 L 145.289062 299.972656 Z M 89.039062 145.289062 L 89.039062 159.351562 L 103.101562 159.351562 L 103.101562 145.289062 Z M 117.164062 145.289062 L 117.164062 159.351562 L 131.226562 159.351562 L 131.226562 145.289062 Z M 117.164062 173.414062 L 117.164062 187.476562 L 131.226562 187.476562 L 131.226562 173.414062 Z M 89.039062 173.414062 L 89.039062 187.476562 L 103.101562 187.476562 L 103.101562 173.414062 Z M 117.164062 215.601562 L 131.226562 215.601562 L 131.226562 201.539062 L 117.164062 201.539062 Z M 89.039062 201.539062 L 89.039062 215.601562 L 103.101562 215.601562 L 103.101562 201.539062 Z M 89.039062 229.664062 L 89.039062 243.726562 L 103.101562 243.726562 L 103.101562 229.664062 Z M 117.164062 243.726562 L 131.226562 243.726562 L 131.226562 229.664062 L 117.164062 229.664062 Z M 117.164062 257.789062 L 117.164062 271.851562 L 131.226562 271.851562 L 131.226562 257.789062 Z M 89.039062 257.789062 L 89.039062 271.851562 L 103.101562 271.851562 L 103.101562 257.789062 Z M 263.410156 74.976562 L 266.222656 74.976562 L 266.222656 94.664062 L 269.035156 97.476562 L 285.910156 108.726562 L 299.972656 128.414062 L 299.972656 299.972656 L 229.664062 299.972656 L 229.664062 128.414062 L 243.726562 108.726562 L 260.597656 97.476562 L 263.410156 94.664062 Z M 243.726562 131.226562 L 257.785156 131.226562 L 257.785156 117.164062 Z M 271.847656 117.164062 L 271.847656 131.226562 L 285.910156 131.226562 Z M 243.726562 145.289062 L 243.726562 159.351562 L 257.785156 159.351562 L 257.785156 145.289062 Z M 271.847656 145.289062 L 271.847656 159.351562 L 285.910156 159.351562 L 285.910156 145.289062 Z M 271.847656 173.414062 L 271.847656 187.476562 L 285.910156 187.476562 L 285.910156 173.414062 Z M 243.726562 173.414062 L 243.726562 187.476562 L 257.785156 187.476562 L 257.785156 173.414062 Z M 271.847656 215.601562 L 285.910156 215.601562 L 285.910156 201.539062 L 271.847656 201.539062 Z M 243.347656 201.539062 L 243.347656 215.601562 L 257.410156 215.601562 L 257.410156 201.539062 Z M 243.726562 229.664062 L 243.726562 243.726562 L 257.785156 243.726562 L 257.785156 229.664062 Z M 271.847656 243.726562 L 285.910156 243.726562 L 285.910156 229.664062 L 271.847656 229.664062 Z M 271.847656 257.789062 L 271.847656 271.851562 L 285.910156 271.851562 L 285.910156 257.789062 Z M 243.726562 257.789062 L 243.726562 271.851562 L 257.785156 271.851562 L 257.785156 257.789062 Z M 150.914062 299.972656 L 150.914062 74.976562 L 224.039062 103.101562 L 224.039062 299.972656 Z M 159.351562 117.164062 L 159.351562 131.226562 L 173.414062 131.226562 L 173.414062 117.164062 Z M 201.539062 117.164062 L 201.539062 131.226562 L 215.601562 131.226562 L 215.601562 117.164062 Z M 159.351562 145.289062 L 159.351562 159.351562 L 173.414062 159.351562 L 173.414062 145.289062 Z M 201.539062 145.289062 L 201.539062 159.351562 L 215.601562 159.351562 L 215.601562 145.289062 Z M 201.539062 173.414062 L 201.539062 187.476562 L 215.601562 187.476562 L 215.601562 173.414062 Z M 159.351562 173.414062 L 159.351562 187.476562 L 173.414062 187.476562 L 173.414062 173.414062 Z M 201.539062 215.601562 L 215.601562 215.601562 L 215.601562 201.539062 L 201.539062 201.539062 Z M 159.351562 201.539062 L 159.351562 215.601562 L 173.414062 215.601562 L 173.414062 201.539062 Z M 159.351562 229.664062 L 159.351562 243.726562 L 173.414062 243.726562 L 173.414062 229.664062 Z M 201.539062 243.726562 L 215.601562 243.726562 L 215.601562 229.664062 L 201.539062 229.664062 Z M 201.539062 257.789062 L 201.539062 271.851562 L 215.601562 271.851562 L 215.601562 257.789062 Z M 159.351562 257.789062 L 159.351562 271.851562 L 173.414062 271.851562 L 173.414062 257.789062 Z M 193.101562 117.164062 L 181.851562 117.164062 L 181.851562 131.226562 L 193.101562 131.226562 Z M 181.851562 145.289062 L 181.851562 159.351562 L 193.101562 159.351562 L 193.101562 145.289062 Z M 181.851562 173.414062 L 181.851562 187.476562 L 193.101562 187.476562 L 193.101562 173.414062 Z M 181.851562 201.539062 L 181.851562 215.601562 L 193.101562 215.601562 L 193.101562 201.539062 Z M 181.851562 243.726562 L 193.101562 243.726562 L 193.101562 229.664062 L 181.851562 229.664062 Z M 181.851562 271.851562 L 193.101562 271.851562 L 193.101562 257.789062 L 181.851562 257.789062 Z M 181.851562 271.851562 " fill-opacity="1" fill-rule="nonzero"/></g></svg>