<svg xmlns="http://www.w3.org/2000/svg" xmlns:xlink="http://www.w3.org/1999/xlink" width="500" zoomAndPan="magnify" viewBox="0 0 375 374.999991" height="500" preserveAspectRatio="xMidYMid meet" version="1.0"><defs><clipPath id="93fee6f4eb"><path d="M 46.8125 112.679688 L 328 112.679688 L 328 240 L 46.8125 240 Z M 46.8125 112.679688 " clip-rule="nonzero"/></clipPath><clipPath id="5ff9ed2bc5"><path d="M 179 197 L 245 197 L 245 262.679688 L 179 262.679688 Z M 179 197 " clip-rule="nonzero"/></clipPath><clipPath id="38a804e0e3"><path d="M 283 200 L 320 200 L 320 262.679688 L 283 262.679688 Z M 283 200 " clip-rule="nonzero"/></clipPath><clipPath id="d48f7f14dd"><path d="M 50 227 L 114 227 L 114 262.679688 L 50 262.679688 Z M 50 227 " clip-rule="nonzero"/></clipPath></defs><g clip-path="url(#93fee6f4eb)"><path fill="#000000" d="M 236.410156 208.214844 C 236.34375 208.222656 236.207031 207.167969 235.902344 205.132812 C 235.636719 203.351562 235.101562 199.8125 234.117188 196.234375 C 233.71875 194.785156 233.199219 193.140625 232.464844 191.546875 C 231.945312 190.417969 231.289062 189.222656 230.382812 188.25 C 229.710938 187.539062 228.859375 186.90625 227.894531 186.683594 C 226.945312 186.445312 225.878906 186.613281 224.863281 187.027344 C 223.472656 187.597656 222.234375 188.570312 221 189.726562 C 219.3125 191.316406 217.816406 193.164062 216.300781 195.25 C 215.121094 196.867188 214.203125 198.707031 213.34375 200.71875 C 212.4375 202.855469 211.671875 205.050781 210.875 207.425781 C 209.445312 211.679688 207.875 216.863281 205.546875 221.441406 C 204.914062 222.667969 204.476562 224.015625 204.015625 225.441406 C 203.546875 226.882812 203.078125 228.429688 202.476562 229.929688 C 201.964844 231.226562 201.304688 232.589844 200.25 233.738281 C 199.789062 234.234375 199.230469 234.671875 198.574219 234.988281 C 197.898438 235.304688 197.164062 235.460938 196.433594 235.457031 C 159.613281 235.507812 112.570312 235.496094 58.664062 235.421875 C 57.863281 235.417969 57.078125 235.226562 56.375 234.878906 C 55.632812 234.507812 55.003906 234.007812 54.484375 233.457031 C 53.203125 232.097656 52.355469 230.496094 51.703125 228.914062 C 50.871094 226.9375 50.265625 224.890625 49.769531 222.839844 C 49.21875 220.578125 48.796875 218.292969 48.441406 215.988281 C 47.796875 211.789062 47.382812 207.542969 47.109375 203.25 C 47.019531 201.855469 46.945312 200.457031 46.890625 199.054688 C 46.875 198.664062 46.863281 198.269531 46.851562 197.875 C 46.847656 197.769531 46.847656 197.664062 46.84375 197.558594 C 46.886719 197.398438 46.933594 197.234375 46.976562 197.070312 C 46.976562 197.070312 46.976562 197.046875 46.976562 197.050781 L 46.976562 197.042969 C 48.371094 195.234375 49.773438 193.417969 51.183594 191.59375 C 51.171875 191.628906 51.160156 191.664062 51.148438 191.703125 C 51.113281 191.804688 51.082031 191.90625 51.046875 192.011719 C 51.042969 191.96875 51.039062 191.929688 51.035156 191.890625 C 51.023438 191.738281 51.011719 191.589844 51 191.441406 C 50.960938 190.898438 50.929688 190.359375 50.90625 189.820312 C 50.824219 188.085938 50.8125 186.339844 50.878906 184.585938 C 50.957031 182.53125 51.148438 180.429688 51.59375 178.34375 C 51.796875 177.375 52.070312 176.394531 52.453125 175.425781 C 52.78125 174.582031 53.226562 173.726562 53.839844 172.9375 C 55.300781 171.105469 57.066406 169.59375 58.929688 168.300781 C 61.035156 166.832031 63.277344 165.601562 65.574219 164.519531 C 70.457031 162.210938 75.585938 160.5 80.8125 159.0625 C 85.164062 157.863281 89.589844 156.867188 94.070312 156.035156 C 95.445312 155.777344 96.828125 155.539062 98.21875 155.320312 C 98.597656 155.261719 98.980469 155.203125 99.363281 155.148438 C 99.464844 155.132812 99.566406 155.117188 99.667969 155.105469 C 99.539062 155.195312 99.410156 155.285156 99.285156 155.375 C 99.28125 155.375 99.304688 155.371094 99.300781 155.371094 L 99.308594 155.371094 C 102.929688 150.109375 106.707031 144.808594 110.835938 139.761719 C 114.273438 135.632812 117.992188 131.625 122.1875 128.082031 C 125.855469 124.984375 129.921875 122.277344 134.335938 120.210938 C 138.699219 118.171875 143.339844 116.773438 148.074219 115.882812 C 148.246094 115.851562 148.414062 115.820312 148.585938 115.789062 C 156.0625 114.4375 163.605469 113.777344 171.03125 113.34375 C 180.085938 112.816406 189.101562 112.671875 197.980469 112.722656 C 217.351562 112.832031 236.34375 113.835938 254.6875 115.398438 C 262.824219 116.089844 270.804688 117.203125 278.585938 118.980469 C 285.890625 120.636719 293.074219 122.789062 299.46875 126.613281 C 300.757812 127.390625 301.910156 128.332031 302.941406 129.351562 C 304.101562 130.496094 305.128906 131.742188 306.054688 133.027344 C 308.222656 136.03125 309.933594 139.289062 311.402344 142.550781 C 313.097656 146.308594 314.5 150.152344 315.730469 153.972656 C 317.03125 158.011719 318.148438 162.070312 319.140625 166.089844 C 320.914062 173.296875 322.316406 180.472656 323.453125 187.496094 C 323.824219 189.777344 324.164062 192.046875 324.472656 194.308594 C 324.507812 195.035156 324.542969 195.753906 324.578125 196.476562 C 324.949219 196.683594 325.316406 196.894531 325.683594 197.105469 C 326.382812 197.640625 327.199219 198.40625 327.683594 199.582031 C 328.050781 200.816406 327.894531 201.941406 327.6875 202.804688 C 327.550781 203.355469 327.417969 203.910156 327.285156 204.460938 C 326.53125 207.234375 325.785156 209.980469 325.050781 212.699219 C 324.152344 213.816406 323.488281 215.140625 322.984375 216.527344 C 322.488281 217.925781 322.175781 219.414062 321.925781 220.921875 C 321.023438 224.175781 320.546875 227.199219 319.449219 230.515625 C 318.964844 226.742188 318.785156 222.941406 318.574219 219.359375 C 318.6875 215.625 318.785156 212.078125 318.496094 208.550781 C 318.367188 206.972656 318.167969 205.4375 317.808594 203.960938 C 317.484375 202.65625 317.0625 201.410156 316.429688 200.316406 C 315.855469 199.332031 315.121094 198.460938 314.230469 197.851562 C 313.277344 197.183594 312.109375 196.800781 310.921875 196.640625 C 309.679688 196.46875 308.363281 196.808594 307.261719 197.460938 C 305.953125 198.230469 304.863281 199.417969 303.910156 200.691406 C 302.753906 202.246094 301.816406 203.96875 300.996094 205.710938 C 300.074219 207.671875 299.296875 209.6875 298.613281 211.6875 C 297.300781 215.535156 296.300781 219.410156 295.492188 223.125 C 295.214844 224.410156 294.960938 225.675781 294.730469 226.933594 C 294.667969 227.292969 294.605469 227.648438 294.542969 228.003906 C 294.527344 228.097656 294.511719 228.191406 294.496094 228.285156 C 294.496094 228.289062 294.492188 228.292969 294.492188 228.300781 C 294.492188 228.296875 294.488281 228.320312 294.488281 228.320312 L 294.484375 228.324219 C 294.34375 231.949219 294.21875 235.421875 294.105469 238.746094 C 261.339844 239.652344 242.824219 239.910156 242.816406 239.652344 C 242.8125 239.398438 261.292969 238.75 293.414062 238.074219 C 293.300781 234.910156 293.175781 231.625 293.035156 228.210938 C 293.035156 228.210938 293.035156 228.207031 293.035156 228.207031 C 293.035156 228.207031 293.039062 228.1875 293.039062 228.1875 C 293.042969 228.144531 293.046875 228.101562 293.054688 228.058594 C 293.066406 227.960938 293.082031 227.863281 293.097656 227.765625 C 293.15625 227.402344 293.214844 227.039062 293.277344 226.675781 C 293.496094 225.398438 293.738281 224.109375 294.007812 222.808594 C 294.785156 219.042969 295.761719 215.101562 297.066406 211.164062 C 297.742188 209.117188 298.519531 207.039062 299.460938 204.996094 C 300.292969 203.179688 301.269531 201.351562 302.503906 199.652344 C 303.511719 198.257812 304.753906 196.902344 306.34375 195.925781 C 307.742188 195.070312 309.4375 194.632812 311.148438 194.828125 C 312.574219 195 314.015625 195.472656 315.273438 196.320312 C 316.429688 197.113281 317.359375 198.179688 318.050781 199.371094 C 318.804688 200.671875 319.308594 202.078125 319.660156 203.5 C 320.058594 205.109375 320.289062 206.746094 320.433594 208.386719 C 320.753906 212.050781 320.679688 215.675781 320.585938 219.417969 C 320.179688 222.949219 319.679688 226.664062 319.472656 230.246094 C 319.828125 227.113281 319.644531 224.03125 319.816406 220.582031 C 320.058594 219.007812 320.394531 217.394531 320.941406 215.808594 C 321.421875 214.371094 322.132812 212.960938 323.140625 211.730469 C 323.792969 209.148438 324.453125 206.542969 325.121094 203.914062 C 325.246094 203.386719 325.371094 202.863281 325.496094 202.335938 C 325.605469 201.480469 325.78125 200.761719 325.5625 200.339844 C 325.46875 199.890625 324.890625 199.464844 324.269531 198.878906 C 323.769531 198.429688 323.269531 197.980469 322.765625 197.53125 C 322.582031 196.5625 322.394531 195.59375 322.207031 194.617188 C 321.894531 192.378906 321.546875 190.132812 321.167969 187.871094 C 320.011719 180.90625 318.589844 173.800781 316.804688 166.675781 C 315.808594 162.699219 314.691406 158.699219 313.398438 154.734375 C 312.175781 150.976562 310.789062 147.222656 309.132812 143.585938 C 307.691406 140.421875 306.054688 137.316406 304.015625 134.519531 C 303.144531 133.324219 302.203125 132.1875 301.164062 131.167969 C 300.238281 130.265625 299.242188 129.449219 298.160156 128.808594 C 292.136719 125.199219 285.207031 123.171875 278.007812 121.53125 C 270.371094 119.804688 262.511719 118.726562 254.46875 118.054688 C 236.179688 116.535156 217.253906 115.558594 197.964844 115.464844 C 189.125 115.425781 180.167969 115.570312 171.195312 116.097656 C 163.820312 116.535156 156.386719 117.183594 149.074219 118.507812 C 148.910156 118.539062 148.75 118.570312 148.585938 118.597656 C 144.042969 119.457031 139.621094 120.785156 135.5 122.714844 C 131.332031 124.660156 127.46875 127.234375 123.957031 130.191406 C 119.929688 133.585938 116.316406 137.480469 112.9375 141.523438 C 108.566406 146.667969 104.519531 152.09375 100.605469 157.511719 C 100.605469 157.511719 100.597656 157.511719 100.597656 157.511719 C 100.597656 157.511719 100.578125 157.515625 100.578125 157.515625 C 100.402344 157.613281 100.222656 157.710938 100.042969 157.808594 C 99.949219 157.820312 99.851562 157.835938 99.753906 157.847656 C 99.382812 157.902344 99.011719 157.957031 98.636719 158.015625 C 97.277344 158.226562 95.917969 158.460938 94.566406 158.710938 C 90.148438 159.527344 85.796875 160.5 81.527344 161.671875 C 76.390625 163.082031 71.402344 164.730469 66.714844 166.941406 C 64.511719 167.980469 62.394531 169.132812 60.449219 170.488281 C 58.730469 171.691406 57.148438 173.023438 55.914062 174.589844 C 55.503906 175.09375 55.1875 175.726562 54.90625 176.410156 C 54.589844 177.195312 54.359375 178.03125 54.167969 178.898438 C 53.761719 180.777344 53.582031 182.726562 53.5 184.691406 C 53.429688 186.363281 53.441406 188.035156 53.515625 189.703125 C 53.535156 190.222656 53.566406 190.738281 53.601562 191.25 C 53.613281 191.390625 53.621094 191.53125 53.632812 191.671875 C 53.636719 191.707031 53.640625 191.742188 53.644531 191.777344 C 53.609375 191.898438 53.578125 192.023438 53.546875 192.144531 C 53.535156 192.1875 53.523438 192.226562 53.515625 192.269531 C 52.101562 194.125 50.695312 195.96875 49.296875 197.808594 C 49.296875 197.808594 49.296875 197.816406 49.296875 197.816406 C 49.296875 197.816406 49.296875 197.835938 49.296875 197.835938 C 49.339844 197.722656 49.386719 197.613281 49.433594 197.503906 C 49.433594 197.601562 49.4375 197.703125 49.4375 197.804688 C 49.449219 198.1875 49.460938 198.574219 49.476562 198.957031 C 49.523438 200.339844 49.59375 201.714844 49.675781 203.089844 C 49.9375 207.324219 50.332031 211.496094 50.953125 215.605469 C 51.292969 217.855469 51.695312 220.074219 52.21875 222.246094 C 52.695312 224.222656 53.25 226.140625 54.007812 227.941406 C 54.628906 229.390625 55.304688 230.742188 56.277344 231.734375 C 56.652344 232.125 57.050781 232.453125 57.46875 232.652344 C 57.847656 232.839844 58.269531 232.949219 58.671875 232.945312 C 112.578125 233.203125 159.621094 233.480469 196.441406 233.753906 C 196.941406 233.757812 197.433594 233.664062 197.863281 233.460938 C 198.292969 233.265625 198.6875 232.957031 199.042969 232.589844 C 199.890625 231.722656 200.457031 230.53125 200.96875 229.3125 C 201.550781 227.910156 202.023438 226.402344 202.511719 224.945312 C 202.984375 223.519531 203.46875 222.097656 204.179688 220.730469 C 206.476562 216.355469 208.082031 211.238281 209.574219 206.976562 C 210.402344 204.605469 211.207031 202.382812 212.164062 200.207031 C 213.0625 198.15625 214.058594 196.246094 215.335938 194.53125 C 216.902344 192.433594 218.480469 190.554688 220.261719 188.921875 C 221.550781 187.734375 222.921875 186.714844 224.488281 186.085938 C 225.65625 185.617188 226.933594 185.460938 228.128906 185.761719 C 229.328125 186.082031 230.308594 186.824219 231.039062 187.652344 C 232.015625 188.757812 232.691406 190.035156 233.199219 191.21875 C 233.921875 192.890625 234.414062 194.582031 234.773438 196.0625 C 235.683594 199.765625 236.074219 203.246094 236.246094 205.089844 C 236.441406 207.148438 236.460938 208.210938 236.410156 208.21875 Z M 236.410156 208.214844 " fill-opacity="1" fill-rule="evenodd"/></g><g clip-path="url(#5ff9ed2bc5)"><path fill="#000000" d="M 215.910156 197.324219 C 215.910156 197.320312 215.910156 197.3125 215.914062 197.308594 C 215.917969 197.304688 215.925781 197.296875 215.933594 197.292969 C 215.949219 197.285156 215.972656 197.273438 216 197.265625 C 216.0625 197.25 216.148438 197.238281 216.261719 197.230469 C 216.484375 197.214844 216.808594 197.214844 217.234375 197.242188 C 218.039062 197.289062 219.203125 197.429688 220.667969 197.730469 C 223.195312 198.253906 227.015625 199.34375 230.964844 201.660156 C 232.753906 202.707031 234.617188 204.046875 236.363281 205.742188 C 238.046875 207.375 239.625 209.351562 240.910156 211.667969 C 242.230469 214.0625 243.21875 216.777344 243.78125 219.714844 C 244.414062 223.011719 244.527344 226.488281 244.199219 230.078125 C 243.6875 235.75 242.730469 241.960938 240.597656 247.980469 C 239.652344 250.664062 238.425781 253.386719 236.734375 255.875 C 236.289062 256.53125 235.8125 257.171875 235.300781 257.785156 C 233.917969 259.4375 232.25 260.910156 230.261719 261.917969 C 229.5 262.171875 228.742188 262.421875 227.988281 262.671875 C 215.96875 262.410156 204.867188 262.117188 195.421875 261.816406 C 189.421875 259.238281 185.148438 255.382812 182.660156 251.21875 C 180.191406 246.960938 179.59375 242.605469 179.449219 240.070312 C 179.292969 237.351562 179.578125 235.902344 179.695312 235.902344 C 179.890625 235.902344 179.921875 237.355469 180.351562 239.972656 C 180.75 242.390625 181.625 246.554688 184.097656 250.332031 C 186.464844 254.054688 190.398438 257.378906 195.882812 259.640625 C 205.140625 259.699219 215.921875 259.824219 227.5625 260.015625 C 228.105469 259.8125 228.652344 259.605469 229.199219 259.398438 C 230.695312 258.652344 232.011719 257.429688 233.1875 256.015625 C 233.640625 255.476562 234.0625 254.910156 234.464844 254.320312 C 235.96875 252.101562 237.097656 249.585938 238.019531 247.050781 C 240.074219 241.371094 241.042969 235.371094 241.636719 229.824219 C 241.988281 226.4375 241.949219 223.199219 241.421875 220.148438 C 240.957031 217.433594 240.121094 214.925781 238.972656 212.710938 C 237.867188 210.566406 236.472656 208.699219 234.972656 207.132812 C 233.414062 205.507812 231.71875 204.175781 230.078125 203.105469 C 226.457031 200.738281 222.816406 199.421875 220.425781 198.671875 C 219.027344 198.238281 217.921875 197.953125 217.152344 197.75 C 216.75 197.644531 216.433594 197.5625 216.230469 197.496094 C 216.121094 197.460938 216.042969 197.429688 215.988281 197.402344 C 215.960938 197.386719 215.941406 197.375 215.925781 197.363281 C 215.921875 197.355469 215.914062 197.347656 215.910156 197.34375 C 215.910156 197.335938 215.910156 197.332031 215.910156 197.324219 Z M 215.910156 197.324219 " fill-opacity="1" fill-rule="evenodd"/></g><path fill="#000000" d="M 208.550781 218.015625 L 208.628906 217.820312 L 211.710938 210.261719 L 214.652344 222.058594 C 214.6875 222.191406 214.765625 222.289062 214.890625 222.351562 C 215.015625 222.414062 215.140625 222.417969 215.265625 222.363281 L 216.699219 221.746094 C 216.820312 221.695312 216.902344 221.609375 216.945312 221.484375 L 221.695312 207.988281 L 227.773438 210.679688 L 221.03125 224.003906 C 220.933594 224.195312 220.960938 224.371094 221.113281 224.523438 L 221.730469 225.140625 C 221.871094 225.285156 222.039062 225.316406 222.226562 225.234375 L 233.585938 220.324219 L 235.222656 228.171875 L 223.585938 230.742188 C 223.421875 230.777344 223.3125 230.878906 223.257812 231.039062 L 222.644531 232.886719 C 222.566406 233.117188 222.632812 233.292969 222.839844 233.417969 L 234.136719 240.175781 L 230.53125 247.039062 L 221.144531 237.230469 C 220.976562 237.054688 220.789062 237.03125 220.582031 237.160156 L 218.945312 238.1875 C 218.765625 238.296875 218.699219 238.457031 218.742188 238.660156 L 221.71875 252.996094 L 215.914062 254.230469 L 214.925781 239.15625 C 214.914062 239.019531 214.855469 238.90625 214.746094 238.824219 L 213.109375 237.59375 C 213 237.511719 212.882812 237.484375 212.75 237.511719 C 212.621094 237.539062 212.519531 237.609375 212.453125 237.726562 L 206.054688 248.613281 L 201.765625 242.523438 L 210.082031 234.378906 C 210.175781 234.289062 210.21875 234.183594 210.21875 234.054688 L 210.21875 232.617188 C 210.21875 232.496094 210.175781 232.390625 210.09375 232.304688 C 210.007812 232.21875 209.90625 232.171875 209.785156 232.167969 L 203.613281 231.980469 L 205.738281 224.691406 L 209.945312 227.257812 C 210.050781 227.324219 210.164062 227.339844 210.285156 227.3125 C 210.40625 227.28125 210.5 227.210938 210.566406 227.105469 L 211.792969 225.054688 C 211.875 224.917969 211.882812 224.773438 211.8125 224.628906 L 208.539062 217.652344 Z M 207.726562 218.035156 L 210.898438 224.796875 L 210.027344 226.253906 L 205.707031 223.617188 C 205.582031 223.539062 205.449219 223.527344 205.3125 223.582031 C 205.171875 223.632812 205.082031 223.730469 205.042969 223.875 L 202.585938 232.285156 C 202.546875 232.429688 202.566406 232.558594 202.652344 232.679688 C 202.742188 232.796875 202.859375 232.859375 203.003906 232.863281 L 209.320312 233.054688 L 209.320312 233.863281 L 200.863281 242.144531 C 200.785156 242.222656 200.738281 242.316406 200.730469 242.425781 C 200.71875 242.535156 200.746094 242.636719 200.808594 242.726562 L 205.71875 249.703125 C 205.765625 249.765625 205.820312 249.816406 205.886719 249.847656 C 205.957031 249.882812 206.03125 249.898438 206.105469 249.894531 C 206.183594 249.890625 206.253906 249.871094 206.316406 249.832031 C 206.382812 249.792969 206.4375 249.738281 206.472656 249.671875 L 212.972656 238.617188 L 214.039062 239.421875 L 215.050781 254.808594 C 215.058594 254.945312 215.117188 255.054688 215.226562 255.140625 C 215.335938 255.222656 215.457031 255.25 215.59375 255.21875 L 222.34375 253.785156 C 222.464844 253.757812 222.558594 253.695312 222.628906 253.589844 C 222.695312 253.484375 222.714844 253.371094 222.691406 253.25 L 219.6875 238.785156 L 220.746094 238.121094 L 230.316406 248.113281 C 230.367188 248.167969 230.425781 248.207031 230.492188 248.230469 C 230.5625 248.253906 230.632812 248.257812 230.703125 248.25 C 230.773438 248.238281 230.839844 248.214844 230.898438 248.171875 C 230.957031 248.128906 231.003906 248.078125 231.039062 248.011719 L 235.128906 240.214844 C 235.1875 240.109375 235.199219 240 235.164062 239.882812 C 235.132812 239.769531 235.066406 239.679688 234.960938 239.617188 L 223.609375 232.828125 L 224.027344 231.566406 L 235.851562 228.957031 C 235.972656 228.929688 236.066406 228.863281 236.132812 228.757812 C 236.199219 228.65625 236.21875 228.542969 236.195312 228.421875 L 234.355469 219.597656 C 234.324219 219.460938 234.246094 219.355469 234.121094 219.292969 C 233.996094 219.226562 233.867188 219.222656 233.734375 219.277344 L 222.148438 224.285156 L 221.980469 224.117188 L 228.789062 210.664062 C 228.847656 210.546875 228.855469 210.429688 228.8125 210.308594 C 228.769531 210.183594 228.6875 210.097656 228.570312 210.046875 L 221.613281 206.96875 C 221.496094 206.914062 221.375 206.914062 221.253906 206.964844 C 221.132812 207.019531 221.050781 207.105469 221.007812 207.230469 L 216.164062 220.996094 L 215.398438 221.324219 L 212.253906 208.707031 C 212.199219 208.496094 212.066406 208.382812 211.847656 208.367188 C 211.632812 208.351562 211.480469 208.445312 211.398438 208.644531 L 207.796875 217.480469 L 207.71875 217.675781 Z M 207.726562 218.035156 " fill-opacity="1" fill-rule="evenodd"/><path fill="#000000" d="M 239.644531 161.417969 C 239.382812 161.488281 238.464844 158.988281 237.082031 154.503906 C 237.222656 150.847656 237.695312 145.175781 239.40625 139.28125 C 240.417969 135.847656 241.980469 131.992188 244.621094 128.609375 C 246.570312 126.113281 249.246094 123.90625 252.527344 122.699219 C 253.84375 122.226562 255.214844 121.929688 256.613281 121.789062 C 258.640625 121.585938 260.664062 121.726562 262.574219 122.101562 C 262.574219 122.105469 262.574219 122.101562 262.574219 122.101562 C 262.574219 122.101562 262.578125 122.101562 262.578125 122.101562 C 262.617188 122.109375 262.65625 122.113281 262.695312 122.121094 C 262.847656 122.140625 263 122.164062 263.152344 122.183594 C 263.710938 122.265625 264.269531 122.347656 264.820312 122.429688 C 266.699219 122.710938 268.53125 123.011719 270.320312 123.328125 C 272.671875 123.742188 274.902344 124.175781 277.074219 124.65625 C 279.226562 125.132812 281.207031 125.621094 283.152344 126.265625 C 285.210938 126.953125 287.167969 127.808594 288.839844 128.570312 C 291.113281 129.605469 293.191406 130.648438 294.871094 131.527344 C 296.890625 132.585938 298.515625 133.503906 299.621094 134.183594 C 300.226562 134.554688 300.691406 134.863281 300.996094 135.09375 C 301.15625 135.214844 301.273438 135.3125 301.347656 135.390625 C 301.382812 135.429688 301.410156 135.464844 301.425781 135.492188 C 301.425781 135.519531 301.429688 135.535156 301.433594 135.546875 C 301.433594 135.554688 301.433594 135.558594 301.433594 135.5625 L 301.4375 135.5625 L 301.433594 135.566406 C 301.429688 135.566406 301.425781 135.566406 301.421875 135.570312 C 301.410156 135.574219 301.394531 135.582031 301.375 135.597656 C 301.34375 135.601562 301.300781 135.601562 301.246094 135.59375 C 301.140625 135.582031 300.988281 135.546875 300.800781 135.492188 C 300.433594 135.382812 299.910156 135.199219 299.246094 134.941406 C 298.003906 134.464844 296.363281 133.78125 294.230469 132.898438 C 292.539062 132.199219 290.3125 131.273438 288.070312 130.40625 C 286.382812 129.75 284.429688 129.007812 282.480469 128.445312 C 280.621094 127.90625 278.710938 127.507812 276.574219 127.097656 C 274.425781 126.683594 272.226562 126.308594 269.886719 125.9375 C 268.109375 125.660156 266.292969 125.386719 264.429688 125.125 C 263.882812 125.046875 263.332031 124.972656 262.777344 124.898438 C 262.628906 124.878906 262.480469 124.855469 262.332031 124.835938 C 262.292969 124.832031 262.253906 124.828125 262.214844 124.824219 C 262.195312 124.820312 262.175781 124.816406 262.15625 124.8125 C 262.15625 124.8125 262.140625 124.8125 262.140625 124.8125 C 260.429688 124.5 258.652344 124.378906 256.90625 124.539062 C 255.707031 124.652344 254.546875 124.898438 253.457031 125.292969 C 250.746094 126.242188 248.4375 128.128906 246.683594 130.269531 C 244.277344 133.207031 242.738281 136.765625 241.644531 139.992188 C 239.808594 145.339844 238.996094 150.839844 238.523438 154.378906 C 239.472656 158.730469 239.90625 161.347656 239.644531 161.417969 Z M 239.644531 161.417969 " fill-opacity="1" fill-rule="evenodd"/><path fill="#000000" d="M 237.390625 160.390625 C 237.414062 161.582031 237.414062 162.734375 237.390625 163.851562 C 239.441406 173.375 240.011719 180.640625 240.246094 187.421875 C 240.480469 194.207031 240.375 200.488281 241.074219 207.996094 C 240.613281 200.476562 240.960938 194.214844 240.96875 187.410156 C 240.976562 180.601562 240.644531 173.238281 238.8125 163.5625 C 238.355469 162.53125 237.882812 161.472656 237.390625 160.390625 Z M 237.390625 160.390625 " fill-opacity="1" fill-rule="evenodd"/><path fill="#000000" d="M 263.722656 123.789062 C 264.753906 125.5 265.816406 127.265625 266.90625 129.117188 C 270.457031 140.945312 274.730469 155.230469 276.679688 171.707031 C 278.632812 188.1875 278.253906 206.78125 272.585938 227.285156 C 277.796875 206.675781 277.679688 188.144531 275.285156 171.898438 C 272.886719 155.648438 268.207031 141.625 264.222656 129.984375 C 264.03125 127.851562 263.859375 125.78125 263.722656 123.789062 Z M 263.722656 123.789062 " fill-opacity="1" fill-rule="evenodd"/><path fill="#000000" d="M 285.410156 127.933594 C 285.808594 129.574219 286.195312 131.203125 286.5625 132.824219 C 292.398438 144.679688 297.296875 156.191406 300.785156 166.578125 C 304.273438 176.960938 306.355469 186.234375 306.550781 193.632812 C 306.71875 186.210938 304.988281 176.8125 301.824219 166.25 C 298.660156 155.6875 294.070312 143.96875 288.527344 131.886719 C 287.5 130.570312 286.460938 129.253906 285.410156 127.9375 Z M 285.410156 127.933594 " fill-opacity="1" fill-rule="evenodd"/><g clip-path="url(#38a804e0e3)"><path fill="#000000" d="M 283.632812 240.210938 C 283.765625 240.183594 284.121094 241.308594 284.667969 243.425781 C 285.121094 245.035156 285.871094 247.742188 286.859375 250.527344 C 287.589844 252.578125 288.585938 255.234375 290.070312 257.472656 C 290.59375 258.253906 291.183594 259.027344 291.898438 259.5625 C 292.179688 259.769531 292.46875 259.945312 292.761719 260.050781 C 293.023438 260.140625 293.300781 260.191406 293.5625 260.175781 C 298.796875 259.96875 304.738281 259.753906 311.230469 259.539062 C 311.308594 259.542969 311.417969 259.5 311.539062 259.445312 C 311.6875 259.371094 311.847656 259.234375 312.023438 259.0625 C 312.496094 258.601562 312.859375 257.949219 313.238281 257.210938 C 314.269531 255.136719 314.882812 252.8125 315.445312 250.292969 C 316.078125 247.425781 316.519531 244.453125 316.804688 241.363281 C 317.058594 238.585938 317.199219 235.734375 317.058594 232.886719 C 316.910156 229.890625 316.742188 226.804688 316.457031 223.75 C 316.332031 222.417969 316.1875 221.082031 316.015625 219.75 C 315.742188 217.691406 315.402344 215.683594 314.945312 213.71875 C 314.589844 212.207031 314.179688 210.746094 313.644531 209.355469 C 313.171875 208.128906 312.628906 206.976562 311.933594 205.984375 C 311.332031 205.140625 310.660156 204.410156 309.882812 203.96875 C 309.160156 203.539062 308.285156 203.339844 307.4375 203.378906 C 306.59375 203.40625 305.730469 203.78125 305.03125 204.335938 C 304.175781 205.003906 303.503906 205.984375 302.914062 207.035156 C 301.324219 209.914062 300.582031 213.3125 300.011719 216.507812 C 299.320312 220.464844 299.011719 224.398438 298.867188 228.019531 C 298.726562 231.496094 298.734375 234.660156 298.910156 237.675781 C 299.058594 240.34375 299.761719 242.929688 300.503906 245.117188 C 301.40625 247.789062 302.519531 250.203125 303.460938 252.097656 C 306.121094 256.710938 307.542969 259.375 307.367188 259.5 C 307.1875 259.613281 305.433594 257.179688 302.429688 252.699219 C 301.335938 250.828125 300.066406 248.425781 298.992188 245.675781 C 298.113281 243.441406 297.273438 240.746094 297 237.820312 C 296.71875 234.738281 296.617188 231.492188 296.671875 227.960938 C 296.726562 224.265625 296.960938 220.230469 297.605469 216.109375 C 298.109375 212.808594 298.882812 209.15625 300.636719 205.804688 C 301.285156 204.558594 302.15625 203.304688 303.371094 202.289062 C 304.449219 201.394531 305.816406 200.808594 307.296875 200.710938 C 308.648438 200.636719 310.019531 200.945312 311.230469 201.636719 C 312.445312 202.355469 313.410156 203.34375 314.152344 204.417969 C 315.019531 205.664062 315.671875 207.007812 316.195312 208.367188 C 316.792969 209.910156 317.246094 211.492188 317.621094 213.089844 C 318.105469 215.160156 318.464844 217.261719 318.746094 219.386719 C 318.929688 220.765625 319.074219 222.136719 319.199219 223.496094 C 319.484375 226.625 319.644531 229.75 319.777344 232.761719 C 319.910156 235.785156 319.746094 238.765625 319.457031 241.621094 C 319.132812 244.804688 318.640625 247.886719 317.945312 250.863281 C 317.351562 253.449219 316.628906 255.964844 315.425781 258.324219 C 315.007812 259.164062 314.472656 260.023438 313.714844 260.78125 C 313.421875 261.078125 313.058594 261.355469 312.621094 261.582031 C 312.226562 261.785156 311.773438 261.90625 311.285156 261.921875 C 304.789062 262.007812 298.847656 262.070312 293.605469 262.105469 C 293.066406 262.109375 292.550781 262.003906 292.082031 261.8125 C 291.574219 261.601562 291.132812 261.320312 290.757812 261.007812 C 289.820312 260.226562 289.140625 259.285156 288.613281 258.394531 C 287.089844 255.855469 286.195312 253.070312 285.582031 250.941406 C 284.71875 247.972656 284.199219 245.308594 283.917969 243.585938 C 283.605469 241.414062 283.503906 240.238281 283.632812 240.210938 Z M 283.632812 240.210938 " fill-opacity="1" fill-rule="evenodd"/></g><path fill="#000000" d="M 300.707031 229.667969 L 303.703125 232.667969 L 303.507812 235.183594 L 300.867188 240.476562 C 300.84375 240.523438 300.839844 240.570312 300.847656 240.625 L 302.074219 247.394531 C 302.097656 247.511719 302.164062 247.574219 302.28125 247.585938 C 302.398438 247.597656 302.480469 247.546875 302.523438 247.4375 L 304.992188 241.066406 L 305.550781 251.878906 C 305.554688 251.976562 305.605469 252.046875 305.695312 252.082031 L 308.765625 253.316406 C 308.847656 253.347656 308.921875 253.335938 308.988281 253.285156 C 309.058594 253.234375 309.089844 253.167969 309.085938 253.082031 L 308.144531 240.832031 L 312.738281 249.3125 C 312.789062 249.402344 312.863281 249.441406 312.964844 249.433594 C 313.066406 249.421875 313.132812 249.367188 313.164062 249.269531 L 315.417969 242.296875 C 315.441406 242.214844 315.429688 242.144531 315.378906 242.078125 L 309.488281 234.597656 L 314.617188 233.835938 C 314.738281 233.816406 314.804688 233.746094 314.8125 233.621094 L 315.425781 225.621094 C 315.433594 225.535156 315.402344 225.46875 315.335938 225.417969 C 315.265625 225.363281 315.191406 225.355469 315.113281 225.382812 L 309.089844 227.648438 L 313.769531 217.285156 C 313.804688 217.214844 313.800781 217.140625 313.757812 217.074219 L 310.691406 211.738281 C 310.640625 211.648438 310.5625 211.613281 310.464844 211.621094 C 310.363281 211.632812 310.296875 211.6875 310.265625 211.785156 L 307.164062 221.8125 L 307.855469 211.050781 C 307.863281 210.945312 307.820312 210.867188 307.722656 210.824219 C 307.628906 210.777344 307.542969 210.792969 307.464844 210.863281 L 303.988281 214.148438 C 303.9375 214.195312 303.914062 214.25 303.914062 214.316406 L 303.914062 224.371094 L 302.121094 222.339844 C 302.054688 222.265625 301.972656 222.242188 301.878906 222.269531 C 301.785156 222.296875 301.730469 222.359375 301.714844 222.457031 L 300.640625 229.464844 Z M 301.101562 229.535156 L 302.101562 223.019531 L 303.972656 225.140625 C 304.042969 225.222656 304.128906 225.242188 304.230469 225.207031 C 304.328125 225.167969 304.378906 225.09375 304.378906 224.988281 L 304.378906 214.417969 L 307.355469 211.609375 L 306.574219 223.742188 C 306.566406 223.878906 306.628906 223.960938 306.765625 223.984375 C 306.898438 224.011719 306.988281 223.957031 307.027344 223.824219 L 310.554688 212.433594 L 313.296875 217.203125 L 308.4375 227.96875 C 308.394531 228.0625 308.40625 228.148438 308.476562 228.222656 C 308.546875 228.300781 308.632812 228.320312 308.730469 228.285156 L 314.933594 225.949219 L 314.363281 233.402344 L 309.023438 234.195312 C 308.933594 234.207031 308.875 234.257812 308.839844 234.339844 C 308.808594 234.421875 308.820312 234.5 308.875 234.570312 L 314.933594 242.269531 L 312.890625 248.609375 L 308.035156 239.648438 C 307.972656 239.539062 307.882812 239.5 307.761719 239.539062 C 307.644531 239.574219 307.585938 239.652344 307.597656 239.777344 L 308.589844 252.742188 L 306.007812 251.707031 L 305.402344 239.953125 C 305.394531 239.828125 305.328125 239.757812 305.207031 239.734375 C 305.082031 239.714844 304.996094 239.765625 304.953125 239.882812 L 302.386719 246.5 L 301.320312 240.617188 L 303.945312 235.351562 C 303.957031 235.324219 303.964844 235.296875 303.96875 235.265625 L 304.171875 232.597656 C 304.179688 232.527344 304.15625 232.464844 304.105469 232.414062 L 301.035156 229.335938 Z M 301.101562 229.535156 " fill-opacity="1" fill-rule="evenodd"/><path fill="#000000" d="M 193.605469 237.132812 C 194.246094 237.085938 194.660156 240.421875 195.925781 245.007812 C 196.453125 246.914062 197.152344 249.101562 198.214844 251.109375 C 198.285156 251.242188 198.355469 251.375 198.425781 251.503906 C 199.558594 253.527344 200.945312 255.109375 202.433594 256.253906 C 204.054688 257.523438 205.855469 258.304688 207.023438 258.804688 C 208.246094 259.332031 208.988281 259.640625 208.949219 259.910156 C 208.921875 260.109375 205.539062 261 201.070312 258.246094 C 199.152344 257.046875 197.359375 255.234375 196.023438 252.855469 C 195.941406 252.703125 195.859375 252.550781 195.777344 252.398438 C 194.550781 250.054688 193.894531 247.632812 193.53125 245.546875 C 192.65625 240.5625 193.183594 237.164062 193.605469 237.132812 Z M 193.605469 237.132812 " fill-opacity="1" fill-rule="evenodd"/><path fill="#000000" d="M 267.636719 173.765625 C 267.554688 173.007812 269.183594 172.203125 271.277344 171.96875 C 273.371094 171.734375 275.136719 172.160156 275.222656 172.917969 C 275.304688 173.675781 273.675781 174.480469 271.582031 174.714844 C 269.488281 174.949219 267.722656 174.523438 267.636719 173.765625 Z M 267.636719 173.765625 " fill-opacity="1" fill-rule="evenodd"/><path fill="#000000" d="M 295.867188 171.230469 C 295.867188 170.46875 297.1875 169.847656 298.816406 169.847656 C 300.441406 169.847656 301.765625 170.46875 301.765625 171.230469 C 301.765625 171.992188 300.441406 172.613281 298.816406 172.613281 C 297.1875 172.613281 295.867188 171.992188 295.867188 171.230469 Z M 295.867188 171.230469 " fill-opacity="1" fill-rule="evenodd"/><path fill="#000000" d="M 104.589844 157.707031 C 104.566406 157.441406 118.332031 155.804688 140.734375 154.335938 C 162.175781 152.929688 195.179688 151.445312 228.691406 155.234375 C 228.894531 153.363281 229.117188 151.480469 229.371094 149.589844 C 229.96875 145.179688 230.722656 140.867188 231.777344 136.644531 C 233.484375 131.617188 235.625 126.769531 238.863281 122.515625 C 181.425781 124.050781 138.308594 124.738281 138.292969 123.90625 C 138.28125 123.078125 181.566406 122.320312 239.957031 121.917969 C 237.316406 126.488281 235.695312 131.777344 234.417969 137.390625 C 233.058594 141.761719 231.976562 146.253906 231.035156 150.878906 C 230.632812 152.855469 230.257812 154.835938 229.90625 156.804688 C 196.484375 153.355469 162.601562 154.894531 141.152344 156.007812 C 118.460938 157.191406 104.625 158.191406 104.589844 157.710938 Z M 104.589844 157.707031 " fill-opacity="1" fill-rule="evenodd"/><path fill="#000000" d="M 162.730469 198.695312 C 162.589844 197.996094 181.015625 193.816406 205.367188 188.910156 C 206.644531 185.390625 208.210938 181.707031 210.367188 178.289062 C 210.550781 178 210.738281 177.710938 210.929688 177.425781 C 212.640625 174.914062 214.699219 172.59375 217.351562 170.988281 C 218.375 170.375 219.496094 169.902344 220.683594 169.636719 C 221.777344 169.394531 222.898438 169.351562 223.992188 169.5 C 225.101562 169.65625 226.152344 170.003906 227.101562 170.476562 C 228.148438 171 229.085938 171.65625 229.917969 172.378906 C 231.9375 174.136719 233.453125 176.261719 234.625 178.316406 C 236.179688 181.03125 237.269531 183.8125 238.058594 186.359375 C 241.671875 197.996094 239.878906 205.457031 239.832031 205.453125 C 239.101562 205.429688 240.039062 198 236.101562 187.015625 C 235.238281 184.609375 234.109375 182.003906 232.589844 179.53125 C 231.429688 177.65625 230.03125 175.773438 228.273438 174.324219 C 227.558594 173.738281 226.789062 173.214844 225.964844 172.828125 C 225.226562 172.480469 224.4375 172.230469 223.644531 172.132812 C 222.867188 172.035156 222.058594 172.082031 221.273438 172.261719 C 220.410156 172.460938 219.5625 172.835938 218.746094 173.324219 C 216.578125 174.613281 214.824219 176.671875 213.191406 179 C 212.988281 179.285156 212.789062 179.574219 212.589844 179.871094 C 210.265625 183.3125 208.449219 187.089844 206.886719 190.730469 C 181.636719 195.96875 162.875 199.390625 162.730469 198.695312 Z M 162.730469 198.695312 " fill-opacity="1" fill-rule="evenodd"/><path fill="#000000" d="M 289.542969 227.003906 C 289.242188 226.945312 289.460938 224.050781 290.203125 219.257812 C 290.925781 214.617188 292.242188 207.613281 294.316406 200.1875 C 295.105469 197.367188 296.039062 194.363281 297.21875 191.378906 C 297.351562 191.050781 297.484375 190.71875 297.621094 190.394531 C 298.628906 187.941406 299.769531 185.613281 301.332031 183.519531 C 301.933594 182.714844 302.621094 181.949219 303.433594 181.289062 C 304.113281 180.730469 304.917969 180.269531 305.824219 180 C 306.695312 179.75 307.601562 179.734375 308.453125 179.929688 C 309.4375 180.171875 310.28125 180.628906 310.96875 181.15625 C 311.910156 181.871094 312.671875 182.703125 313.296875 183.511719 C 314.203125 184.675781 314.9375 185.886719 315.542969 187 C 318.980469 193.335938 319.589844 197.796875 319.457031 197.847656 C 318.855469 198.082031 317.550781 193.847656 313.816406 188.023438 C 313.164062 187.011719 312.417969 185.933594 311.558594 184.949219 C 310.957031 184.269531 310.300781 183.601562 309.566406 183.109375 C 309.035156 182.753906 308.472656 182.464844 307.925781 182.371094 C 307.480469 182.285156 306.996094 182.3125 306.554688 182.457031 C 306.066406 182.605469 305.578125 182.921875 305.097656 183.320312 C 304.515625 183.804688 303.996094 184.425781 303.484375 185.121094 C 302.144531 186.953125 301.148438 189.089844 300.164062 191.453125 C 300.03125 191.765625 299.90625 192.082031 299.78125 192.398438 C 298.648438 195.253906 297.710938 198.179688 296.878906 200.933594 C 294.769531 207.929688 292.960938 215.34375 291.867188 219.601562 C 290.667969 224.28125 289.871094 227.066406 289.542969 227.003906 Z M 289.542969 227.003906 " fill-opacity="1" fill-rule="evenodd"/><path fill="#000000" d="M 67.933594 220.664062 C 67.941406 219.898438 105.339844 220.09375 155.765625 220.980469 C 154.082031 214.316406 152.242188 207.195312 149.789062 200.371094 C 148.90625 197.363281 147.890625 194.359375 146.726562 191.390625 C 145.085938 187.203125 143.191406 183.210938 141.023438 179.449219 C 117.539062 177.515625 96.976562 177.835938 79.414062 179.167969 C 73.730469 191.335938 71.050781 201.347656 69.648438 208.984375 C 68.285156 216.386719 68.234375 220.671875 67.933594 220.664062 C 67.804688 220.660156 67.457031 216.347656 68.605469 208.695312 C 69.78125 200.847656 72.453125 190.34375 78.363281 177.65625 C 96.316406 176.050781 117.8125 175.523438 142.304688 177.375 C 144.753906 181.386719 146.921875 185.625 148.824219 190.058594 C 150.175781 193.199219 151.363281 196.375 152.40625 199.550781 C 154.433594 207.097656 155.808594 214.875 157.050781 222.035156 C 105.511719 221.949219 67.925781 221.425781 67.933594 220.664062 Z M 67.933594 220.664062 " fill-opacity="1" fill-rule="evenodd"/><path fill="#000000" d="M 51.503906 191.933594 C 51.957031 191.320312 54.871094 192.714844 58.011719 195.050781 C 61.152344 197.382812 63.332031 199.769531 62.878906 200.382812 C 62.425781 200.996094 59.511719 199.601562 56.371094 197.269531 C 53.230469 194.9375 51.050781 192.546875 51.503906 191.933594 Z M 51.503906 191.933594 " fill-opacity="1" fill-rule="evenodd"/><path fill="#000000" d="M 58.667969 174.609375 C 58.96875 173.867188 64.921875 176.117188 72.972656 179.835938 C 72.328125 180.976562 71.644531 182.183594 70.949219 183.402344 C 69.78125 185.4375 68.667969 187.355469 67.609375 189.132812 C 64.511719 189 61.839844 188.820312 59.691406 188.585938 C 57.183594 189.632812 55.457031 190.140625 55.296875 189.820312 C 55.132812 189.496094 56.601562 188.410156 59.328125 186.828125 C 61.3125 186.828125 63.746094 186.929688 66.578125 187.128906 C 67.492188 185.765625 68.453125 184.386719 69.492188 182.929688 C 70.109375 182.058594 70.730469 181.195312 71.324219 180.367188 C 64.003906 177.8125 58.363281 175.363281 58.667969 174.609375 Z M 58.667969 174.609375 " fill-opacity="1" fill-rule="evenodd"/><path fill="#000000" d="M 203.175781 174.1875 C 203.273438 175.058594 182.511719 177.476562 155.816406 180.019531 C 157.046875 181.902344 158.484375 184.085938 159.765625 186.039062 C 160.089844 186.535156 160.414062 187.03125 160.734375 187.523438 C 166.976562 186.8125 172.828125 186.164062 178.390625 185.589844 C 181.933594 186.367188 185.304688 187.121094 188.457031 187.832031 C 193.320312 187.273438 197.175781 186.828125 200.988281 186.375 C 201.949219 178.839844 202.832031 174.140625 203.175781 174.1875 C 203.519531 174.234375 203.136719 179.042969 201.992188 187.351562 C 197.769531 188.207031 194.042969 188.96875 188.402344 190.117188 C 185.226562 189.507812 181.824219 188.84375 178.246094 188.136719 C 172.410156 188.625 166.238281 189.097656 159.667969 189.582031 C 159.328125 188.910156 158.984375 188.238281 158.640625 187.558594 C 157.246094 184.8125 155.808594 181.972656 154.476562 179.339844 C 182.082031 175.667969 203.078125 173.320312 203.175781 174.1875 Z M 203.175781 174.1875 " fill-opacity="1" fill-rule="evenodd"/><g clip-path="url(#d48f7f14dd)"><path fill="#000000" d="M 50.726562 227.558594 C 50.730469 227.558594 50.738281 227.558594 50.746094 227.5625 C 50.753906 227.5625 50.761719 227.570312 50.769531 227.578125 C 50.785156 227.589844 50.800781 227.613281 50.816406 227.640625 C 50.847656 227.699219 50.882812 227.785156 50.917969 227.898438 C 50.988281 228.117188 51.070312 228.449219 51.164062 228.875 C 51.34375 229.691406 51.574219 230.890625 51.875 232.382812 C 52.390625 234.917969 53.21875 238.878906 54.566406 243.019531 C 55.152344 244.816406 55.871094 246.753906 56.773438 248.664062 C 57.554688 250.3125 58.492188 252 59.664062 253.519531 C 60.667969 254.808594 61.851562 256.023438 63.25 256.863281 C 64.523438 257.640625 66.03125 258.128906 67.570312 258.179688 C 70.53125 258.289062 73.589844 258.410156 76.714844 258.542969 C 84.15625 258.859375 91.199219 259.203125 97.480469 259.558594 C 98.3125 259.625 99.203125 259.359375 100.011719 258.964844 C 100.996094 258.472656 101.886719 257.726562 102.691406 256.9375 C 104.800781 254.871094 106.433594 252.261719 107.664062 250.164062 C 109.246094 247.46875 110.519531 244.824219 111.308594 243.195312 C 111.785156 242.214844 112.160156 241.4375 112.4375 240.914062 C 112.585938 240.636719 112.707031 240.429688 112.800781 240.292969 C 112.847656 240.222656 112.890625 240.171875 112.925781 240.136719 C 112.945312 240.121094 112.960938 240.109375 112.976562 240.105469 C 112.996094 240.105469 113.003906 240.101562 113.007812 240.101562 C 113.015625 240.101562 113.015625 240.101562 113.015625 240.101562 C 113.015625 240.101562 113.015625 240.101562 113.019531 240.105469 C 113.023438 240.109375 113.03125 240.117188 113.046875 240.128906 C 113.054688 240.140625 113.058594 240.160156 113.0625 240.183594 C 113.070312 240.230469 113.074219 240.296875 113.070312 240.382812 C 113.058594 240.550781 113.023438 240.792969 112.957031 241.101562 C 112.832031 241.691406 112.609375 242.527344 112.269531 243.582031 C 111.691406 245.386719 110.699219 248.074219 109.234375 251.019531 C 108.121094 253.265625 106.554688 256.074219 104.300781 258.507812 C 103.441406 259.441406 102.398438 260.363281 101.128906 261.074219 C 100.058594 261.675781 98.769531 262.074219 97.375 262.046875 C 91.085938 261.867188 84.039062 261.617188 76.597656 261.304688 C 73.472656 261.171875 70.417969 261.03125 67.457031 260.890625 C 65.417969 260.789062 63.488281 260.136719 61.859375 259.101562 C 60.125 257.988281 58.746094 256.53125 57.660156 255.03125 C 56.378906 253.273438 55.414062 251.40625 54.65625 249.625 C 53.769531 247.550781 53.109375 245.496094 52.597656 243.609375 C 51.410156 239.207031 50.894531 235.21875 50.667969 232.554688 C 50.539062 231.007812 50.5 229.789062 50.515625 228.9375 C 50.523438 228.496094 50.546875 228.15625 50.582031 227.921875 C 50.601562 227.804688 50.621094 227.714844 50.644531 227.652344 C 50.65625 227.621094 50.671875 227.597656 50.683594 227.582031 C 50.691406 227.574219 50.695312 227.566406 50.703125 227.5625 C 50.710938 227.558594 50.71875 227.558594 50.726562 227.558594 Z M 50.726562 227.558594 " fill-opacity="1" fill-rule="evenodd"/></g><path fill="#000000" d="M 70.808594 240.4375 L 72.746094 238.894531 L 74.851562 241.117188 L 73.542969 244.453125 C 73.503906 244.554688 73.523438 244.640625 73.605469 244.714844 L 79.113281 249.617188 C 79.175781 249.671875 79.25 249.6875 79.332031 249.667969 C 79.410156 249.644531 79.464844 249.59375 79.492188 249.511719 L 80.992188 244.75 L 84.703125 244.292969 L 87.042969 249.050781 C 87.074219 249.109375 87.121094 249.148438 87.1875 249.167969 C 87.25 249.1875 87.3125 249.179688 87.371094 249.148438 L 94.984375 244.742188 C 95.050781 244.699219 95.089844 244.640625 95.097656 244.558594 C 95.105469 244.480469 95.078125 244.414062 95.019531 244.359375 L 92.835938 242.484375 L 99.714844 241.851562 C 99.800781 241.84375 99.863281 241.804688 99.902344 241.726562 L 102.625 236.390625 C 102.664062 236.3125 102.660156 236.234375 102.617188 236.160156 C 102.570312 236.085938 102.503906 236.050781 102.417969 236.050781 L 67.789062 235.988281 C 67.691406 235.988281 67.625 236.03125 67.582031 236.113281 C 67.539062 236.199219 67.542969 236.28125 67.597656 236.355469 L 70.476562 240.390625 Z M 70.855469 240.121094 L 68.242188 236.457031 L 102.039062 236.515625 L 99.546875 241.398438 L 92.246094 242.070312 C 92.144531 242.082031 92.078125 242.132812 92.046875 242.234375 C 92.015625 242.332031 92.039062 242.414062 92.117188 242.480469 L 94.464844 244.5 L 87.351562 248.617188 L 85.046875 243.9375 C 85 243.839844 84.921875 243.796875 84.8125 243.808594 L 80.789062 244.308594 C 80.691406 244.320312 80.625 244.371094 80.59375 244.46875 L 79.15625 249.027344 L 74.035156 244.472656 L 75.339844 241.148438 C 75.375 241.054688 75.359375 240.972656 75.292969 240.902344 L 72.9375 238.417969 C 72.839844 238.316406 72.738281 238.308594 72.625 238.398438 L 70.523438 240.074219 Z M 70.855469 240.121094 " fill-opacity="1" fill-rule="evenodd"/><path fill="#000000" d="M 226.714844 157.566406 C 225.996094 158.09375 225.304688 158.621094 224.640625 159.152344 C 214.609375 160.644531 208.234375 162.558594 204.019531 164.71875 C 199.507812 167.03125 197.371094 169.675781 195.914062 172.554688 C 196.976562 169.523438 198.832031 166.433594 203.390625 163.605469 C 207.625 160.980469 214.101562 158.625 224.230469 156.714844 C 225.046875 156.996094 225.871094 157.277344 226.714844 157.566406 Z M 226.714844 157.566406 " fill-opacity="1" fill-rule="evenodd"/><path fill="#000000" d="M 302.359375 135.988281 L 301.085938 138.167969 L 305.195312 159.832031 C 283.066406 158.207031 262.0625 161.488281 240.078125 164.378906 C 262.578125 161.980469 283.820312 159.21875 306.136719 161.574219 C 306.257812 161.585938 306.378906 161.570312 306.496094 161.527344 C 306.613281 161.480469 306.71875 161.414062 306.804688 161.320312 C 306.890625 161.226562 306.953125 161.117188 306.996094 160.996094 C 307.035156 160.871094 307.046875 160.746094 307.03125 160.617188 L 304.234375 137.675781 Z M 302.359375 135.988281 " fill-opacity="1" fill-rule="evenodd"/><path fill="#000000" d="M 53.910156 221.160156 C 53.910156 220.398438 87.140625 219.828125 128.085938 219.890625 C 169.027344 219.953125 202.257812 220.625 202.253906 221.386719 C 202.253906 222.148438 169.023438 222.71875 128.078125 222.65625 C 87.136719 222.59375 53.90625 221.921875 53.910156 221.160156 Z M 53.910156 221.160156 " fill-opacity="1" fill-rule="evenodd"/><path fill="#000000" d="M 145.40625 190.5 L 143.117188 192.558594 L 76.660156 192.554688 L 73.402344 203.214844 L 148.578125 203.21875 L 72.484375 204.585938 C 72.378906 204.589844 72.28125 204.566406 72.191406 204.523438 C 72.097656 204.476562 72.019531 204.414062 71.953125 204.332031 C 71.886719 204.25 71.84375 204.15625 71.820312 204.050781 C 71.792969 203.945312 71.792969 203.839844 71.8125 203.734375 L 74.320312 190.847656 C 74.375 190.550781 74.527344 190.304688 74.777344 190.109375 C 75.023438 189.914062 75.308594 189.8125 75.632812 189.808594 L 143.074219 188.484375 Z M 145.40625 190.5 " fill-opacity="1" fill-rule="evenodd"/><path fill="#000000" d="M 188.214844 210.257812 C 188.214844 210.722656 188.167969 211.179688 188.074219 211.632812 C 187.984375 212.085938 187.847656 212.527344 187.667969 212.953125 C 187.492188 213.378906 187.269531 213.785156 187.011719 214.171875 C 186.75 214.554688 186.453125 214.910156 186.125 215.238281 C 185.792969 215.5625 185.433594 215.855469 185.042969 216.113281 C 184.652344 216.371094 184.242188 216.585938 183.808594 216.765625 C 183.375 216.941406 182.929688 217.074219 182.46875 217.164062 C 182.011719 217.253906 181.546875 217.300781 181.078125 217.300781 C 180.609375 217.300781 180.144531 217.253906 179.6875 217.164062 C 179.226562 217.074219 178.78125 216.941406 178.347656 216.765625 C 177.914062 216.585938 177.503906 216.371094 177.113281 216.113281 C 176.726562 215.855469 176.363281 215.5625 176.035156 215.238281 C 175.703125 214.910156 175.40625 214.554688 175.148438 214.171875 C 174.886719 213.785156 174.667969 213.378906 174.488281 212.953125 C 174.308594 212.527344 174.171875 212.085938 174.082031 211.632812 C 173.988281 211.179688 173.945312 210.722656 173.945312 210.257812 C 173.945312 209.796875 173.988281 209.339844 174.082031 208.886719 C 174.171875 208.429688 174.308594 207.992188 174.488281 207.5625 C 174.667969 207.136719 174.886719 206.730469 175.148438 206.347656 C 175.40625 205.960938 175.703125 205.605469 176.035156 205.28125 C 176.363281 204.953125 176.726562 204.660156 177.113281 204.402344 C 177.503906 204.148438 177.914062 203.929688 178.347656 203.753906 C 178.78125 203.578125 179.226562 203.441406 179.6875 203.351562 C 180.144531 203.261719 180.609375 203.21875 181.078125 203.21875 C 181.546875 203.21875 182.011719 203.261719 182.46875 203.351562 C 182.929688 203.441406 183.375 203.578125 183.808594 203.753906 C 184.242188 203.929688 184.652344 204.148438 185.042969 204.402344 C 185.433594 204.660156 185.792969 204.953125 186.125 205.28125 C 186.453125 205.605469 186.75 205.960938 187.011719 206.347656 C 187.269531 206.730469 187.492188 207.136719 187.667969 207.5625 C 187.847656 207.992188 187.984375 208.429688 188.074219 208.886719 C 188.167969 209.339844 188.214844 209.796875 188.214844 210.257812 Z M 188.214844 210.257812 " fill-opacity="1" fill-rule="nonzero"/><path fill="#000000" d="M 61.15625 210.257812 C 61.15625 210.675781 61.125 211.089844 61.054688 211.5 C 60.988281 211.910156 60.890625 212.304688 60.761719 212.691406 C 60.628906 213.078125 60.46875 213.445312 60.277344 213.792969 C 60.089844 214.140625 59.871094 214.460938 59.628906 214.753906 C 59.390625 215.050781 59.125 215.3125 58.839844 215.546875 C 58.558594 215.777344 58.257812 215.972656 57.941406 216.132812 C 57.625 216.292969 57.300781 216.414062 56.964844 216.496094 C 56.628906 216.578125 56.289062 216.617188 55.949219 216.617188 C 55.605469 216.617188 55.265625 216.578125 54.929688 216.496094 C 54.59375 216.414062 54.269531 216.292969 53.953125 216.132812 C 53.636719 215.972656 53.335938 215.777344 53.054688 215.546875 C 52.769531 215.3125 52.503906 215.050781 52.265625 214.753906 C 52.023438 214.460938 51.804688 214.140625 51.617188 213.792969 C 51.425781 213.445312 51.265625 213.078125 51.132812 212.691406 C 51.003906 212.304688 50.90625 211.910156 50.839844 211.5 C 50.769531 211.089844 50.738281 210.675781 50.738281 210.257812 C 50.738281 209.839844 50.769531 209.425781 50.839844 209.019531 C 50.90625 208.609375 51.003906 208.210938 51.132812 207.824219 C 51.265625 207.4375 51.425781 207.074219 51.617188 206.726562 C 51.804688 206.378906 52.023438 206.058594 52.265625 205.761719 C 52.503906 205.464844 52.769531 205.203125 53.054688 204.972656 C 53.335938 204.738281 53.636719 204.542969 53.953125 204.382812 C 54.269531 204.222656 54.59375 204.101562 54.929688 204.019531 C 55.265625 203.941406 55.605469 203.898438 55.949219 203.898438 C 56.289062 203.898438 56.628906 203.941406 56.964844 204.019531 C 57.300781 204.101562 57.625 204.222656 57.941406 204.382812 C 58.257812 204.542969 58.558594 204.738281 58.839844 204.972656 C 59.125 205.203125 59.390625 205.464844 59.628906 205.761719 C 59.871094 206.058594 60.089844 206.378906 60.277344 206.726562 C 60.46875 207.074219 60.628906 207.4375 60.761719 207.824219 C 60.890625 208.210938 60.988281 208.609375 61.054688 209.019531 C 61.125 209.425781 61.15625 209.839844 61.15625 210.257812 Z M 61.15625 210.257812 " fill-opacity="1" fill-rule="nonzero"/><path fill="#000000" d="M 246.871094 226.839844 C 246.894531 226.078125 256.90625 225.761719 269.222656 226.140625 C 281.535156 226.515625 291.511719 227.441406 291.488281 228.203125 C 291.464844 228.964844 281.453125 229.277344 269.136719 228.902344 C 256.824219 228.527344 246.847656 227.601562 246.871094 226.839844 Z M 246.871094 226.839844 " fill-opacity="1" fill-rule="evenodd"/></svg>