<svg xmlns="http://www.w3.org/2000/svg" xmlns:xlink="http://www.w3.org/1999/xlink" width="500" zoomAndPan="magnify" viewBox="0 0 375 374.999991" height="500" preserveAspectRatio="xMidYMid meet" version="1.0"><defs><clipPath id="6d35c5a609"><path d="M 82 112.507812 L 296 112.507812 L 296 262 L 82 262 Z M 82 112.507812 " clip-rule="nonzero"/></clipPath></defs><path fill="#ffa624" d="M 309.535156 157.96875 C 314.839844 157.917969 314.804688 181.363281 311.339844 181.414062 C 296.4375 181.636719 133.492188 183.804688 69.730469 184.757812 C 66.699219 184.804688 60.496094 163.949219 67.765625 162.136719 C 73.636719 160.675781 290.871094 158.152344 309.535156 157.96875 Z M 309.691406 235.050781 C 314.996094 235.03125 314.640625 211.585938 311.171875 211.582031 C 296.273438 211.5625 133.308594 211.617188 69.542969 211.527344 C 66.507812 211.523438 60.589844 232.460938 67.886719 234.175781 C 73.777344 235.558594 291.023438 235.121094 309.691406 235.050781 Z M 309.691406 235.050781 " fill-opacity="1" fill-rule="nonzero"/><g clip-path="url(#6d35c5a609)"><path fill="#ca5b0a" d="M 83.769531 139.183594 C 86.199219 130.460938 99.878906 112.589844 101.082031 112.546875 C 102.136719 112.507812 103.035156 113.398438 103.820312 114.238281 C 107.011719 117.652344 118.132812 131.378906 119.882812 135.980469 C 121.835938 141.125 119.933594 231.320312 119.152344 254.902344 C 119.074219 257.191406 118.878906 259.773438 117.375 261.210938 C 116.109375 262.417969 83.035156 262.191406 82.765625 259.640625 C 82.339844 255.679688 81.632812 146.863281 83.769531 139.183594 Z M 234.824219 139.183594 C 232.398438 130.460938 218.714844 112.589844 217.515625 112.546875 C 216.457031 112.507812 215.558594 113.398438 214.773438 114.238281 C 211.582031 117.652344 200.460938 131.378906 198.714844 135.980469 C 196.757812 141.125 198.660156 231.320312 199.445312 254.902344 C 199.519531 257.191406 199.714844 259.773438 201.21875 261.210938 C 202.488281 262.417969 235.558594 262.191406 235.832031 259.640625 C 236.253906 255.679688 236.960938 146.863281 234.824219 139.183594 Z M 140.574219 259.640625 C 140.84375 262.191406 174.117188 260.988281 175.382812 259.78125 C 176.886719 258.347656 177.082031 255.765625 177.160156 253.476562 C 177.941406 229.894531 179.644531 141.125 177.691406 135.980469 C 175.941406 131.378906 164.820312 117.652344 161.628906 114.238281 C 160.84375 113.398438 159.945312 112.507812 158.890625 112.546875 C 157.6875 112.589844 144.007812 130.460938 141.578125 139.183594 C 139.441406 146.863281 140.148438 255.679688 140.574219 259.640625 Z M 293.785156 139.183594 C 291.359375 130.460938 277.679688 112.589844 276.476562 112.546875 C 275.421875 112.507812 274.523438 113.398438 273.738281 114.238281 C 270.546875 117.652344 259.421875 131.378906 257.675781 135.980469 C 255.722656 141.125 257.425781 229.894531 258.207031 253.476562 C 258.28125 255.765625 258.476562 258.347656 259.984375 259.78125 C 261.25 260.988281 294.519531 262.191406 294.792969 259.640625 C 295.214844 255.679688 295.925781 146.863281 293.785156 139.183594 Z M 293.785156 139.183594 " fill-opacity="1" fill-rule="nonzero"/></g><path fill="#9b3118" d="M 88.003906 253.265625 C 87.433594 253.265625 86.96875 252.808594 86.964844 252.238281 L 86.402344 193.871094 C 86.398438 193.296875 86.855469 192.828125 87.433594 192.824219 C 87.984375 192.777344 88.476562 193.277344 88.480469 193.851562 L 89.042969 252.21875 C 89.046875 252.792969 88.585938 253.261719 88.011719 253.265625 C 88.007812 253.265625 88.003906 253.265625 88.003906 253.265625 Z M 88.75 181.019531 L 88.925781 169.589844 C 88.933594 169.015625 88.476562 168.542969 87.902344 168.535156 C 87.898438 168.535156 87.890625 168.535156 87.886719 168.535156 C 87.320312 168.535156 86.855469 168.988281 86.847656 169.558594 L 86.671875 180.988281 C 86.664062 181.558594 87.121094 182.03125 87.695312 182.039062 C 87.699219 182.039062 87.707031 182.039062 87.710938 182.039062 C 88.277344 182.039062 88.742188 181.585938 88.75 181.019531 Z M 146.664062 253.679688 C 147.238281 253.675781 147.699219 253.207031 147.695312 252.632812 L 147.300781 194.46875 C 147.296875 193.894531 146.835938 193.4375 146.261719 193.4375 C 146.261719 193.4375 146.257812 193.4375 146.257812 193.4375 C 145.683594 193.441406 145.21875 193.90625 145.222656 194.480469 L 145.617188 252.648438 C 145.621094 253.21875 146.085938 253.679688 146.65625 253.679688 C 146.660156 253.679688 146.660156 253.679688 146.664062 253.679688 Z M 147.03125 181.820312 L 147.03125 176.105469 C 147.03125 175.53125 146.5625 175.066406 145.992188 175.066406 C 145.417969 175.066406 144.949219 175.53125 144.949219 176.105469 L 144.949219 181.820312 C 144.949219 182.394531 145.417969 182.859375 145.992188 182.859375 C 146.5625 182.859375 147.03125 182.394531 147.03125 181.820312 Z M 206 256.738281 C 206.574219 256.734375 207.035156 256.261719 207.03125 255.691406 L 206.421875 196.703125 C 206.414062 196.132812 205.859375 195.722656 205.371094 195.675781 C 204.796875 195.683594 204.335938 196.152344 204.34375 196.726562 L 204.953125 255.710938 C 204.957031 256.28125 205.421875 256.738281 205.992188 256.738281 C 205.992188 256.738281 206 256.738281 206 256.738281 Z M 205.707031 188.777344 C 206.273438 188.703125 206.675781 188.183594 206.601562 187.613281 C 206.203125 184.578125 206.105469 181.484375 206.316406 178.421875 C 206.355469 177.851562 205.921875 177.355469 205.351562 177.316406 C 204.691406 177.273438 204.285156 177.710938 204.242188 178.28125 C 204.023438 181.480469 204.125 184.710938 204.539062 187.882812 C 204.609375 188.40625 205.058594 188.789062 205.570312 188.789062 C 205.613281 188.789062 205.660156 188.785156 205.707031 188.777344 Z M 265.125 251.632812 C 265.699219 251.625 266.160156 251.15625 266.152344 250.582031 L 265.46875 199.96875 C 265.460938 199.394531 265.035156 199.019531 264.417969 198.945312 C 263.84375 198.953125 263.382812 199.421875 263.390625 199.996094 L 264.074219 250.609375 C 264.082031 251.179688 264.546875 251.632812 265.113281 251.632812 C 265.117188 251.632812 265.121094 251.632812 265.125 251.632812 Z M 264.097656 192.859375 C 264.667969 192.84375 265.121094 192.367188 265.109375 191.796875 L 264.90625 183.632812 C 264.890625 183.066406 264.429688 182.621094 263.867188 182.621094 C 263.859375 182.621094 263.851562 182.621094 263.839844 182.621094 C 263.265625 182.636719 262.8125 183.109375 262.828125 183.683594 L 263.03125 191.847656 C 263.042969 192.410156 263.507812 192.859375 264.070312 192.859375 C 264.078125 192.859375 264.085938 192.859375 264.097656 192.859375 Z M 264.097656 192.859375 " fill-opacity="1" fill-rule="nonzero"/></svg>