<svg xmlns="http://www.w3.org/2000/svg" xmlns:xlink="http://www.w3.org/1999/xlink" width="500" zoomAndPan="magnify" viewBox="0 0 375 374.999991" height="500" preserveAspectRatio="xMidYMid meet" version="1.0"><defs><clipPath id="b6e05d2f22"><path d="M 109 75 L 266 75 L 266 299.867188 L 109 299.867188 Z M 109 75 " clip-rule="nonzero"/></clipPath><clipPath id="f8a9c2712c"><path d="M 108.453125 75 L 266.703125 75 L 266.703125 299.867188 L 108.453125 299.867188 Z M 108.453125 75 " clip-rule="nonzero"/></clipPath></defs><g clip-path="url(#b6e05d2f22)"><path fill="#c6b6ff" d="M 265.039062 109.996094 C 265.023438 109.988281 265.007812 109.988281 264.988281 109.980469 L 245 98.632812 C 243.589844 97.816406 241.871094 98.640625 241.519531 100.121094 L 241.234375 98.691406 L 242.113281 98.136719 C 242.960938 97.65625 242.972656 96.441406 242.136719 95.949219 L 228.03125 87.542969 C 227.320312 87.121094 226.441406 87.113281 225.734375 87.53125 L 206.15625 76.195312 C 204.578125 75.285156 202.609375 76.421875 202.609375 78.242188 L 202.609375 78.484375 C 202.609375 79.328125 203.058594 80.109375 203.789062 80.53125 L 221.238281 90.742188 L 218.757812 102.617188 C 218.308594 104.785156 218.265625 107.019531 218.640625 109.199219 L 220.078125 117.53125 L 220.804688 121.011719 C 220.914062 121.632812 221.285156 122.171875 221.832031 122.484375 L 187.515625 226.710938 L 182.671875 223.921875 C 181.640625 223.328125 180.371094 223.339844 179.347656 223.941406 L 178.933594 224.183594 C 181.328125 219.054688 181.089844 213.933594 178.125 212.105469 L 172.734375 209.035156 C 169.351562 206.941406 163.6875 209.929688 160.089844 215.71875 C 159.800781 216.183594 159.539062 216.65625 159.296875 217.128906 L 158.476562 217.757812 C 157.671875 217.6875 156.859375 217.644531 156.019531 217.644531 C 146.476562 217.644531 138.746094 222.144531 138.746094 227.703125 L 138.746094 240.523438 C 122.871094 244.101562 111.304688 252.46875 109.65625 262.457031 L 109.441406 262.449219 L 109.441406 272.742188 C 109.441406 287.25 130.296875 299.007812 156.023438 299.007812 C 181.75 299.007812 202.605469 287.25 202.605469 272.742188 L 202.605469 264.929688 C 202.605469 260.957031 201.042969 257.1875 198.242188 253.816406 L 200.972656 252.265625 C 201.371094 253.347656 202.015625 254.214844 202.921875 254.777344 L 208.3125 257.847656 C 211.695312 259.941406 217.363281 256.949219 220.957031 251.164062 C 224.558594 245.375 224.730469 238.984375 221.34375 236.882812 L 215.957031 233.816406 C 213.277344 232.160156 209.183594 233.691406 205.808594 237.257812 L 192.90625 229.976562 L 226.832031 125.03125 C 226.929688 125.082031 226.992188 125.113281 226.992188 125.113281 C 229.390625 126.328125 231.59375 122.613281 233.003906 121.207031 C 236.605469 117.625 239.207031 113.167969 240.550781 108.273438 L 241.292969 105.558594 C 241.433594 105.054688 241.882812 103.074219 241.996094 102.5625 L 241.964844 102.40625 C 242.144531 102.628906 242.371094 102.828125 242.628906 102.976562 L 262.347656 114.308594 L 262.351562 114.304688 C 262.355469 114.304688 262.355469 114.308594 262.359375 114.308594 C 262.972656 114.6875 264.0625 114.03125 264.804688 112.84375 C 265.542969 111.65625 265.652344 110.375 265.039062 109.996094 Z M 187.46875 226.832031 L 187.375 226.773438 L 187.484375 226.796875 Z M 187.46875 226.832031 " fill-opacity="1" fill-rule="nonzero"/></g><path fill="#63cdda" d="M 173.289062 227.699219 C 173.289062 233.253906 165.554688 237.761719 156.019531 237.761719 C 146.480469 237.761719 138.746094 233.253906 138.746094 227.699219 C 138.746094 222.144531 146.480469 217.640625 156.019531 217.640625 C 165.554688 217.640625 173.289062 222.144531 173.289062 227.699219 Z M 173.289062 227.699219 " fill-opacity="1" fill-rule="nonzero"/><g clip-path="url(#f8a9c2712c)"><path fill="#282a29" d="M 164.546875 225.429688 C 164.546875 225.035156 164.867188 224.714844 165.261719 224.714844 C 165.660156 224.714844 165.980469 225.035156 165.980469 225.429688 C 165.980469 225.824219 165.660156 226.144531 165.261719 226.144531 C 164.867188 226.144531 164.546875 225.824219 164.546875 225.429688 Z M 165.261719 233.121094 C 165.660156 233.121094 165.980469 232.800781 165.980469 232.40625 C 165.980469 232.007812 165.660156 231.691406 165.261719 231.691406 C 164.867188 231.691406 164.546875 232.007812 164.546875 232.40625 C 164.546875 232.800781 164.867188 233.121094 165.261719 233.121094 Z M 158.269531 226.144531 C 158.664062 226.144531 158.984375 225.824219 158.984375 225.429688 C 158.984375 225.035156 158.664062 224.714844 158.269531 224.714844 C 157.871094 224.714844 157.550781 225.035156 157.550781 225.429688 C 157.554688 225.824219 157.875 226.144531 158.269531 226.144531 Z M 158.269531 233.121094 C 158.664062 233.121094 158.984375 232.800781 158.984375 232.40625 C 158.984375 232.007812 158.664062 231.691406 158.269531 231.691406 C 157.871094 231.691406 157.550781 232.007812 157.550781 232.40625 C 157.550781 232.800781 157.871094 233.121094 158.269531 233.121094 Z M 151.277344 226.144531 C 151.675781 226.144531 151.996094 225.824219 151.996094 225.429688 C 151.996094 225.035156 151.675781 224.714844 151.277344 224.714844 C 150.882812 224.714844 150.5625 225.035156 150.5625 225.429688 C 150.5625 225.824219 150.882812 226.144531 151.277344 226.144531 Z M 151.277344 233.121094 C 151.675781 233.121094 151.996094 232.800781 151.996094 232.40625 C 151.996094 232.007812 151.675781 231.691406 151.277344 231.691406 C 150.882812 231.691406 150.5625 232.007812 150.5625 232.40625 C 150.5625 232.800781 150.882812 233.121094 151.277344 233.121094 Z M 144.289062 226.144531 C 144.683594 226.144531 145.003906 225.824219 145.003906 225.429688 C 145.003906 225.035156 144.683594 224.714844 144.289062 224.714844 C 143.890625 224.714844 143.570312 225.035156 143.570312 225.429688 C 143.570312 225.824219 143.890625 226.144531 144.289062 226.144531 Z M 144.289062 233.121094 C 144.683594 233.121094 145.003906 232.800781 145.003906 232.40625 C 145.003906 232.007812 144.683594 231.691406 144.289062 231.691406 C 143.890625 231.691406 143.570312 232.007812 143.570312 232.40625 C 143.570312 232.800781 143.890625 233.121094 144.289062 233.121094 Z M 208.847656 250.527344 C 209.035156 248.792969 209.78125 246.808594 210.9375 244.949219 C 213.53125 240.777344 217.152344 238.671875 219.371094 240.046875 C 220.511719 240.75 221.019531 242.21875 220.804688 244.179688 C 220.617188 245.914062 219.871094 247.898438 218.714844 249.757812 C 217.554688 251.621094 216.109375 253.167969 214.632812 254.109375 C 213.625 254.757812 212.660156 255.078125 211.804688 255.078125 C 211.246094 255.078125 210.730469 254.941406 210.28125 254.660156 C 209.140625 253.949219 208.632812 252.484375 208.847656 250.527344 Z M 211.203125 253.183594 C 211.726562 253.507812 212.660156 253.304688 213.695312 252.640625 C 214.953125 251.835938 216.210938 250.488281 217.234375 248.84375 C 218.261719 247.195312 218.917969 245.472656 219.078125 243.988281 C 219.214844 242.765625 218.980469 241.84375 218.457031 241.519531 C 218.285156 241.414062 218.078125 241.363281 217.839844 241.363281 C 216.492188 241.363281 214.183594 243.023438 212.421875 245.859375 C 211.394531 247.507812 210.742188 249.230469 210.578125 250.714844 C 210.441406 251.9375 210.675781 252.859375 211.203125 253.183594 Z M 265.546875 113.289062 C 264.761719 114.546875 263.699219 115.277344 262.765625 115.277344 C 262.464844 115.277344 262.179688 115.199219 261.917969 115.042969 L 261.914062 115.050781 L 242.574219 103.9375 C 242.40625 104.652344 242.21875 105.460938 242.132812 105.773438 L 241.390625 108.484375 C 240.003906 113.519531 237.320312 118.125 233.617188 121.808594 C 233.351562 122.074219 233.027344 122.460938 232.691406 122.863281 C 231.53125 124.253906 229.890625 126.214844 227.964844 126.214844 C 227.800781 126.214844 227.628906 126.191406 227.457031 126.160156 L 193.699219 229.269531 L 205.648438 236.152344 C 206.796875 235.023438 208.03125 234.089844 209.300781 233.421875 C 211.980469 232.007812 214.503906 231.882812 216.414062 233.066406 L 221.777344 236.121094 C 221.789062 236.125 221.796875 236.128906 221.804688 236.132812 C 225.65625 238.519531 225.609375 245.316406 221.695312 251.609375 C 218.683594 256.453125 214.382812 259.378906 210.804688 259.378906 C 209.75 259.378906 208.757812 259.121094 207.878906 258.585938 L 202.484375 255.519531 C 201.640625 255 200.980469 254.253906 200.503906 253.339844 L 199.453125 253.960938 C 202.109375 257.410156 203.46875 261.089844 203.46875 264.921875 L 203.46875 272.730469 C 203.46875 287.695312 182.183594 299.867188 156.019531 299.867188 C 129.855469 299.867188 108.566406 287.695312 108.566406 272.730469 L 108.566406 264.921875 C 108.566406 253.824219 120.046875 244.027344 137.875 239.835938 L 137.875 227.703125 C 137.875 221.574219 145.84375 216.777344 156.015625 216.777344 C 156.839844 216.777344 157.652344 216.808594 158.445312 216.871094 C 158.722656 216.320312 159.019531 215.78125 159.34375 215.261719 C 161.167969 212.332031 163.558594 209.984375 166.082031 208.648438 C 168.757812 207.238281 171.285156 207.113281 173.195312 208.292969 L 178.558594 211.347656 C 178.570312 211.351562 178.578125 211.355469 178.585938 211.363281 C 181.542969 213.191406 182.238281 217.671875 180.492188 222.644531 C 181.386719 222.527344 182.300781 222.699219 183.101562 223.164062 L 187.339844 225.605469 L 220.980469 122.925781 C 220.425781 122.46875 220.0625 121.851562 219.9375 121.15625 L 219.222656 117.707031 L 219.226562 117.707031 C 219.222656 117.695312 219.21875 117.6875 219.21875 117.679688 L 217.785156 109.347656 C 217.386719 107.046875 217.429688 104.722656 217.90625 102.4375 L 220.257812 91.175781 L 203.351562 81.273438 C 202.363281 80.703125 201.738281 79.632812 201.738281 78.480469 L 201.738281 78.238281 C 201.738281 77.066406 202.34375 76.023438 203.359375 75.441406 C 204.371094 74.855469 205.578125 74.855469 206.59375 75.441406 L 225.785156 86.558594 C 226.667969 86.230469 227.65625 86.304688 228.476562 86.796875 L 242.582031 95.199219 C 243.246094 95.597656 243.636719 96.289062 243.628906 97.058594 C 243.628906 97.199219 243.601562 97.328125 243.574219 97.457031 C 244.210938 97.410156 244.855469 97.542969 245.4375 97.882812 L 265.433594 109.226562 C 265.453125 109.238281 265.476562 109.242188 265.496094 109.253906 C 266.546875 109.90625 266.570312 111.644531 265.546875 113.289062 Z M 208.761719 257.09375 C 211.683594 258.902344 216.925781 255.96875 220.210938 250.691406 C 223.496094 245.410156 223.800781 239.425781 220.882812 237.613281 L 220.871094 237.609375 C 220.289062 237.25 219.609375 237.066406 218.859375 237.066406 C 217.847656 237.066406 216.707031 237.390625 215.503906 238.027344 C 213.25 239.21875 211.097656 241.34375 209.433594 244.015625 C 206.152344 249.296875 205.84375 255.285156 208.761719 257.09375 Z M 220.914062 89.550781 C 221.078125 89.363281 221.28125 89.210938 221.507812 89.089844 L 221.5 89.074219 L 224.027344 87.550781 L 205.71875 76.945312 C 205.253906 76.675781 204.695312 76.675781 204.226562 76.945312 C 203.757812 77.214844 203.480469 77.699219 203.480469 78.238281 L 203.480469 78.484375 C 203.480469 79.015625 203.769531 79.511719 204.226562 79.773438 Z M 179.789062 224.683594 L 179.429688 224.894531 L 186.277344 228.839844 L 186.785156 227.292969 L 182.234375 224.667969 C 181.476562 224.234375 180.542969 224.242188 179.789062 224.683594 Z M 174.164062 255.625 L 174.164062 256.351562 L 185.441406 249.855469 C 186.023438 249.519531 186.382812 248.894531 186.382812 248.226562 L 186.382812 231.65625 C 186.382812 231.320312 186.160156 231.148438 186.058594 231.089844 C 185.996094 231.054688 185.875 230.996094 185.722656 230.996094 C 185.621094 230.996094 185.515625 231.019531 185.402344 231.082031 L 174.5 237.164062 C 174.292969 237.273438 174.160156 237.496094 174.160156 237.734375 L 174.160156 255.625 Z M 172.902344 223.636719 C 173.714844 224.886719 174.160156 226.253906 174.160156 227.695312 L 174.160156 235.359375 L 184.300781 229.707031 L 174.042969 223.796875 C 173.695312 223.597656 173.285156 223.542969 172.902344 223.636719 Z M 174.917969 222.300781 L 174.957031 222.320312 C 176.214844 219.527344 176.125 217.300781 175.242188 216.753906 C 174.1875 216.097656 171.671875 217.53125 169.652344 220.417969 C 170.460938 220.96875 171.171875 221.570312 171.78125 222.214844 C 172.769531 221.714844 173.953125 221.738281 174.917969 222.300781 Z M 166.550781 218.746094 C 167.113281 218.984375 167.652344 219.242188 168.160156 219.515625 C 170.707031 215.792969 174.0625 213.980469 176.15625 215.273438 C 178.027344 216.429688 178.132812 219.625 176.472656 223.191406 L 177.707031 223.898438 L 178.253906 223.578125 C 180.375 218.863281 180.152344 214.375 177.675781 212.839844 L 177.667969 212.835938 C 176.300781 211.996094 174.394531 212.144531 172.292969 213.253906 C 170.179688 214.371094 168.160156 216.3125 166.550781 218.746094 Z M 139.621094 227.695312 C 139.621094 232.765625 146.984375 236.886719 156.023438 236.886719 C 165.066406 236.886719 172.425781 232.765625 172.425781 227.695312 C 172.425781 227.160156 172.339844 226.640625 172.183594 226.125 C 171.820312 226.085938 171.542969 225.796875 171.542969 225.429688 C 171.542969 225.261719 171.605469 225.117188 171.699219 224.996094 C 169.914062 221.753906 165.003906 219.273438 158.945312 218.65625 C 158.855469 218.949219 158.59375 219.164062 158.269531 219.164062 C 157.90625 219.164062 157.625 218.894531 157.574219 218.546875 C 157.058594 218.519531 156.542969 218.507812 156.019531 218.507812 C 154.59375 218.507812 153.210938 218.613281 151.890625 218.804688 C 151.765625 219.019531 151.542969 219.167969 151.277344 219.167969 C 151.097656 219.167969 150.941406 219.09375 150.8125 218.984375 C 144.3125 220.207031 139.617188 223.648438 139.621094 227.695312 Z M 156.019531 238.625 C 148.757812 238.625 142.625 236.179688 139.703125 232.554688 C 140.558594 237.175781 147.546875 240.792969 156.019531 240.792969 C 164.492188 240.792969 171.484375 237.175781 172.335938 232.554688 C 169.414062 236.183594 163.28125 238.625 156.019531 238.625 Z M 139.617188 255.625 C 139.617188 260.691406 146.976562 264.816406 156.019531 264.816406 C 165.0625 264.816406 172.421875 260.691406 172.421875 255.625 L 172.421875 236.347656 C 169.535156 240.035156 163.351562 242.527344 156.019531 242.527344 C 148.6875 242.527344 142.503906 240.035156 139.617188 236.347656 Z M 201.730469 272.183594 C 196.160156 283.628906 177.785156 292.058594 156.019531 292.058594 C 134.253906 292.058594 115.878906 283.628906 110.308594 272.183594 L 110.308594 272.730469 C 110.308594 286.738281 130.816406 298.132812 156.019531 298.132812 C 181.222656 298.132812 201.730469 286.738281 201.730469 272.730469 Z M 197.941406 254.851562 L 194.335938 256.976562 C 196.277344 259.433594 197.269531 262.042969 197.269531 264.746094 C 197.269531 276.21875 178.761719 285.554688 156.015625 285.554688 C 133.265625 285.554688 114.761719 276.21875 114.761719 264.746094 C 114.761719 256.667969 123.605469 249.527344 137.875 246.03125 L 137.875 241.613281 C 121.339844 245.621094 110.308594 254.898438 110.308594 264.921875 C 110.308594 278.925781 130.816406 290.320312 156.019531 290.320312 C 181.222656 290.320312 201.730469 278.925781 201.730469 264.921875 C 201.730469 261.421875 200.445312 258.035156 197.941406 254.851562 Z M 131.730469 256.515625 C 131.730469 253.101562 133.5 250.042969 136.464844 248.335938 L 136.886719 248.082031 C 124.4375 251.445312 116.503906 257.871094 116.503906 264.746094 C 116.503906 275.265625 134.230469 283.816406 156.019531 283.816406 C 177.808594 283.816406 195.535156 275.257812 195.535156 264.746094 C 195.535156 262.378906 194.613281 260.066406 192.824219 257.867188 L 165.046875 274.246094 C 162.109375 275.941406 158.8125 276.789062 155.523438 276.789062 C 152.234375 276.789062 148.949219 275.941406 146.011719 274.25 L 136.464844 268.746094 C 133.675781 267.140625 131.960938 264.390625 131.75 261.195312 L 131.75 257.085938 C 131.734375 256.898438 131.730469 256.703125 131.730469 256.515625 Z M 199.890625 251.679688 C 199.753906 251.101562 199.660156 250.476562 199.636719 249.804688 L 165.046875 270.191406 C 162.515625 271.648438 159.71875 272.476562 156.890625 272.679688 L 156.890625 274.992188 C 159.414062 274.796875 161.910156 274.054688 164.167969 272.75 Z M 193.144531 230.957031 L 188.140625 246.234375 L 188.125 246.230469 L 188.125 248.226562 C 188.125 249.515625 187.429688 250.71875 186.3125 251.359375 L 174.625 258.09375 C 174.394531 258.222656 174.140625 258.292969 173.890625 258.292969 C 173.808594 258.292969 173.730469 258.273438 173.652344 258.257812 C 171.746094 263.070312 164.6875 266.550781 156.023438 266.550781 C 145.851562 266.550781 137.882812 261.753906 137.882812 255.625 L 137.882812 249.511719 L 137.347656 249.828125 C 134.917969 251.222656 133.476562 253.71875 133.476562 256.503906 C 133.476562 259.292969 134.917969 261.789062 137.335938 263.183594 L 146.886719 268.6875 C 152.21875 271.761719 158.839844 271.761719 164.171875 268.6875 L 199.71875 247.734375 C 200.019531 245.226562 201.003906 242.535156 202.5625 240.027344 C 203.136719 239.109375 203.769531 238.253906 204.4375 237.464844 Z M 225.84375 125.492188 C 224.96875 125.046875 223.527344 124.3125 222.527344 123.808594 L 187.65625 230.230469 C 187.957031 230.632812 188.125 231.128906 188.125 231.652344 L 188.125 240.703125 Z M 229.996094 118.09375 C 232.738281 115.246094 235.328125 112.550781 236.234375 108.71875 L 238.445312 100.054688 C 238.492188 99.863281 238.40625 99.65625 238.234375 99.550781 L 222.847656 90.636719 C 222.734375 90.5625 222.628906 90.542969 222.550781 90.542969 C 222.472656 90.542969 222.410156 90.558594 222.367188 90.578125 C 222.28125 90.617188 222.128906 90.707031 222.085938 90.925781 L 219.605469 102.796875 C 219.171875 104.867188 219.136719 106.976562 219.496094 109.058594 L 220.929688 117.363281 L 220.933594 117.390625 C 221 117.75 221.21875 118.066406 221.539062 118.25 L 226.078125 120.863281 C 226.59375 121.160156 227.25 121.050781 227.640625 120.605469 C 228.410156 119.742188 229.214844 118.902344 229.996094 118.09375 Z M 241.082031 102.644531 C 240.761719 102.136719 240.578125 101.542969 240.578125 100.921875 L 240.578125 100.679688 C 240.578125 100.476562 240.601562 100.28125 240.636719 100.089844 L 240.148438 100.394531 C 240.144531 100.417969 240.144531 100.441406 240.140625 100.460938 L 237.925781 109.128906 C 236.917969 113.410156 234.039062 116.402344 231.253906 119.292969 C 230.480469 120.089844 229.6875 120.917969 228.949219 121.753906 C 228.84375 121.871094 228.726562 121.964844 228.609375 122.0625 L 229.078125 124.050781 C 229.796875 123.566406 230.554688 122.710938 231.355469 121.75 C 231.726562 121.308594 232.066406 120.894531 232.394531 120.574219 C 235.882812 117.101562 238.410156 112.761719 239.710938 108.023438 L 240.457031 105.3125 C 240.570312 104.902344 240.914062 103.386719 241.082031 102.644531 Z M 241.890625 97.042969 C 241.894531 96.960938 241.867188 96.800781 241.695312 96.699219 L 227.589844 88.292969 C 227.15625 88.03125 226.613281 88.027344 226.175781 88.285156 L 224.257812 89.441406 L 239.144531 98.0625 C 239.378906 98.210938 239.574219 98.398438 239.734375 98.605469 L 241.65625 97.40625 C 241.859375 97.289062 241.882812 97.128906 241.890625 97.042969 Z M 262.890625 109.789062 L 244.566406 99.390625 C 244.09375 99.117188 243.535156 99.117188 243.066406 99.386719 C 242.597656 99.65625 242.316406 100.140625 242.316406 100.679688 L 242.316406 100.921875 C 242.316406 101.453125 242.605469 101.945312 243.066406 102.210938 L 261.183594 112.625 C 261.296875 112.089844 261.53125 111.53125 261.855469 111.003906 C 262.164062 110.507812 262.519531 110.105469 262.890625 109.789062 Z M 264.550781 110.765625 C 264.316406 110.832031 263.792969 111.175781 263.328125 111.917969 C 262.871094 112.664062 262.796875 113.28125 262.84375 113.523438 C 263.082031 113.457031 263.605469 113.113281 264.070312 112.371094 C 264.527344 111.628906 264.601562 111.007812 264.550781 110.765625 Z M 264.550781 110.765625 " fill-opacity="1" fill-rule="nonzero"/></g></svg>