<svg xmlns="http://www.w3.org/2000/svg" xmlns:xlink="http://www.w3.org/1999/xlink" width="500" zoomAndPan="magnify" viewBox="0 0 375 374.999991" height="500" preserveAspectRatio="xMidYMid meet" version="1.0"><defs><clipPath id="bba2d37756"><path d="M 67.382812 91.1875 L 307 91.1875 L 307 283.9375 L 67.382812 283.9375 Z M 67.382812 91.1875 " clip-rule="nonzero"/></clipPath></defs><path fill="#000000" d="M 135.265625 171.378906 L 167.882812 171.378906 C 168.933594 171.378906 169.785156 170.527344 169.785156 169.476562 L 169.785156 136.804688 C 169.785156 135.753906 168.933594 134.902344 167.882812 134.902344 L 135.265625 134.902344 C 134.214844 134.902344 133.363281 135.753906 133.363281 136.804688 L 133.363281 169.476562 C 133.363281 170.527344 134.214844 171.378906 135.265625 171.378906 Z M 137.164062 138.707031 L 165.984375 138.707031 L 165.984375 167.574219 L 137.164062 167.574219 Z M 137.164062 138.707031 " fill-opacity="1" fill-rule="nonzero"/><path fill="#000000" d="M 161.308594 141.488281 L 141.835938 141.488281 C 140.789062 141.488281 139.9375 142.339844 139.9375 143.390625 L 139.9375 162.890625 C 139.9375 163.941406 140.789062 164.792969 141.835938 164.792969 L 161.308594 164.792969 C 162.355469 164.792969 163.207031 163.941406 163.207031 162.890625 L 163.207031 143.390625 C 163.207031 142.339844 162.355469 141.488281 161.308594 141.488281 Z M 159.40625 160.988281 L 143.738281 160.988281 L 143.738281 145.292969 L 159.40625 145.292969 Z M 159.40625 160.988281 " fill-opacity="1" fill-rule="nonzero"/><g clip-path="url(#bba2d37756)"><path fill="#000000" d="M 299.835938 269.707031 L 298.902344 269.707031 L 298.902344 184.496094 C 301.785156 183.945312 304.238281 182.167969 305.660156 179.476562 C 307.386719 176.207031 307.183594 172.429688 305.105469 169.371094 L 274.011719 123.507812 C 273.660156 122.984375 273.070312 122.671875 272.441406 122.671875 L 182.558594 122.671875 L 160.527344 95.523438 C 158.324219 92.8125 155.0625 91.257812 151.570312 91.257812 C 148.082031 91.257812 144.820312 92.8125 142.617188 95.523438 L 72.769531 181.59375 C 70.996094 183.777344 70.644531 186.714844 71.851562 189.261719 C 73.0625 191.804688 75.5625 193.386719 78.371094 193.386719 C 79.144531 193.386719 79.886719 193.222656 80.601562 192.988281 L 80.601562 269.707031 L 74.363281 269.707031 C 70.511719 269.707031 67.382812 272.84375 67.382812 276.816406 C 67.382812 280.671875 70.511719 283.804688 74.363281 283.804688 L 299.835938 283.804688 C 303.683594 283.804688 306.8125 280.671875 306.8125 276.699219 C 306.8125 272.84375 303.683594 269.707031 299.835938 269.707031 Z M 222.542969 269.707031 L 222.542969 192.988281 C 223.257812 193.222656 224 193.386719 224.769531 193.386719 C 227.582031 193.386719 230.082031 191.804688 231.289062 189.261719 C 231.984375 187.796875 232.148438 186.203125 231.835938 184.699219 L 295.101562 184.699219 L 295.101562 269.707031 Z M 271.433594 126.480469 L 301.964844 171.511719 C 303.234375 173.382812 303.359375 175.695312 302.300781 177.695312 C 301.246094 179.695312 299.265625 180.890625 297.003906 180.890625 L 230.691406 180.890625 C 230.421875 180.890625 230.167969 180.949219 229.933594 181.050781 L 185.648438 126.480469 Z M 75.285156 187.625 C 74.703125 186.402344 74.867188 185.046875 75.71875 183.992188 L 145.566406 97.925781 C 147.042969 96.109375 149.234375 95.066406 151.570312 95.066406 C 153.910156 95.066406 156.101562 96.109375 157.578125 97.925781 L 227.425781 183.996094 C 228.277344 185.046875 228.441406 186.402344 227.859375 187.625 C 227.28125 188.851562 226.125 189.578125 224.773438 189.578125 C 223.738281 189.578125 222.773438 189.117188 222.121094 188.316406 L 153.046875 103.203125 C 152.683594 102.757812 152.144531 102.5 151.570312 102.5 C 151 102.5 150.457031 102.757812 150.097656 103.203125 L 81.027344 188.3125 C 80.375 189.117188 79.40625 189.578125 78.371094 189.578125 C 77.019531 189.578125 75.867188 188.847656 75.285156 187.625 Z M 84.402344 190.191406 L 151.570312 107.421875 L 218.742188 190.191406 L 218.742188 269.707031 L 213.996094 269.707031 L 213.996094 212.035156 C 213.996094 210.984375 213.144531 210.132812 212.097656 210.132812 L 169.441406 210.132812 C 168.394531 210.132812 167.542969 210.984375 167.542969 212.035156 L 167.542969 269.707031 L 84.402344 269.707031 Z M 210.195312 269.707031 L 171.34375 269.707031 L 171.34375 213.9375 L 210.195312 213.9375 Z M 299.835938 280 L 74.363281 280 C 72.609375 280 71.183594 278.574219 71.183594 276.699219 C 71.183594 274.941406 72.609375 273.511719 74.363281 273.511719 L 299.835938 273.511719 C 301.585938 273.511719 303.011719 274.941406 303.011719 276.8125 C 303.011719 278.574219 301.589844 280 299.835938 280 Z M 299.835938 280 " fill-opacity="1" fill-rule="nonzero"/></g><path fill="#000000" d="M 289.363281 207.734375 L 228.476562 207.734375 C 227.429688 207.734375 226.578125 208.585938 226.578125 209.636719 L 226.578125 249.445312 C 226.578125 250.5 227.429688 251.351562 228.476562 251.351562 L 289.363281 251.351562 C 290.414062 251.351562 291.265625 250.5 291.265625 249.445312 L 291.265625 209.636719 C 291.261719 208.585938 290.414062 207.734375 289.363281 207.734375 Z M 287.460938 239.917969 L 260.820312 239.917969 L 260.820312 211.542969 L 287.460938 211.542969 Z M 257.019531 211.542969 L 257.019531 239.917969 L 230.378906 239.917969 L 230.378906 211.542969 Z M 230.378906 247.542969 L 230.378906 243.726562 L 287.464844 243.726562 L 287.464844 247.542969 Z M 230.378906 247.542969 " fill-opacity="1" fill-rule="nonzero"/><path fill="#000000" d="M 156.671875 207.734375 L 95.785156 207.734375 C 94.738281 207.734375 93.886719 208.585938 93.886719 209.636719 L 93.886719 249.445312 C 93.886719 250.5 94.738281 251.351562 95.785156 251.351562 L 156.671875 251.351562 C 157.722656 251.351562 158.574219 250.5 158.574219 249.445312 L 158.574219 209.636719 C 158.570312 208.585938 157.722656 207.734375 156.671875 207.734375 Z M 154.769531 239.917969 L 128.128906 239.917969 L 128.128906 211.542969 L 154.769531 211.542969 Z M 124.328125 211.542969 L 124.328125 239.917969 L 97.6875 239.917969 L 97.6875 211.542969 Z M 97.6875 247.542969 L 97.6875 243.726562 L 154.773438 243.726562 L 154.773438 247.542969 Z M 97.6875 247.542969 " fill-opacity="1" fill-rule="nonzero"/><path fill="#000000" d="M 178.175781 249.042969 C 179.769531 249.042969 181.058594 247.75 181.058594 246.152344 C 181.058594 244.558594 179.769531 243.265625 178.175781 243.265625 C 176.585938 243.265625 175.292969 244.558594 175.292969 246.152344 C 175.292969 247.75 176.585938 249.042969 178.175781 249.042969 Z M 178.175781 249.042969 " fill-opacity="1" fill-rule="nonzero"/></svg>