<svg xmlns="http://www.w3.org/2000/svg" xmlns:xlink="http://www.w3.org/1999/xlink" width="500" zoomAndPan="magnify" viewBox="0 0 375 374.999991" height="500" preserveAspectRatio="xMidYMid meet" version="1.0"><defs><clipPath id="21960c898d"><path d="M 75 154.566406 L 300 154.566406 L 300 220.566406 L 75 220.566406 Z M 75 154.566406 " clip-rule="nonzero"/></clipPath><clipPath id="0d8ca2f025"><path d="M 75 154.566406 L 300 154.566406 L 300 220.566406 L 75 220.566406 Z M 75 154.566406 " clip-rule="nonzero"/></clipPath></defs><g clip-path="url(#21960c898d)"><path fill="#2d2828" d="M 126.011719 220.375 C 125.972656 220.375 125.933594 220.375 125.894531 220.371094 C 125.402344 220.339844 124.949219 220.117188 124.625 219.75 L 124.125 219.179688 L 102 219.179688 C 87.140625 219.179688 75.054688 207.066406 75.054688 192.175781 C 75.054688 191.296875 75.097656 190.402344 75.183594 189.515625 C 75.097656 188.617188 75.054688 187.722656 75.054688 186.839844 C 75.054688 185.390625 75.171875 183.925781 75.40625 182.484375 C 75.402344 182.242188 75.398438 182.007812 75.398438 181.773438 C 75.398438 166.882812 87.484375 154.769531 102.34375 154.769531 L 273 154.769531 C 287.859375 154.769531 299.945312 166.882812 299.945312 181.773438 C 299.945312 183.226562 299.828125 184.691406 299.59375 186.128906 C 299.597656 186.371094 299.601562 186.605469 299.601562 186.839844 C 299.601562 187.722656 299.558594 188.617188 299.472656 189.503906 C 299.558594 190.402344 299.601562 191.296875 299.601562 192.175781 C 299.601562 207.066406 287.515625 219.179688 272.65625 219.179688 L 128.058594 219.179688 L 127.230469 219.914062 C 126.894531 220.210938 126.460938 220.375 126.011719 220.375 Z M 126.011719 220.375 " fill-opacity="1" fill-rule="nonzero"/></g><path fill="#f7000f" d="M 138.230469 170.097656 C 130.980469 170.097656 125.101562 175.984375 125.101562 183.25 C 125.101562 190.515625 130.980469 196.40625 138.230469 196.40625 C 145.476562 196.40625 151.355469 190.515625 151.355469 183.25 C 151.355469 175.984375 145.476562 170.097656 138.230469 170.097656 Z M 139.714844 190.027344 C 138.863281 190.566406 137.78125 190.566406 136.933594 190.027344 C 134.582031 188.535156 130.117188 185.191406 130.421875 181.035156 C 130.777344 176.210938 135.953125 175.285156 138.324219 179.527344 C 140.695312 175.285156 145.871094 176.210938 146.226562 181.035156 C 146.53125 185.191406 142.066406 188.535156 139.714844 190.027344 Z M 184.089844 183.25 C 184.089844 190.515625 178.210938 196.40625 170.960938 196.40625 C 163.710938 196.40625 157.835938 190.515625 157.835938 183.25 C 157.835938 175.984375 163.710938 170.097656 170.960938 170.097656 C 178.210938 170.097656 184.089844 175.984375 184.089844 183.25 Z M 275.75 189.25 C 274.121094 191.046875 271.773438 192.175781 269.160156 192.175781 C 266.546875 192.175781 264.199219 191.046875 262.570312 189.25 C 262.789062 187.984375 263.363281 186.839844 264.183594 185.925781 L 274.136719 185.925781 C 274.957031 186.839844 275.53125 187.984375 275.75 189.25 Z M 275.75 189.25 " fill-opacity="1" fill-rule="nonzero"/><path fill="#0041d1" d="M 105.496094 160.394531 C 97.34375 160.394531 90.738281 167.015625 90.738281 175.183594 C 90.738281 183.351562 97.34375 189.972656 105.496094 189.972656 C 113.648438 189.972656 120.253906 183.351562 120.253906 175.183594 C 120.253906 167.015625 113.648438 160.394531 105.496094 160.394531 Z M 101.125 182.542969 C 101.125 182.9375 100.804688 183.257812 100.414062 183.257812 L 97.828125 183.257812 C 97.4375 183.257812 97.117188 182.9375 97.117188 182.542969 L 97.117188 173.976562 C 97.117188 173.585938 97.4375 173.265625 97.828125 173.265625 L 100.414062 173.265625 C 100.804688 173.265625 101.125 173.585938 101.125 173.976562 Z M 112.546875 177.480469 C 113.320312 178.273438 113.3125 179.042969 112.308594 179.78125 C 112.894531 180.777344 112.523438 181.46875 111.46875 181.949219 C 111.46875 181.949219 105.871094 181.9375 103.070312 181.953125 C 102.617188 181.957031 102.441406 181.804688 102.445312 181.335938 C 102.460938 179.152344 102.390625 176.96875 102.472656 174.789062 C 102.5625 172.308594 104.242188 170.679688 105.769531 168.972656 C 106.359375 168.316406 105.589844 167.335938 106.234375 166.625 C 106.574219 166.25 106.90625 165.953125 107.417969 166.101562 C 107.96875 166.257812 108.355469 166.671875 108.519531 167.207031 C 109.046875 168.921875 108.542969 170.496094 107.671875 172.195312 C 109.117188 172.195312 111.828125 172.195312 111.828125 172.195312 C 113.601562 172.695312 113.613281 173.789062 112.566406 175.242188 C 113.398438 175.964844 113.132812 176.71875 112.546875 177.480469 Z M 112.546875 177.480469 " fill-opacity="1" fill-rule="nonzero"/><path fill="#f5f1e1" d="M 273 155.09375 L 102.34375 155.09375 C 87.640625 155.09375 75.722656 167.039062 75.722656 181.773438 C 75.722656 182.015625 75.726562 182.253906 75.730469 182.496094 C 76.113281 196.894531 87.882812 208.453125 102.34375 208.453125 L 110.503906 208.453125 L 109.125 194.777344 L 126.941406 199.039062 C 127.433594 199.15625 127.585938 199.777344 127.210938 200.113281 L 123.175781 203.695312 L 127.359375 208.453125 L 273 208.453125 C 286.226562 208.453125 297.195312 198.785156 299.269531 186.121094 C 299.5 184.707031 299.621094 183.253906 299.621094 181.773438 C 299.621094 167.039062 287.703125 155.09375 273 155.09375 Z M 105.496094 189.972656 C 97.34375 189.972656 90.738281 183.351562 90.738281 175.183594 C 90.738281 167.015625 97.34375 160.394531 105.496094 160.394531 C 113.648438 160.394531 120.253906 167.015625 120.253906 175.183594 C 120.253906 183.351562 113.648438 189.972656 105.496094 189.972656 Z M 138.230469 196.40625 C 130.980469 196.40625 125.101562 190.515625 125.101562 183.25 C 125.101562 175.984375 130.980469 170.097656 138.230469 170.097656 C 145.476562 170.097656 151.355469 175.984375 151.355469 183.25 C 151.355469 190.515625 145.476562 196.40625 138.230469 196.40625 Z M 170.960938 196.40625 C 163.710938 196.40625 157.835938 190.515625 157.835938 183.25 C 157.835938 175.984375 163.710938 170.097656 170.960938 170.097656 C 178.210938 170.097656 184.089844 175.984375 184.089844 183.25 C 184.089844 190.515625 178.210938 196.40625 170.960938 196.40625 Z M 203.695312 196.40625 C 196.445312 196.40625 190.566406 190.515625 190.566406 183.25 C 190.566406 175.984375 196.445312 170.097656 203.695312 170.097656 C 210.945312 170.097656 216.820312 175.984375 216.820312 183.25 C 216.820312 190.515625 210.945312 196.40625 203.695312 196.40625 Z M 236.425781 196.40625 C 229.179688 196.40625 223.300781 190.515625 223.300781 183.25 C 223.300781 175.984375 229.179688 170.097656 236.425781 170.097656 C 243.675781 170.097656 249.554688 175.984375 249.554688 183.25 C 249.554688 190.515625 243.675781 196.40625 236.425781 196.40625 Z M 269.160156 196.40625 C 261.910156 196.40625 256.035156 190.515625 256.035156 183.25 C 256.035156 175.984375 261.910156 170.097656 269.160156 170.097656 C 276.410156 170.097656 282.285156 175.984375 282.285156 183.25 C 282.285156 190.515625 276.410156 196.40625 269.160156 196.40625 Z M 146.226562 181.035156 C 146.53125 185.191406 142.066406 188.535156 139.714844 190.027344 C 138.863281 190.566406 137.78125 190.566406 136.933594 190.027344 C 134.582031 188.535156 130.117188 185.191406 130.421875 181.035156 C 130.777344 176.210938 135.953125 175.285156 138.324219 179.527344 C 140.695312 175.285156 145.871094 176.210938 146.226562 181.035156 Z M 211.488281 181 C 211.488281 181 212.652344 183.6875 212.652344 184.335938 C 212.652344 184.980469 212.132812 185.503906 211.488281 185.503906 C 210.84375 185.503906 210.320312 184.980469 210.320312 184.335938 C 210.320312 183.6875 211.488281 181 211.488281 181 Z M 101.125 173.976562 L 101.125 182.542969 C 101.125 182.9375 100.804688 183.257812 100.414062 183.257812 L 97.828125 183.257812 C 97.4375 183.257812 97.117188 182.9375 97.117188 182.542969 L 97.117188 173.976562 C 97.117188 173.585938 97.4375 173.265625 97.828125 173.265625 L 100.414062 173.265625 C 100.804688 173.265625 101.125 173.585938 101.125 173.976562 Z M 112.566406 175.242188 C 113.398438 175.964844 113.132812 176.71875 112.546875 177.480469 C 113.320312 178.273438 113.3125 179.042969 112.308594 179.78125 C 112.894531 180.777344 112.523438 181.46875 111.46875 181.949219 C 111.46875 181.949219 105.871094 181.9375 103.070312 181.953125 C 102.617188 181.957031 102.441406 181.804688 102.445312 181.335938 C 102.460938 179.152344 102.390625 176.96875 102.472656 174.789062 C 102.5625 172.308594 104.242188 170.679688 105.769531 168.972656 C 106.359375 168.316406 105.589844 167.335938 106.234375 166.625 C 106.574219 166.25 106.90625 165.953125 107.417969 166.101562 C 107.96875 166.257812 108.355469 166.671875 108.519531 167.207031 C 109.046875 168.921875 108.542969 170.496094 107.671875 172.195312 C 109.117188 172.195312 111.828125 172.195312 111.828125 172.195312 C 113.601562 172.695312 113.613281 173.789062 112.566406 175.242188 Z M 274.414062 183.25 C 275.148438 183.25 275.796875 183.515625 276.292969 183.9375 L 276.292969 184.160156 C 276.292969 185.132812 275.503906 185.925781 274.53125 185.925781 L 263.789062 185.925781 C 262.816406 185.925781 262.027344 185.132812 262.027344 184.160156 L 262.027344 183.9375 C 262.523438 183.515625 263.171875 183.25 263.90625 183.25 Z M 274.414062 183.25 " fill-opacity="1" fill-rule="nonzero"/><path fill="#ffc900" d="M 236.425781 196.40625 C 243.675781 196.40625 249.554688 190.515625 249.554688 183.25 C 249.554688 175.984375 243.675781 170.097656 236.425781 170.097656 C 229.179688 170.097656 223.300781 175.984375 223.300781 183.25 C 223.300781 190.515625 229.179688 196.40625 236.425781 196.40625 Z M 190.566406 183.25 C 190.566406 175.984375 196.445312 170.097656 203.695312 170.097656 C 210.945312 170.097656 216.820312 175.984375 216.820312 183.25 C 216.820312 190.515625 210.945312 196.40625 203.695312 196.40625 C 196.445312 196.40625 190.566406 190.515625 190.566406 183.25 Z M 210.320312 184.335938 C 210.320312 184.980469 210.84375 185.503906 211.488281 185.503906 C 212.132812 185.503906 212.652344 184.980469 212.652344 184.335938 C 212.652344 183.6875 211.488281 181 211.488281 181 C 211.488281 181 210.320312 183.6875 210.320312 184.335938 Z M 256.035156 183.25 C 256.035156 175.984375 261.910156 170.097656 269.160156 170.097656 C 276.410156 170.097656 282.285156 175.984375 282.285156 183.25 C 282.285156 190.515625 276.410156 196.40625 269.160156 196.40625 C 261.910156 196.40625 256.035156 190.515625 256.035156 183.25 Z M 262.027344 184.160156 C 262.027344 185.132812 262.816406 185.925781 263.789062 185.925781 L 264.183594 185.925781 C 263.363281 186.839844 262.789062 187.984375 262.570312 189.25 C 264.199219 191.046875 266.546875 192.175781 269.160156 192.175781 C 271.773438 192.175781 274.121094 191.046875 275.75 189.25 C 275.53125 187.984375 274.957031 186.839844 274.136719 185.925781 L 274.53125 185.925781 C 275.503906 185.925781 276.292969 185.132812 276.292969 184.160156 L 276.292969 183.9375 C 275.796875 183.515625 275.148438 183.25 274.414062 183.25 L 263.90625 183.25 C 263.171875 183.25 262.523438 183.515625 262.027344 183.9375 Z M 299.269531 186.121094 C 297.195312 198.785156 286.226562 208.453125 273 208.453125 L 127.359375 208.453125 L 123.175781 203.695312 L 127.210938 200.113281 C 127.585938 199.777344 127.433594 199.15625 126.941406 199.039062 L 109.125 194.777344 L 110.503906 208.453125 L 102.34375 208.453125 C 87.882812 208.453125 76.113281 196.894531 75.730469 182.496094 C 75.5 183.910156 75.378906 185.359375 75.378906 186.839844 C 75.378906 201.574219 87.296875 213.519531 102 213.519531 L 111.273438 213.519531 C 111.457031 213.625 111.691406 213.636719 111.890625 213.519531 L 120.910156 213.519531 L 124.367188 217.449219 C 124.921875 218.082031 125.886719 218.144531 126.515625 217.585938 L 130.371094 214.183594 C 130.578125 213.996094 130.722656 213.765625 130.804688 213.519531 L 272.65625 213.519531 C 287.359375 213.519531 299.277344 201.574219 299.277344 186.839844 C 299.277344 186.601562 299.273438 186.359375 299.269531 186.121094 Z M 299.269531 186.121094 " fill-opacity="1" fill-rule="nonzero"/><path fill="#f5f1e1" d="M 176.835938 179.871094 C 176.777344 179.871094 176.722656 179.855469 176.667969 179.832031 C 176.480469 179.738281 176.402344 179.511719 176.496094 179.324219 C 177.308594 177.675781 178.570312 177.125 180.144531 177.734375 C 180.339844 177.8125 180.4375 178.03125 180.363281 178.226562 C 180.289062 178.421875 180.070312 178.519531 179.875 178.441406 C 178.652344 177.96875 177.820312 178.34375 177.175781 179.65625 C 177.109375 179.792969 176.972656 179.871094 176.835938 179.871094 Z M 175.632812 178.558594 C 175.503906 178.558594 175.378906 178.492188 175.308594 178.375 C 175.199219 178.195312 175.257812 177.960938 175.433594 177.855469 C 176.554688 177.175781 176.765625 176.285156 176.125 174.96875 C 176.03125 174.78125 176.109375 174.554688 176.296875 174.464844 C 176.484375 174.371094 176.710938 174.449219 176.804688 174.636719 C 177.609375 176.289062 177.273438 177.625 175.828125 178.503906 C 175.765625 178.539062 175.699219 178.558594 175.632812 178.558594 Z M 180.417969 176.820312 C 178.804688 176.820312 177.824219 176.007812 177.574219 174.449219 C 177.542969 174.242188 177.683594 174.050781 177.886719 174.015625 C 178.09375 173.984375 178.289062 174.121094 178.320312 174.328125 C 178.53125 175.625 179.273438 176.15625 180.730469 176.050781 C 180.941406 176.039062 181.121094 176.195312 181.132812 176.402344 C 181.148438 176.613281 180.992188 176.792969 180.78125 176.808594 C 180.65625 176.816406 180.535156 176.820312 180.417969 176.820312 Z M 180.417969 176.820312 " fill-opacity="1" fill-rule="nonzero"/><g clip-path="url(#0d8ca2f025)"><path fill="#2d2828" d="M 299.648438 186.136719 C 299.878906 184.714844 300 183.257812 300 181.773438 C 300 166.855469 287.886719 154.714844 273 154.714844 L 102.34375 154.714844 C 87.457031 154.714844 75.34375 166.855469 75.34375 181.773438 C 75.34375 182.007812 75.347656 182.242188 75.351562 182.476562 C 75.121094 183.898438 75 185.355469 75 186.839844 C 75 187.742188 75.046875 188.632812 75.132812 189.507812 C 75.046875 190.386719 75 191.277344 75 192.175781 C 75 207.097656 87.113281 219.234375 102 219.234375 L 124.101562 219.234375 L 124.585938 219.785156 C 124.917969 220.164062 125.382812 220.394531 125.890625 220.425781 C 125.929688 220.429688 125.972656 220.429688 126.011719 220.429688 C 126.476562 220.429688 126.917969 220.261719 127.265625 219.953125 L 128.078125 219.234375 L 272.65625 219.234375 C 287.542969 219.234375 299.65625 207.097656 299.65625 192.175781 C 299.65625 191.277344 299.609375 190.386719 299.523438 189.507812 C 299.609375 188.632812 299.65625 187.742188 299.65625 186.839844 C 299.65625 186.605469 299.652344 186.371094 299.648438 186.136719 Z M 76.296875 178.554688 C 77.886719 165.566406 88.960938 155.472656 102.34375 155.472656 L 273 155.472656 C 287.472656 155.472656 299.242188 167.269531 299.242188 181.773438 C 299.242188 181.882812 299.242188 181.988281 299.238281 182.09375 C 299.230469 182.769531 299.199219 183.441406 299.140625 184.105469 C 299.085938 184.707031 299.015625 185.304688 298.921875 185.898438 C 298.910156 185.960938 298.898438 186.023438 298.890625 186.089844 C 298.847656 186.347656 298.800781 186.605469 298.75 186.863281 C 298.683594 187.1875 298.617188 187.511719 298.539062 187.832031 C 295.800781 199.421875 285.390625 208.074219 273 208.074219 L 127.53125 208.074219 L 124.957031 205.148438 L 127.960938 202.476562 C 128.242188 202.230469 128.359375 201.847656 128.269531 201.484375 C 128.179688 201.121094 127.894531 200.839844 127.53125 200.753906 L 127.160156 200.664062 L 127.460938 200.394531 C 127.742188 200.144531 127.859375 199.765625 127.769531 199.402344 C 127.675781 199.035156 127.394531 198.757812 127.03125 198.667969 L 109.210938 194.410156 C 109.09375 194.378906 108.964844 194.410156 108.875 194.492188 C 108.78125 194.574219 108.734375 194.691406 108.746094 194.816406 L 110.082031 208.074219 L 102.34375 208.074219 C 89.351562 208.074219 78.53125 198.558594 76.460938 186.117188 C 76.40625 185.796875 76.355469 185.472656 76.316406 185.144531 C 76.273438 184.820312 76.238281 184.492188 76.210938 184.164062 C 76.160156 183.621094 76.125 183.074219 76.109375 182.527344 C 76.105469 182.277344 76.101562 182.023438 76.101562 181.773438 C 76.101562 181.355469 76.109375 180.941406 76.128906 180.527344 C 76.160156 179.863281 76.21875 179.207031 76.296875 178.554688 Z M 75.757812 186.839844 C 75.757812 186.734375 75.757812 186.625 75.761719 186.519531 C 75.792969 186.707031 75.828125 186.890625 75.867188 187.078125 C 75.929688 187.40625 76.003906 187.730469 76.078125 188.054688 C 78.914062 199.953125 89.613281 208.832031 102.34375 208.832031 L 110.160156 208.832031 L 110.589844 213.078125 C 110.589844 213.101562 110.59375 213.121094 110.597656 213.140625 L 102 213.140625 C 88.425781 213.140625 77.230469 202.761719 75.890625 189.507812 C 75.828125 188.882812 75.785156 188.25 75.769531 187.609375 C 75.761719 187.355469 75.757812 187.097656 75.757812 186.839844 Z M 125.914062 200.753906 L 125.570312 201.0625 L 122.925781 203.410156 C 122.769531 203.550781 122.753906 203.789062 122.894531 203.945312 L 123.890625 205.082031 L 124.140625 205.367188 L 124.390625 205.648438 L 126.523438 208.074219 L 127.1875 208.832031 L 130.222656 212.277344 C 130.394531 212.476562 130.484375 212.71875 130.5 212.960938 C 130.503906 213.023438 130.503906 213.082031 130.5 213.140625 C 130.488281 213.246094 130.464844 213.351562 130.425781 213.449219 C 130.417969 213.472656 130.410156 213.496094 130.398438 213.519531 C 130.355469 213.617188 130.292969 213.707031 130.21875 213.789062 C 130.1875 213.828125 130.15625 213.863281 130.121094 213.898438 L 126.265625 217.300781 C 125.792969 217.71875 125.066406 217.675781 124.648438 217.199219 L 121.746094 213.898438 L 121.082031 213.140625 L 117.304688 208.851562 C 117.300781 208.84375 117.292969 208.835938 117.285156 208.832031 C 117.210938 208.757812 117.117188 208.722656 117.023438 208.722656 C 116.933594 208.722656 116.847656 208.75 116.777344 208.8125 L 116.753906 208.832031 L 111.769531 213.140625 L 111.742188 213.164062 C 111.714844 213.191406 111.683594 213.203125 111.652344 213.214844 C 111.585938 213.234375 111.523438 213.21875 111.492188 213.207031 C 111.472656 213.199219 111.433594 213.175781 111.402344 213.140625 C 111.371094 213.109375 111.347656 213.066406 111.339844 213.003906 L 110.921875 208.832031 L 110.84375 208.074219 L 109.714844 196.882812 L 109.675781 196.488281 L 109.554688 195.269531 L 126.855469 199.40625 C 126.984375 199.4375 127.023438 199.542969 127.035156 199.585938 C 127.046875 199.628906 127.058594 199.738281 126.960938 199.828125 L 126.261719 200.449219 Z M 117.488281 211.714844 L 118.742188 213.140625 L 115.839844 213.140625 Z M 272.65625 213.140625 L 131.257812 213.140625 C 131.285156 212.660156 131.132812 212.167969 130.789062 211.777344 L 128.195312 208.832031 L 273 208.832031 C 285.003906 208.832031 295.203125 200.9375 298.703125 190.058594 C 297.113281 203.046875 286.039062 213.140625 272.65625 213.140625 Z M 269.160156 196.785156 C 276.605469 196.785156 282.664062 190.714844 282.664062 183.25 C 282.664062 175.789062 276.605469 169.71875 269.160156 169.71875 C 261.714844 169.71875 255.65625 175.789062 255.65625 183.25 C 255.65625 190.714844 261.714844 196.785156 269.160156 196.785156 Z M 269.160156 170.476562 C 276.191406 170.476562 281.910156 176.207031 281.910156 183.25 C 281.910156 190.296875 276.191406 196.027344 269.160156 196.027344 C 262.128906 196.027344 256.410156 190.296875 256.410156 183.25 C 256.410156 176.207031 262.128906 170.476562 269.160156 170.476562 Z M 138.230469 196.785156 C 145.675781 196.785156 151.734375 190.714844 151.734375 183.25 C 151.734375 175.789062 145.675781 169.71875 138.230469 169.71875 C 130.78125 169.71875 124.722656 175.789062 124.722656 183.25 C 124.722656 190.714844 130.78125 196.785156 138.230469 196.785156 Z M 150.976562 183.25 C 150.976562 190.296875 145.257812 196.027344 138.230469 196.027344 C 131.199219 196.027344 125.480469 190.296875 125.480469 183.25 C 125.480469 176.207031 131.199219 170.476562 138.230469 170.476562 C 145.257812 170.476562 150.976562 176.207031 150.976562 183.25 Z M 136.730469 190.347656 C 137.214844 190.652344 137.769531 190.808594 138.324219 190.808594 C 138.878906 190.808594 139.433594 190.652344 139.917969 190.347656 C 142.550781 188.679688 146.914062 185.246094 146.605469 181.007812 C 146.433594 178.671875 145.140625 176.960938 143.234375 176.535156 C 141.425781 176.132812 139.550781 177.015625 138.324219 178.808594 C 137.097656 177.015625 135.226562 176.132812 133.414062 176.535156 C 131.507812 176.960938 130.214844 178.671875 130.042969 181.007812 C 129.734375 185.246094 134.097656 188.679688 136.730469 190.347656 Z M 130.796875 181.0625 C 130.945312 179.074219 132.007812 177.625 133.578125 177.277344 C 133.8125 177.222656 134.046875 177.199219 134.285156 177.199219 C 135.707031 177.199219 137.109375 178.125 137.996094 179.710938 C 138.0625 179.832031 138.1875 179.902344 138.324219 179.902344 C 138.460938 179.902344 138.585938 179.832031 138.652344 179.710938 C 139.6875 177.863281 141.417969 176.90625 143.070312 177.277344 C 144.640625 177.625 145.703125 179.074219 145.851562 181.0625 C 146.132812 184.90625 142 188.128906 139.515625 189.707031 C 138.789062 190.164062 137.855469 190.164062 137.132812 189.707031 C 134.648438 188.128906 130.515625 184.90625 130.796875 181.0625 Z M 170.960938 196.785156 C 178.410156 196.785156 184.464844 190.714844 184.464844 183.25 C 184.464844 175.789062 178.410156 169.71875 170.960938 169.71875 C 163.515625 169.71875 157.457031 175.789062 157.457031 183.25 C 157.457031 190.714844 163.515625 196.785156 170.960938 196.785156 Z M 183.710938 183.25 C 183.710938 190.296875 177.992188 196.027344 170.960938 196.027344 C 163.933594 196.027344 158.214844 190.296875 158.214844 183.25 C 158.214844 176.207031 163.933594 170.476562 170.960938 170.476562 C 177.992188 170.476562 183.710938 176.207031 183.710938 183.25 Z M 162.382812 180.113281 C 162.238281 179.964844 162.242188 179.722656 162.394531 179.578125 C 162.546875 179.433594 162.785156 179.441406 162.929688 179.589844 C 164.820312 181.566406 166.773438 182.210938 169.085938 181.617188 C 169.285156 181.5625 169.492188 181.6875 169.542969 181.890625 C 169.597656 182.089844 169.472656 182.296875 169.273438 182.351562 C 168.722656 182.492188 168.183594 182.566406 167.660156 182.578125 C 167.449219 183.441406 166.660156 184.074219 165.765625 184.074219 C 164.6875 184.074219 163.8125 183.195312 163.8125 182.113281 C 163.8125 181.886719 163.855469 181.65625 163.933594 181.441406 C 163.402344 181.085938 162.886719 180.644531 162.382812 180.113281 Z M 172.378906 181.890625 C 172.429688 181.6875 172.636719 181.5625 172.839844 181.617188 C 175.148438 182.210938 177.105469 181.566406 178.992188 179.589844 C 179.136719 179.441406 179.378906 179.433594 179.527344 179.578125 C 179.679688 179.722656 179.683594 179.964844 179.539062 180.113281 C 179.035156 180.640625 178.519531 181.082031 177.992188 181.441406 C 178.070312 181.65625 178.113281 181.886719 178.113281 182.113281 C 178.113281 183.195312 177.234375 184.074219 176.160156 184.074219 C 175.261719 184.074219 174.472656 183.441406 174.261719 182.578125 C 173.738281 182.566406 173.203125 182.492188 172.652344 182.351562 C 172.449219 182.296875 172.328125 182.089844 172.378906 181.890625 Z M 165.679688 187.910156 C 169.183594 187.1875 172.738281 187.1875 176.246094 187.910156 C 176.449219 187.949219 176.582031 188.152344 176.539062 188.355469 C 176.503906 188.535156 176.34375 188.660156 176.167969 188.660156 C 176.144531 188.660156 176.117188 188.65625 176.09375 188.652344 C 172.6875 187.953125 169.234375 187.953125 165.832031 188.652344 C 165.625 188.691406 165.425781 188.5625 165.382812 188.355469 C 165.34375 188.152344 165.472656 187.949219 165.679688 187.910156 Z M 203.695312 196.785156 C 211.140625 196.785156 217.199219 190.714844 217.199219 183.25 C 217.199219 175.789062 211.140625 169.71875 203.695312 169.71875 C 196.25 169.71875 190.191406 175.789062 190.191406 183.25 C 190.191406 190.714844 196.25 196.785156 203.695312 196.785156 Z M 216.441406 183.25 C 216.441406 190.296875 210.722656 196.027344 203.695312 196.027344 C 196.664062 196.027344 190.945312 190.296875 190.945312 183.25 C 190.945312 176.207031 196.664062 170.476562 203.695312 170.476562 C 210.722656 170.476562 216.441406 176.207031 216.441406 183.25 Z M 206.441406 178.160156 C 206.390625 177.953125 206.519531 177.75 206.722656 177.703125 C 208.9375 177.171875 210.683594 177.640625 212.058594 179.128906 C 212.203125 179.28125 212.191406 179.519531 212.039062 179.664062 C 211.96875 179.730469 211.875 179.765625 211.78125 179.765625 C 211.679688 179.765625 211.578125 179.722656 211.503906 179.644531 C 210.316406 178.355469 208.851562 177.972656 206.894531 178.4375 C 206.691406 178.488281 206.488281 178.363281 206.441406 178.160156 Z M 195.351562 179.664062 C 195.195312 179.523438 195.1875 179.28125 195.328125 179.128906 C 196.703125 177.640625 198.449219 177.171875 200.667969 177.703125 C 200.871094 177.75 200.996094 177.953125 200.949219 178.160156 C 200.898438 178.363281 200.695312 178.488281 200.492188 178.4375 C 198.539062 177.972656 197.074219 178.355469 195.882812 179.644531 C 195.808594 179.722656 195.707031 179.765625 195.605469 179.765625 C 195.515625 179.765625 195.421875 179.730469 195.351562 179.664062 Z M 200.453125 182.113281 C 200.453125 183.195312 199.574219 184.074219 198.496094 184.074219 C 197.421875 184.074219 196.542969 183.195312 196.542969 182.113281 C 196.542969 181.035156 197.421875 180.15625 198.496094 180.15625 C 199.574219 180.15625 200.453125 181.035156 200.453125 182.113281 Z M 200.695312 187.363281 C 202.683594 185.746094 204.703125 185.746094 206.695312 187.363281 C 206.855469 187.496094 206.878906 187.734375 206.75 187.894531 C 206.675781 187.988281 206.566406 188.035156 206.457031 188.035156 C 206.371094 188.035156 206.289062 188.007812 206.21875 187.953125 C 204.519531 186.570312 202.871094 186.570312 201.171875 187.953125 C 201.011719 188.082031 200.773438 188.058594 200.640625 187.894531 C 200.507812 187.734375 200.535156 187.496094 200.695312 187.363281 Z M 211.488281 180.621094 C 211.335938 180.621094 211.199219 180.707031 211.140625 180.847656 C 211.082031 180.984375 210.949219 181.292969 210.792969 181.675781 C 210.59375 180.804688 209.816406 180.15625 208.890625 180.15625 C 207.8125 180.15625 206.9375 181.035156 206.9375 182.113281 C 206.9375 183.195312 207.8125 184.074219 208.890625 184.074219 C 209.335938 184.074219 209.742188 183.921875 210.070312 183.671875 C 209.992188 183.945312 209.941406 184.183594 209.941406 184.335938 C 209.941406 185.1875 210.636719 185.882812 211.488281 185.882812 C 212.339844 185.882812 213.03125 185.1875 213.03125 184.335938 C 213.03125 183.644531 212.035156 181.308594 211.835938 180.847656 C 211.773438 180.707031 211.636719 180.621094 211.488281 180.621094 Z M 211.488281 185.125 C 211.050781 185.125 210.699219 184.769531 210.699219 184.335938 C 210.699219 184.035156 211.089844 182.953125 211.488281 181.976562 C 211.882812 182.953125 212.277344 184.035156 212.277344 184.335938 C 212.277344 184.769531 211.921875 185.125 211.488281 185.125 Z M 236.425781 196.785156 C 243.875 196.785156 249.933594 190.714844 249.933594 183.25 C 249.933594 175.789062 243.875 169.71875 236.425781 169.71875 C 228.980469 169.71875 222.921875 175.789062 222.921875 183.25 C 222.921875 190.714844 228.980469 196.785156 236.425781 196.785156 Z M 236.425781 170.476562 C 243.457031 170.476562 249.175781 176.207031 249.175781 183.25 C 249.175781 190.296875 243.457031 196.027344 236.425781 196.027344 C 229.398438 196.027344 223.679688 190.296875 223.679688 183.25 C 223.679688 176.207031 229.398438 170.476562 236.425781 170.476562 Z M 230.738281 175.507812 C 230.585938 175.367188 230.578125 175.128906 230.71875 174.972656 C 231.445312 174.183594 232.367188 173.9375 233.535156 174.214844 C 233.738281 174.261719 233.863281 174.46875 233.8125 174.671875 C 233.765625 174.875 233.5625 175 233.359375 174.953125 C 232.46875 174.738281 231.808594 174.910156 231.273438 175.488281 C 231.199219 175.570312 231.097656 175.609375 230.996094 175.609375 C 230.902344 175.609375 230.8125 175.578125 230.738281 175.507812 Z M 230.785156 179.394531 C 230.992188 178.855469 231.324219 178.398438 231.714844 178.101562 C 232.152344 177.773438 232.640625 177.675781 233.054688 177.835938 C 233.863281 178.152344 234.140625 179.328125 233.679688 180.519531 C 233.292969 181.511719 232.535156 182.152344 231.824219 182.152344 C 231.683594 182.152344 231.546875 182.128906 231.414062 182.074219 C 230.601562 181.761719 230.324219 180.582031 230.785156 179.394531 Z M 239.039062 174.671875 C 238.992188 174.46875 239.117188 174.261719 239.320312 174.214844 C 240.488281 173.9375 241.40625 174.183594 242.136719 174.972656 C 242.277344 175.128906 242.269531 175.367188 242.117188 175.507812 C 242.042969 175.578125 241.949219 175.609375 241.859375 175.609375 C 241.757812 175.609375 241.65625 175.570312 241.582031 175.488281 C 241.046875 174.910156 240.382812 174.738281 239.496094 174.953125 C 239.292969 175 239.089844 174.875 239.039062 174.671875 Z M 239.175781 180.519531 C 238.714844 179.328125 238.992188 178.152344 239.800781 177.835938 C 240.613281 177.519531 241.609375 178.203125 242.070312 179.394531 C 242.527344 180.582031 242.253906 181.761719 241.441406 182.074219 C 241.308594 182.128906 241.171875 182.152344 241.03125 182.152344 C 240.320312 182.152344 239.558594 181.511719 239.175781 180.519531 Z M 234.371094 187.851562 C 234.371094 186.0625 235.058594 182.871094 236.425781 182.871094 C 237.796875 182.871094 238.484375 186.0625 238.484375 187.851562 C 238.484375 190.296875 237.363281 190.808594 236.425781 190.808594 C 235.488281 190.808594 234.371094 190.296875 234.371094 187.851562 Z M 238.417969 191.3125 C 238.535156 191.488281 238.488281 191.722656 238.316406 191.839844 C 237.617188 192.320312 236.945312 192.558594 236.316406 192.558594 C 235.671875 192.558594 235.0625 192.308594 234.5 191.8125 C 234.34375 191.671875 234.328125 191.433594 234.46875 191.277344 C 234.605469 191.121094 234.84375 191.105469 235 191.242188 C 235.847656 191.992188 236.765625 191.984375 237.890625 191.214844 C 238.0625 191.097656 238.300781 191.140625 238.417969 191.3125 Z M 262.289062 189.503906 C 262.292969 189.507812 262.292969 189.507812 262.292969 189.507812 C 262.421875 189.648438 262.550781 189.78125 262.6875 189.914062 C 262.699219 189.925781 262.710938 189.9375 262.726562 189.953125 C 262.851562 190.074219 262.980469 190.1875 263.113281 190.300781 C 263.132812 190.320312 263.15625 190.339844 263.175781 190.359375 C 263.304688 190.46875 263.433594 190.570312 263.566406 190.667969 C 263.59375 190.691406 263.621094 190.710938 263.648438 190.730469 C 263.804688 190.847656 263.96875 190.960938 264.132812 191.070312 C 264.136719 191.070312 264.140625 191.074219 264.144531 191.074219 C 264.273438 191.160156 264.40625 191.238281 264.542969 191.316406 C 264.566406 191.332031 264.589844 191.34375 264.613281 191.355469 C 264.992188 191.570312 265.386719 191.757812 265.796875 191.917969 C 265.828125 191.929688 265.863281 191.945312 265.898438 191.957031 C 266.019531 192.003906 266.140625 192.046875 266.265625 192.089844 C 266.3125 192.105469 266.359375 192.117188 266.40625 192.132812 C 266.761719 192.242188 267.125 192.332031 267.492188 192.398438 C 267.59375 192.417969 267.695312 192.4375 267.800781 192.453125 C 267.878906 192.464844 267.957031 192.472656 268.039062 192.484375 C 268.15625 192.5 268.277344 192.511719 268.398438 192.519531 C 268.460938 192.527344 268.527344 192.53125 268.59375 192.535156 C 268.78125 192.546875 268.96875 192.554688 269.160156 192.554688 C 269.351562 192.554688 269.539062 192.546875 269.726562 192.535156 C 269.792969 192.53125 269.859375 192.527344 269.921875 192.519531 C 270.042969 192.511719 270.164062 192.5 270.285156 192.484375 C 270.363281 192.472656 270.441406 192.464844 270.519531 192.453125 C 270.625 192.4375 270.726562 192.417969 270.828125 192.398438 C 271.195312 192.332031 271.554688 192.242188 271.910156 192.132812 C 271.957031 192.117188 272.007812 192.105469 272.054688 192.085938 C 272.179688 192.046875 272.300781 192.003906 272.421875 191.957031 C 272.457031 191.945312 272.492188 191.929688 272.527344 191.917969 C 272.933594 191.757812 273.324219 191.570312 273.703125 191.359375 C 273.726562 191.34375 273.753906 191.332031 273.777344 191.320312 C 273.910156 191.242188 274.042969 191.160156 274.171875 191.078125 C 274.175781 191.074219 274.183594 191.070312 274.1875 191.066406 C 274.46875 190.886719 274.734375 190.6875 274.992188 190.480469 C 275.046875 190.4375 275.101562 190.394531 275.15625 190.347656 C 275.210938 190.304688 275.261719 190.253906 275.3125 190.207031 C 275.5625 189.988281 275.804688 189.753906 276.027344 189.507812 C 276.027344 189.503906 276.027344 189.503906 276.03125 189.503906 C 276.511719 188.972656 276.945312 188.382812 277.300781 187.734375 C 277.859375 186.710938 277.839844 185.5 277.246094 184.492188 C 277.054688 184.167969 276.8125 183.886719 276.539062 183.652344 C 276.539062 183.652344 276.539062 183.648438 276.535156 183.648438 C 276.535156 183.648438 276.53125 183.644531 276.527344 183.644531 C 276.480469 183.601562 276.429688 183.5625 276.378906 183.523438 C 276.367188 183.515625 276.359375 183.507812 276.351562 183.503906 C 276.300781 183.46875 276.253906 183.433594 276.203125 183.398438 C 276.1875 183.390625 276.171875 183.378906 276.152344 183.371094 C 276.109375 183.34375 276.066406 183.3125 276.019531 183.289062 C 275.957031 183.253906 275.890625 183.21875 275.828125 183.1875 C 275.808594 183.179688 275.789062 183.171875 275.773438 183.164062 C 275.714844 183.136719 275.65625 183.113281 275.597656 183.089844 C 275.570312 183.078125 275.539062 183.066406 275.507812 183.058594 C 275.453125 183.039062 275.394531 183.019531 275.339844 183.003906 C 275.304688 182.992188 275.265625 182.984375 275.230469 182.972656 C 275.164062 182.957031 275.097656 182.941406 275.03125 182.929688 C 275 182.921875 274.964844 182.917969 274.933594 182.914062 C 274.878906 182.90625 274.820312 182.898438 274.765625 182.890625 C 274.734375 182.886719 274.703125 182.886719 274.675781 182.882812 C 274.589844 182.875 274.503906 182.871094 274.414062 182.871094 L 263.90625 182.871094 C 263.816406 182.871094 263.730469 182.875 263.644531 182.882812 C 263.617188 182.886719 263.585938 182.886719 263.558594 182.890625 C 263.5 182.898438 263.441406 182.90625 263.386719 182.914062 C 263.355469 182.917969 263.320312 182.921875 263.289062 182.929688 C 263.222656 182.941406 263.15625 182.957031 263.089844 182.972656 C 263.054688 182.984375 263.019531 182.992188 262.980469 183.003906 C 262.925781 183.019531 262.867188 183.039062 262.8125 183.058594 C 262.78125 183.066406 262.753906 183.078125 262.722656 183.089844 C 262.664062 183.113281 262.605469 183.136719 262.546875 183.164062 C 262.53125 183.171875 262.511719 183.179688 262.492188 183.1875 C 262.429688 183.21875 262.363281 183.253906 262.300781 183.289062 C 262.253906 183.3125 262.210938 183.34375 262.167969 183.371094 C 262.148438 183.378906 262.132812 183.390625 262.117188 183.398438 C 262.066406 183.433594 262.019531 183.46875 261.96875 183.503906 C 261.960938 183.507812 261.953125 183.515625 261.945312 183.523438 C 261.890625 183.5625 261.839844 183.601562 261.792969 183.644531 C 261.789062 183.644531 261.785156 183.648438 261.785156 183.648438 C 261.78125 183.648438 261.78125 183.652344 261.78125 183.652344 C 261.507812 183.886719 261.265625 184.167969 261.074219 184.492188 C 260.480469 185.5 260.460938 186.710938 261.019531 187.734375 C 261.375 188.382812 261.804688 188.972656 262.289062 189.503906 Z M 262.941406 183.816406 C 263.035156 183.777344 263.132812 183.746094 263.230469 183.71875 C 263.238281 183.71875 263.25 183.714844 263.257812 183.710938 C 263.355469 183.6875 263.453125 183.667969 263.550781 183.65625 C 263.566406 183.652344 263.585938 183.652344 263.601562 183.648438 C 263.699219 183.636719 263.800781 183.628906 263.90625 183.628906 L 274.414062 183.628906 C 274.519531 183.628906 274.621094 183.636719 274.722656 183.648438 C 274.738281 183.652344 274.753906 183.652344 274.769531 183.65625 C 274.867188 183.667969 274.964844 183.6875 275.0625 183.710938 C 275.070312 183.714844 275.082031 183.71875 275.089844 183.71875 C 275.1875 183.746094 275.285156 183.777344 275.378906 183.816406 C 275.378906 183.816406 275.378906 183.820312 275.382812 183.820312 C 275.46875 183.855469 275.554688 183.898438 275.636719 183.945312 C 275.660156 183.957031 275.679688 183.96875 275.703125 183.980469 C 275.773438 184.023438 275.84375 184.070312 275.914062 184.121094 L 275.914062 184.160156 C 275.914062 184.925781 275.292969 185.546875 274.53125 185.546875 L 263.789062 185.546875 C 263.027344 185.546875 262.40625 184.925781 262.40625 184.160156 L 262.40625 184.121094 C 262.476562 184.070312 262.546875 184.023438 262.617188 183.980469 C 262.640625 183.96875 262.660156 183.957031 262.683594 183.945312 C 262.765625 183.898438 262.851562 183.855469 262.9375 183.820312 C 262.941406 183.820312 262.941406 183.816406 262.941406 183.816406 Z M 272.15625 191.25 C 272.144531 191.253906 272.128906 191.261719 272.113281 191.265625 C 272 191.308594 271.890625 191.34375 271.777344 191.382812 C 271.730469 191.398438 271.683594 191.410156 271.636719 191.425781 C 271.535156 191.457031 271.429688 191.488281 271.324219 191.515625 C 271.261719 191.53125 271.195312 191.546875 271.128906 191.5625 C 270.984375 191.597656 270.84375 191.628906 270.699219 191.652344 C 270.597656 191.671875 270.496094 191.691406 270.394531 191.707031 C 270.328125 191.714844 270.257812 191.722656 270.1875 191.734375 C 270.078125 191.746094 269.964844 191.757812 269.851562 191.765625 C 269.792969 191.773438 269.734375 191.777344 269.675781 191.78125 C 269.503906 191.792969 269.332031 191.796875 269.160156 191.796875 C 268.988281 191.796875 268.816406 191.792969 268.644531 191.78125 C 268.585938 191.777344 268.527344 191.773438 268.46875 191.765625 C 268.355469 191.757812 268.246094 191.746094 268.132812 191.734375 C 268.0625 191.722656 267.992188 191.714844 267.925781 191.707031 C 267.824219 191.691406 267.722656 191.671875 267.621094 191.652344 C 267.476562 191.628906 267.332031 191.597656 267.1875 191.5625 C 267.125 191.546875 267.058594 191.53125 266.996094 191.515625 C 266.890625 191.488281 266.785156 191.457031 266.679688 191.425781 C 266.636719 191.410156 266.589844 191.398438 266.546875 191.382812 C 266.433594 191.34375 266.320312 191.308594 266.207031 191.265625 C 266.195312 191.261719 266.179688 191.253906 266.167969 191.25 C 266.011719 191.191406 265.859375 191.128906 265.707031 191.058594 C 265.621094 191.023438 265.535156 190.980469 265.449219 190.9375 C 265.386719 190.90625 265.324219 190.878906 265.261719 190.847656 C 265.160156 190.792969 265.0625 190.738281 264.960938 190.683594 C 264.917969 190.660156 264.875 190.632812 264.832031 190.609375 C 264.726562 190.546875 264.617188 190.480469 264.511719 190.410156 C 264.484375 190.390625 264.453125 190.371094 264.425781 190.351562 C 264.3125 190.277344 264.199219 190.199219 264.089844 190.117188 C 264.074219 190.105469 264.058594 190.09375 264.042969 190.082031 C 263.664062 189.796875 263.308594 189.480469 262.976562 189.132812 C 263.195312 188.058594 263.675781 187.09375 264.347656 186.304688 L 273.972656 186.304688 C 274.644531 187.09375 275.125 188.058594 275.34375 189.132812 C 274.894531 189.605469 274.398438 190.019531 273.867188 190.375 C 273.847656 190.382812 273.832031 190.394531 273.816406 190.40625 C 273.648438 190.515625 273.472656 190.621094 273.296875 190.722656 C 273.296875 190.722656 273.292969 190.722656 273.292969 190.722656 C 272.929688 190.925781 272.546875 191.101562 272.15625 191.25 Z M 263.4375 179.585938 C 263.386719 179.382812 263.515625 179.175781 263.71875 179.128906 L 266.601562 178.441406 L 263.878906 176.734375 C 263.703125 176.621094 263.648438 176.386719 263.761719 176.210938 C 263.871094 176.035156 264.105469 175.980469 264.28125 176.089844 L 267.765625 178.28125 C 267.894531 178.363281 267.964844 178.511719 267.9375 178.664062 C 267.914062 178.816406 267.800781 178.9375 267.652344 178.972656 L 263.890625 179.867188 C 263.863281 179.871094 263.832031 179.875 263.804688 179.875 C 263.632812 179.875 263.476562 179.757812 263.4375 179.585938 Z M 270.382812 178.664062 C 270.355469 178.511719 270.425781 178.363281 270.554688 178.28125 L 274.039062 176.089844 C 274.214844 175.980469 274.449219 176.035156 274.558594 176.210938 C 274.671875 176.386719 274.617188 176.621094 274.441406 176.734375 L 271.71875 178.441406 L 274.601562 179.128906 C 274.804688 179.175781 274.933594 179.382812 274.882812 179.585938 C 274.84375 179.757812 274.6875 179.875 274.515625 179.875 C 274.488281 179.875 274.457031 179.871094 274.429688 179.867188 L 270.667969 178.972656 C 270.519531 178.9375 270.40625 178.816406 270.382812 178.664062 Z M 105.496094 190.351562 C 113.84375 190.351562 120.632812 183.546875 120.632812 175.183594 C 120.632812 171.679688 119.4375 168.449219 117.4375 165.878906 C 117.339844 165.75 117.238281 165.621094 117.136719 165.5 C 117.03125 165.371094 116.917969 165.246094 116.808594 165.121094 C 114.878906 162.941406 112.332031 161.324219 109.445312 160.542969 C 108.839844 160.378906 108.21875 160.25 107.585938 160.164062 C 106.902344 160.066406 106.207031 160.015625 105.496094 160.015625 C 104.785156 160.015625 104.089844 160.066406 103.40625 160.164062 C 102.765625 160.25 102.136719 160.378906 101.527344 160.546875 C 97.996094 161.511719 94.972656 163.722656 92.96875 166.679688 C 92.851562 166.847656 92.742188 167.023438 92.632812 167.199219 C 92.523438 167.375 92.421875 167.550781 92.316406 167.734375 C 91.074219 169.933594 90.359375 172.476562 90.359375 175.183594 C 90.359375 183.546875 97.148438 190.351562 105.496094 190.351562 Z M 93.820312 166.785156 C 93.945312 166.609375 94.074219 166.4375 94.207031 166.269531 C 96.84375 162.925781 100.921875 160.773438 105.496094 160.773438 C 109.519531 160.773438 113.164062 162.441406 115.777344 165.121094 C 115.898438 165.246094 116.019531 165.371094 116.136719 165.5 C 116.25 165.621094 116.355469 165.75 116.464844 165.878906 C 118.589844 168.390625 119.878906 171.636719 119.878906 175.183594 C 119.878906 183.128906 113.425781 189.59375 105.496094 189.59375 C 97.566406 189.59375 91.113281 183.128906 91.113281 175.183594 C 91.113281 172.277344 91.980469 169.574219 93.460938 167.308594 C 93.578125 167.128906 93.699219 166.957031 93.820312 166.785156 Z M 97.828125 183.636719 L 100.414062 183.636719 C 101.015625 183.636719 101.503906 183.148438 101.503906 182.542969 L 101.503906 173.976562 C 101.503906 173.375 101.015625 172.886719 100.414062 172.886719 L 97.828125 172.886719 C 97.230469 172.886719 96.742188 173.375 96.742188 173.976562 L 96.742188 182.542969 C 96.742188 183.148438 97.230469 183.636719 97.828125 183.636719 Z M 97.496094 173.976562 C 97.496094 173.792969 97.644531 173.644531 97.828125 173.644531 L 100.414062 173.644531 C 100.597656 173.644531 100.746094 173.792969 100.746094 173.976562 L 100.746094 182.542969 C 100.746094 182.730469 100.597656 182.878906 100.414062 182.878906 L 97.828125 182.878906 C 97.644531 182.878906 97.496094 182.730469 97.496094 182.542969 Z M 102.066406 181.335938 C 102.066406 181.546875 102.089844 181.859375 102.3125 182.082031 C 102.53125 182.304688 102.839844 182.332031 103.058594 182.332031 C 103.0625 182.332031 103.070312 182.332031 103.074219 182.332031 C 105.839844 182.316406 111.414062 182.328125 111.46875 182.328125 C 111.53125 182.328125 111.574219 182.316406 111.625 182.292969 C 112.3125 181.980469 112.742188 181.574219 112.898438 181.082031 C 113.015625 180.714844 112.976562 180.3125 112.785156 179.882812 C 113.207031 179.511719 113.433594 179.109375 113.46875 178.6875 C 113.503906 178.277344 113.355469 177.867188 113.03125 177.457031 C 113.371094 176.960938 113.816406 176.066406 113.054688 175.195312 C 113.605469 174.355469 113.773438 173.660156 113.570312 173.074219 C 113.367188 172.5 112.816406 172.082031 111.929688 171.832031 C 111.894531 171.824219 111.859375 171.816406 111.828125 171.816406 C 111.828125 171.816406 109.765625 171.816406 108.28125 171.816406 C 108.953125 170.390625 109.414062 168.835938 108.878906 167.09375 C 108.710938 166.546875 108.351562 166.121094 107.871094 165.878906 C 107.757812 165.820312 107.644531 165.773438 107.519531 165.738281 C 107.105469 165.617188 106.773438 165.714844 106.507812 165.878906 C 106.265625 166.023438 106.085938 166.226562 105.953125 166.371094 C 105.515625 166.855469 105.566406 167.421875 105.605469 167.878906 C 105.644531 168.277344 105.65625 168.53125 105.488281 168.722656 C 105.355469 168.867188 105.222656 169.011719 105.089844 169.160156 C 103.660156 170.738281 102.183594 172.371094 102.09375 174.773438 C 102.042969 176.160156 102.050781 177.570312 102.0625 178.933594 C 102.066406 179.71875 102.074219 180.535156 102.066406 181.335938 Z M 106.050781 169.226562 C 106.449219 168.78125 106.398438 168.242188 106.359375 167.8125 C 106.320312 167.382812 106.308594 167.105469 106.515625 166.878906 C 106.871094 166.484375 107.050781 166.390625 107.3125 166.464844 C 107.726562 166.582031 108.023438 166.886719 108.15625 167.316406 C 108.679688 169.023438 108.070312 170.585938 107.335938 172.019531 C 107.273438 172.140625 107.28125 172.28125 107.347656 172.390625 C 107.417969 172.503906 107.539062 172.574219 107.671875 172.574219 C 109 172.574219 111.390625 172.574219 111.773438 172.574219 C 112.378906 172.753906 112.746094 173.003906 112.855469 173.324219 C 112.988281 173.707031 112.78125 174.292969 112.261719 175.019531 C 112.144531 175.175781 112.171875 175.398438 112.316406 175.527344 C 112.78125 175.929688 112.933594 176.359375 112.246094 177.246094 C 112.132812 177.394531 112.144531 177.609375 112.273438 177.742188 C 112.589844 178.066406 112.738281 178.363281 112.71875 178.625 C 112.695312 178.898438 112.480469 179.183594 112.085938 179.472656 C 111.929688 179.589844 111.882812 179.804688 111.984375 179.972656 C 112.1875 180.320312 112.25 180.613281 112.175781 180.851562 C 112.09375 181.117188 111.828125 181.355469 111.386719 181.570312 C 110.675781 181.566406 105.652344 181.5625 103.070312 181.574219 C 102.902344 181.582031 102.851562 181.550781 102.851562 181.550781 C 102.847656 181.546875 102.820312 181.5 102.824219 181.339844 C 102.828125 180.535156 102.824219 179.71875 102.816406 178.925781 C 102.808594 177.574219 102.800781 176.171875 102.847656 174.800781 C 102.925781 172.675781 104.25 171.214844 105.652344 169.667969 C 105.785156 169.523438 105.917969 169.375 106.050781 169.226562 Z M 106.050781 169.226562 " fill-opacity="1" fill-rule="nonzero"/></g></svg>